<svg id="Capa_1" enable-background="new 0 0 507.596 507.596" height="512" viewBox="0 0 507.596 507.596" width="512" xmlns="http://www.w3.org/2000/svg"><g><g><g><path d="m144.128 317.445h-39.809c-5.248 0-9.046-5.009-7.63-10.062l8.084-28.839h38.901l8.084 28.839c1.416 5.053-2.382 10.062-7.63 10.062z" fill="#c8effe"/><path d="m129.08 317.447h-24.761c-5.249 0-9.043-5.012-7.627-10.063l8.082-28.842h24.761l-8.082 28.842c-1.416 5.051 2.378 10.063 7.627 10.063z" fill="#99e6fc"/><ellipse cx="124.223" cy="187.456" fill="#c8effe" rx="77.925" ry="98.313"/><path d="m136.608 284.534c-4.031.812-8.171 1.238-12.381 1.238-43.045 0-77.929-44.016-77.929-98.312 0-54.297 34.884-98.312 77.929-98.312 4.209 0 8.35.426 12.381 1.238-37.162 7.478-65.548 48.096-65.548 97.074-.001 48.978 28.386 89.596 65.548 97.074z" fill="#99e6fc"/><path d="m275.188 236.801h-39.809c-5.248 0-9.046-5.009-7.63-10.062l8.084-28.839h38.901l8.084 28.839c1.416 5.053-2.382 10.062-7.63 10.062z" fill="#eb5569"/><path d="m260.137 236.804h-24.761c-5.24 0-9.043-5.012-7.627-10.063l8.082-28.842h24.761l-8.082 28.842c-1.416 5.051 2.387 10.063 7.627 10.063z" fill="#e53950"/><path d="m252.623 24.713c-26.56-23.846-67.562-22.794-92.848 3.156-25.42 26.088-24.424 69.2 1.333 94.956l80.169 80.169c7.736 7.736 20.278 7.736 28.014 0l80.169-80.169c25.757-25.756 26.753-68.868 1.333-94.956-25.285-25.95-66.288-27.002-92.848-3.156-1.519 1.365-3.803 1.365-5.322 0z" fill="#eb5569"/><path d="m266.04 202.99c.515.525 1.06 1.01 1.624 1.446-7.775 6.25-19.175 5.764-26.386-1.446l-80.167-80.167c-25.762-25.752-26.752-68.866-1.337-94.955 16.313-16.739 39.163-23.117 60.447-19.136-13.114 2.446-25.643 8.835-35.686 19.136-25.415 26.089-24.425 69.203 1.337 94.955z" fill="#e53950"/><path d="m403.277 285.824h-39.809c-5.248 0-9.046-5.009-7.63-10.062l8.084-28.839h38.901l8.084 28.839c1.416 5.053-2.382 10.062-7.63 10.062z" fill="#fff0ad"/><path d="m388.232 285.822h-24.761c-5.249 0-9.053-5.002-7.636-10.063l8.092-28.832h24.761l-8.092 28.832c-1.416 5.061 2.387 10.063 7.636 10.063z" fill="#ffe177"/><ellipse cx="383.373" cy="159.723" fill="#fff0ad" rx="77.925" ry="98.313"/><path d="m395.75 256.801c-4.031.812-8.161 1.238-12.381 1.238-43.035 0-77.919-44.016-77.919-98.312s34.884-98.312 77.919-98.312c4.219 0 8.35.426 12.381 1.238-37.152 7.478-65.538 48.096-65.538 97.074s28.386 89.596 65.538 97.074z" fill="#ffe177"/></g></g><g><path d="m468.798 159.723c0-58.346-38.322-105.813-85.425-105.813-3.095 0-6.152.21-9.163.61-1.552-5.78-3.765-11.315-6.643-16.516-2.006-3.624-6.57-4.936-10.194-2.93s-4.936 6.57-2.93 10.194c2.231 4.03 3.959 8.32 5.191 12.804-35.59 12.772-61.686 53.507-61.686 101.652 0 1.318.026 2.629.065 3.936l-34.027 34.027c-2.325 2.325-5.415 3.605-8.702 3.605s-6.377-1.28-8.702-3.605l-80.168-80.168c-22.932-22.924-23.513-61.582-1.268-84.417 22.396-22.984 58.618-24.221 82.469-2.808 4.372 3.917 10.966 3.917 15.343-.004 19.373-17.388 47.469-20.211 69.913-7.029 3.572 2.098 8.167.904 10.266-2.668s.903-8.168-2.668-10.266c-27.208-15.982-61.05-13.174-85.184 6.778-29.839-24.68-73.575-22.497-100.882 5.528-13.656 14.018-20.989 32.827-20.649 52.964.038 2.276.187 4.533.417 6.769-3.293-.471-6.613-.72-9.943-.72-47.105 0-85.429 47.467-85.429 105.813 0 8.182.75 16.314 2.229 24.168.678 3.602 3.826 6.114 7.362 6.114.46 0 .927-.042 1.396-.131 4.071-.767 6.75-4.688 5.983-8.759-1.308-6.942-1.97-14.139-1.97-21.393 0-50.074 31.594-90.813 70.429-90.813 4.478 0 8.937.553 13.307 1.633 3.643 11.197 9.832 21.407 18.275 29.846l36.588 36.588c1.487 7.368 2.25 15.007 2.25 22.746 0 50.074-31.59 90.813-70.419 90.813-22.928 0-44.517-14.541-57.75-38.898-1.978-3.639-6.53-4.987-10.171-3.01-3.64 1.978-4.987 6.531-3.01 10.171 10.19 18.755 24.743 32.655 41.385 40.228l-5.211 18.596c-1.314 4.689-.381 9.604 2.561 13.484 2.941 3.879 7.42 6.104 12.288 6.104h12.131c.184 3.135.277 6.454.277 10.031 0 19.584-2.745 29.116-5.65 39.208-3.065 10.646-6.235 21.654-6.235 43.347 0 21.699 3.17 32.709 6.235 43.357 2.906 10.092 5.65 19.624 5.65 39.207 0 4.142 3.358 7.5 7.5 7.5s7.5-3.358 7.5-7.5c0-21.699-3.17-32.709-6.235-43.357-2.906-10.092-5.65-19.624-5.65-39.207 0-19.577 2.744-29.107 5.649-39.197 3.065-10.647 6.236-21.657 6.236-43.358 0-3.54-.085-6.865-.253-10.031h12.651c4.871 0 9.353-2.227 12.296-6.109 2.942-3.88 3.875-8.793 2.561-13.48l-5.222-18.608c32.589-14.922 55.885-53.798 55.885-99.29 0-1.881-.051-3.756-.13-5.626l17.988 17.988-6.976 24.895c-1.314 4.687-.381 9.601 2.562 13.481s7.42 6.106 12.286 6.106h12.614c-.107 2.583-.162 5.276-.162 8.119 0 21.693 3.17 32.702 6.235 43.347 2.906 10.091 5.65 19.624 5.65 39.207 0 19.584-2.745 29.116-5.65 39.208-3.065 10.646-6.235 21.654-6.235 43.347 0 21.699 3.17 32.709 6.236 43.357 2.905 10.092 5.65 19.624 5.65 39.207 0 4.142 3.358 7.5 7.5 7.5s7.5-3.358 7.5-7.5c0-21.699-3.17-32.709-6.236-43.357-2.905-10.092-5.65-19.624-5.65-39.207 0-19.577 2.744-29.107 5.649-39.197 3.066-10.647 6.236-21.657 6.236-43.358 0-21.7-3.17-32.71-6.236-43.357-2.905-10.09-5.649-19.62-5.649-39.197 0-2.866.059-5.557.176-8.119h12.188c4.866 0 9.344-2.226 12.286-6.106 2.943-3.881 3.877-8.794 2.563-13.481l-6.977-24.896 16.949-16.949c6.29 34.776 26.44 63.135 52.862 75.687l-4.263 15.178c-1.312 4.689-.378 9.603 2.563 13.48 2.943 3.879 7.424 6.104 12.296 6.104h13.733c.236.831.472 1.655.705 2.466 2.901 10.089 5.642 19.619 5.642 39.19 0 19.584-2.745 29.116-5.65 39.208-3.065 10.646-6.235 21.654-6.235 43.347 0 21.699 3.17 32.709 6.235 43.357 2.906 10.092 5.65 19.624 5.65 39.207 0 4.142 3.358 7.5 7.5 7.5s7.5-3.358 7.5-7.5c0-21.699-3.17-32.709-6.235-43.357-2.906-10.092-5.65-19.624-5.65-39.207 0-19.577 2.744-29.107 5.649-39.197 3.066-10.647 6.236-21.657 6.236-43.358 0-20.548-2.842-31.507-5.745-41.656h10.471c4.868 0 9.346-2.223 12.287-6.099 2.942-3.877 3.876-8.793 2.562-13.489l-4.255-15.174c32.085-15.241 54.926-53.793 54.926-98.835zm-324.258 149.686c.019.07.056.199-.072.367-.129.171-.274.171-.343.171h-39.806c-.073 0-.209 0-.335-.166-.127-.168-.09-.301-.07-.373l5.001-17.844c5.004 1.123 10.124 1.708 15.312 1.708 5.224 0 10.339-.587 15.306-1.705zm130.985-80.274c-.128.169-.261.169-.333.169h-39.816c-.072 0-.205 0-.333-.168-.128-.169-.092-.299-.072-.371l4.842-17.278c4.518 3.12 9.864 4.805 15.471 4.805s10.953-1.685 15.471-4.805l4.842 17.279c.019.07.056.2-.072.369zm128.156 48.645c.021.073.059.21-.068.377-.125.165-.263.165-.336.165h-39.806c-.076 0-.216 0-.345-.169-.126-.167-.089-.3-.071-.366l3.987-14.198c5.288 1.273 10.746 1.948 16.33 1.948s11.042-.675 16.329-1.948zm-20.308-27.244c-38.833 0-70.425-40.738-70.425-90.813s31.592-90.813 70.425-90.813 70.425 40.739 70.425 90.813-31.593 90.813-70.425 90.813z"/></g></g></svg>