<svg id="Layer_1" data-name="Layer 1" xmlns="http://www.w3.org/2000/svg" viewBox="0 0 853.85 536.63"><defs><style>.cls-1{fill:#281e81;}.cls-2{fill:#f4c110;}.cls-3{fill:#7322af;}</style></defs><title>FSKTM-Vector</title><path class="cls-1" d="M561,59.83a140.71,140.71,0,0,1,29.42-1.92c-38.55,10.7-75.63,26.26-111.31,44.27-79.9,40.75-152.68,96.94-208.34,167.61a498.38,498.38,0,0,0-40.33,59.62c-6.23-6.84-12.4-13.74-18.63-20.58l.55-.09,1.82-1.63A563.3,563.3,0,0,1,326.89,175.3q6.81-5.82,13.78-11.45c45.25-36.32,96.25-65.63,150.83-85.44C514.09,70.3,537.27,63.66,561,59.83Z" transform="translate(-93.49 -57.84)"/><path class="cls-1" d="M331.23,262.28Q393.3,245,455.38,227.7c9.94,36.33,19.41,72.79,29.39,109.1.05.77.1,1.54.16,2.32-15.46,12.08-30.58,24.59-46,36.79a57.48,57.48,0,0,0-4.64,4q256.47.1,512.94,0c.11,9.91,0,19.82.07,29.74q-139.77.14-279.55,0c-7.09-.14-14.19-.32-21.27,0-34.46,0-68.92-.16-103.37.08-16.65-.4-33.31-.37-50-.1q-48.15,0-96.31,0-8.52,6.92-17.1,13.74-27.16-77.42-54.59-154.74c-.35-1.42-1.31-2.86-.83-4.34C326.5,263.32,328.93,263,331.23,262.28Zm14,12.31c10.25,35.16,20.65,70.27,31,105.41,13.78-.08,27.58.14,41.36-.09,2.41-1.21,4.38-3.11,6.56-4.68,15.44-11.69,30.77-23.55,46.3-35.13-4.46-16.19-9.17-32.31-13.72-48.48-1.18-3.89-1.95-7.93-3.63-11.66a59.6,59.6,0,0,0-.44-6.67h-1.16c-2.38-8.72-5-17.38-7.33-26.11C411.13,256,378.26,265.52,345.27,274.59Zm39,112.92q0,7,0,14.05l2.84-.21c0-1.94-.06-3.89-.08-5.83,2.16-.46,6.59,1.41,5.94-2.34-2,0-3.95,0-5.92,0,0-1.11,0-2.2,0-3.3,2.2,0,4.42,0,6.63-.13,0-.54.05-1.61.07-2.15C390.56,387.39,387.41,387.51,384.26,387.51Zm27.46,0c0,4.62.06,9.23,0,13.85l2.69.14c.1-1.47.21-2.93.35-4.38,2.67,1,2.68,5.48,6.33,4.49-1.19-2.25-2.43-4.47-3.6-6.73a48.21,48.21,0,0,0,3.09-3.91c-2.89-.58-4.42,1.76-6,3.65-.06-2.4-.09-4.79-.11-7.18Zm27.82-.09v14.08l2.73-.15c-.09-4.59-.1-9.19,0-13.77Zm6.95,4.8c1.86,2.51.81,5.72,1.52,8.56,1.13,1.51,4.11,1.5,4.61-.59l-2.13-.77c0-2.36-1.49-6.52,2-6.76a3.18,3.18,0,0,0-2.12-1.95l-.2-3.37A9.41,9.41,0,0,0,446.49,392.26Zm10.2-4.4c-1.19,1.53,1.52,3,2.47,1.52C460.33,387.85,457.65,386.5,456.69,387.86ZM473.06,389c-1.79,2.29-.06,5.65,2.65,6.1,1.55,1,5.16.6,4.58,3.23-2,2.51-5.12.88-6.33-1.45l-2.28.43c.59,6.47,12.5,6.1,11.38-.78-.67-4.28-6.62-2.65-8.23-5.92a6.59,6.59,0,0,1,3.64-1.2,4.51,4.51,0,0,0,4.53,2.27C482.52,386.89,475.89,385.63,473.06,389Zm27.62-1.16,1.19,1.87c-.94,3.91-.67,7.94-.64,11.92l2.74-.29c.53-4.52-1.4-9.39.29-13.67Zm44.19-.08c.16,4.53.15,9.06,0,13.6l2.78.27c-.08-2.42-.12-5.13,2.44-6.28l3.61,6.15h3.74c-1.69-2.91-4.26-5.51-5.19-8.72,1.48-1.84,3.2-3.47,4.81-5.2h-3.67l-5.55,6.13c-.08-2.08-.11-4.16-.13-6.24Zm78.61,4.55c1.89,2.51.77,5.75,1.56,8.58,1,1.33,3,1.22,4.35.48.05-1.19-.62-1.82-2-1.9.24-2.37-1.32-6.3,2.08-6.84a6.27,6.27,0,0,1-2.42-5.18A10.33,10.33,0,0,0,623.48,392.26Zm47.91-4.82c0,1.44.05,2.88.1,4.33l-3-1c-5.1.23-5.61,8.19-1.85,10.55,1.39.95,2.9.14,4.28-.37,1,.17,2.11.37,3.2.54-.09-4.63-.12-9.26,0-13.89Zm42.73.13c-.09.56-.27,1.68-.37,2.24l4.28.05c0,3.88,0,7.76,0,11.64h2.81c0-3.86,0-7.73,0-11.58,1.95-.13,4.76.55,4.27-2.41C721.43,387.53,717.77,387.38,714.12,387.57Zm27-.07q0,7,0,14h2.54c.21-1.59-.08-3.5,1.45-4.54l2.45,4.57,2.87-.09c-1.23-2.12-2.44-4.24-3.65-6.36,1.06-1.31,2.12-2.63,3.14-4-2.83-.66-4.49,1.7-6.16,3.48,0-2.37,0-4.73.06-7.09Zm42.45-.06v14.1l2.73-.15c-.1-4.58-.11-9.16,0-13.74Zm36.11.43c.3.45.92,1.35,1.23,1.79-1,3.95-.69,8-.62,12.06l2.45-.4c.92-4.57-.9-9.28.37-13.78C821.92,387.64,820.78,387.75,819.65,387.87Zm16.12-.31c.09,4.6.1,9.2,0,13.81l2.68.18a81,81,0,0,1,.46-10.22c.75,3.3,1.43,6.62,2.12,9.94l2.8.39c.92-3.41,1.59-6.88,2.23-10.35a66.65,66.65,0,0,1,.6,10.18l2.66,0c0-4.65,0-9.3,0-13.95-1.49,0-3,.05-4.43.1-.68,3-1.41,6-2.26,9a64.21,64.21,0,0,1-2.49-9C838.69,387.55,837.22,387.55,835.77,387.56Zm32.32-.06q0,7,0,14h2.53c.17-1.64.1-3.43,1.35-4.69.87,1.58,1.74,3.18,2.59,4.79.94-.12,1.89-.25,2.85-.36a72.36,72.36,0,0,1-3.65-6.32c1.06-1.24,2.12-2.48,3.14-3.76-2.85-.66-4.53,1.57-6.16,3.43q0-3.55,0-7.09Zm13.46,0q0,7,0,14.08l2.73-.15c-.1-4.6-.09-9.2,0-13.79ZM937,394.09a43.07,43.07,0,0,0,.28,6.32c.49,2.1,3.3,1,4.79,1.28a4.67,4.67,0,0,0-2.33-2.57c.38-2.11-1.42-6,1.77-6.32v-1.27c-2.26-.1-1.82-2.51-2.24-4.07C937.6,389.12,934.28,391.92,937,394.09Zm-538.3.33c2-.83,4.33-2.63,5.94-.22-2,.77-4.3,1.09-6.13,2.31-1.3,1.89-.53,4.95,2,5.3a12.36,12.36,0,0,1,6.55-.26c-.36-3-.13-6.08-.59-9.07C404.66,389.62,397.76,390.21,398.66,394.42Zm33.07-3.36c-.71,2.85,1.4,7.86-2.36,8.94-3-1.73-.95-6.14-1.55-9l-2.55.31c-.13,3-.47,6.06.34,9,1.11,2.09,3.76,1.52,5.5.68l3.2.61c0-3.51,0-7-.11-10.52Zm55.66,2.61c1.8,1.27,5.69-2.83,6,.73-1.71.67-3.55,1-5.22,1.78-1.79,1.57-1.15,5,1.28,5.53,2.28-.19,4.56-.66,6.87-.22-.47-3-.06-6.12-.64-9.11C493.67,389.76,488.4,390.28,487.39,393.67Zm24.75-1.85L509.2,391c-.05,3.51,0,7,0,10.52h2.68c.5-2.83-1.54-8.29,2.59-8.74,2.24,2.06.85,5.9,1.21,8.71h2.68c-.16-3.08.42-6.29-.49-9.27C516.52,390.2,513.87,390.78,512.14,391.82ZM523,394.48c.23,3.53,5.53,1.9,6.38,4.59-2.19,2.34-4.49-1.77-7.05-.52,1.53,3.73,7.62,4.76,9.51.87,1.26-4.09-4-4.33-6.61-5.31,1.34-2.82,4.47.34,6.7-.14C530.86,389.65,522.74,389.56,523,394.48ZM564.9,391c-5.06.91-5.37,9.41-.38,10.65,3.27,1.24,6.87-1.67,6.75-5.06C571.66,393.13,568.27,390,564.9,391Zm10.87.21c-.12,3.43-.12,6.88-.11,10.32l2.68,0c.3-3.13-1.41-8.14,2.81-9a33.25,33.25,0,0,1,.57,9l2.67.08c.38-3.12-1.4-8.15,2.78-9.09a33.11,33.11,0,0,1,.54,9l2.7.1a62.61,62.61,0,0,0-.24-8.88c-1.09-2.62-4.22-1.83-6.12-.69C581.59,390.15,578.54,391.6,575.77,391.16Zm19.68,0c0,4.79,0,9.58,0,14.37l2.84-.23c-.09-1.46-.19-2.91-.27-4.35l3.57.89c4.14-1,4.71-6.94,2.25-9.82C601.57,389.49,598.22,392.42,595.45,391.19Zm21.11.09c-.45,2.84,1.49,7.62-2.15,8.79-3-1.76-1-6.07-1.6-8.91l-2.64,0c.11,3-.41,6.14.43,9.08,1.08,2.15,3.78,1.55,5.54.72l3.17.59c0-3.53,0-7.06-.1-10.58Zm16.63,7.66c1.18,4,8.27,4,8.61-.53a12.47,12.47,0,0,0-4.59,1.69c-.74-.92-1.45-1.86-2.12-2.82,2.42-.12,4.85-.13,7.28-.14-.24-2.52-1-5.84-4-6.24C634,389.9,631.61,395.43,633.19,398.94Zm13.66-7.8c-.13,3.42-.13,6.85-.14,10.29l2.71.1c.36-2.94-1.32-8,3.05-8.33.13-.55.4-1.65.53-2.2C650.94,391.06,648.9,391.2,646.85,391.14Zm31.83,2.93c2.15.17,5.16-2.72,6.47.26-2.35,1-6.51.76-6.68,4.17s3.81,3.93,6.18,2.57l3,.56c-.25-2.39-.31-4.79-.37-7.18C687.9,389.53,679.23,389.55,678.68,394.07Zm16.94-2.72c1,.78,2.1,1.5,3.19,2.22a63.8,63.8,0,0,1,.11,7.7l2.72.33c0-3,.29-6-.27-8.93C700.56,390.26,697.46,390.87,695.62,391.35Zm35,10.35c2.46.78,4.65-.79,6.12-2.62-2.65-1.31-6.43,2.8-7-1.91,2.29,0,4.6,0,6.91.05,0-2.69-1-6.16-4.16-6.37C726.38,389.92,725,400.33,730.57,401.7Zm27-10.35c1,.79,2.1,1.51,3.2,2.23a65.92,65.92,0,0,1,.1,7.7l2.72.3c-.06-3,.3-6-.29-8.93C762.55,390.25,759.45,390.89,757.62,391.35Zm14.31-.32c-4.68,1.16-5,9-.38,10.46,3.32,1.52,7.24-1.48,7.06-5C779,393,775.31,389.84,771.93,391Zm22,.1c-4.64,1.56-4.4,9.63.56,10.56,3.65,1.14,7.14-2.61,6.42-6.18A5.19,5.19,0,0,0,793.92,391.13Zm14.65-.16c-4.09,1.12-4.3,7.47-1.3,9.88,1.65,1.28,3.71.18,5.47-.23l-.68,2.63c-2.19,1.31-4.58-.89-6.89-.82.91,4.19,7.63,4.74,9.53,1.2.81-4.09.22-8.32.35-12.46C812.88,391.28,810.72,391.05,808.57,391Zm45.57,2.92c2,.68,5.75-2.84,6.32.5-1.73.66-3.56,1-5.24,1.78a3.32,3.32,0,0,0,.43,5.2c1.49,1,3.14.05,4.67-.3l3,.57c-.43-3.07-.06-6.2-.61-9.23C860.51,389.59,855.36,390.48,854.14,393.89ZM895.73,391c-.69,2.89,1.34,7.77-2.3,9-3-1.67-1-6-1.62-8.86h-2.62c.08,3-.42,6.14.4,9.09,1.06,2.17,3.77,1.57,5.54.74l3.17.63c0-3.51,0-7-.08-10.51Zm8,.11c-.13,3.43-.13,6.87-.13,10.31h2.69c.29-3.14-1.39-8.15,2.81-9.06a31.5,31.5,0,0,1,.54,9l2.71.14c.37-3.11-1.43-8.2,2.79-9.09a33.52,33.52,0,0,1,.5,8.95l2.72.13a65.28,65.28,0,0,0-.23-8.85c-1-2.56-4.14-2-5.95-.71C909.68,390.22,906.61,391.55,903.78,391.15Zm20.13,3.11c1.9-.71,4.19-2.41,5.67,0a57.21,57.21,0,0,0-5.62,1.92c-2.05,1.56-1.16,5.42,1.52,5.66,2.15-.51,4.32-.94,6.5-.24-.37-3-.11-6.09-.6-9.09C929.87,389.53,922.2,390.43,923.91,394.26Zm-467.29-2.89c-.21,3.37-.05,6.75-.07,10.13h2.64c0-3.52,0-7,0-10.55Zm235.89,10.17,2.75-.15a21.18,21.18,0,0,1,.59-7.65c-.74-1.12-1.61-2.19-2.4-3.26C691.56,393.82,692.85,397.89,692.51,401.54Zm62,0,2.75-.15a21.42,21.42,0,0,1,.59-7.65c-.75-1.13-1.63-2.21-2.44-3.28C753.61,393.84,754.83,397.87,754.51,401.54Z" transform="translate(-93.49 -57.84)"/><path class="cls-1" d="M204.09,324.12c6,6.55,12.35,12.8,18.64,19.09-26.34,48.59-46.12,100.5-61.89,153.4a968.93,968.93,0,0,0-23.41,97.86c-2.08-23.82-.73-47.81,1.72-71.55A520,520,0,0,1,204.09,324.12Z" transform="translate(-93.49 -57.84)"/><path class="cls-1" d="M600,392.86c3.5-.2,3.6,6.32.53,7.17C597.44,399.35,597.09,393.89,600,392.86Z" transform="translate(-93.49 -57.84)"/><path class="cls-1" d="M635.13,395.42c.66-.94,1-2.5,2.36-2.66,1.39.06,1.67,1.78,2.42,2.66C638.3,395.44,636.71,395.44,635.13,395.42Z" transform="translate(-93.49 -57.84)"/><path class="cls-1" d="M668.87,392.87c3.45-.19,3.48,6,.63,7.15C666.25,399.65,666,393.81,668.87,392.87Z" transform="translate(-93.49 -57.84)"/><path class="cls-1" d="M729.33,395.2c.89-1,1.76-3.19,3.48-2.14l1.34,2.5C732.53,395.47,730.92,395.35,729.33,395.2Z" transform="translate(-93.49 -57.84)"/><path class="cls-1" d="M772.91,392.89c3.8-.59,4.16,6.44.63,7.12C770.25,399.55,770,393.94,772.91,392.89Z" transform="translate(-93.49 -57.84)"/><path class="cls-1" d="M794.91,393c4.14-1.36,4.73,7.07.51,6.91C792.67,399,792.46,394.36,794.91,393Z" transform="translate(-93.49 -57.84)"/><path class="cls-1" d="M809.84,392.83c3.4-.22,3.57,5.87.62,6.77C807.2,399.5,807,393.66,809.84,392.83Z" transform="translate(-93.49 -57.84)"/><path class="cls-1" d="M564.14,394a2.2,2.2,0,0,1,3.83-.25c1.09,2,1,5.22-1.45,6.15C563.54,400,563,396,564.14,394Z" transform="translate(-93.49 -57.84)"/><path class="cls-1" d="M400.75,399.38c-1.21-2.56,2.22-2.32,3.78-2.77C404.14,398.31,402.77,401,400.75,399.38Z" transform="translate(-93.49 -57.84)"/><path class="cls-1" d="M490,400c-.76-2.57,1.69-3.23,3.67-3.57C493.62,398.65,492.3,400.18,490,400Z" transform="translate(-93.49 -57.84)"/><path class="cls-1" d="M681.63,399.53c-1.82-2.26,2-2.6,3.28-3.15C684.87,398.16,683.87,400.87,681.63,399.53Z" transform="translate(-93.49 -57.84)"/><path class="cls-1" d="M857.4,399.69c-1.95-2.25,1.79-3,3.34-3.25C860.46,398.2,859.64,400.57,857.4,399.69Z" transform="translate(-93.49 -57.84)"/><path class="cls-1" d="M925.63,397.54a25,25,0,0,1,3.88-1c-.63,1.17-.61,3.15-2.31,3.26C925.83,400.16,925.32,398.65,925.63,397.54Z" transform="translate(-93.49 -57.84)"/><path class="cls-1" d="M395.88,434.69Q444,422.54,492.15,410.4c13.11-.12,26.23.06,39.34,0a80.29,80.29,0,0,1,8.62.56c-28.89,9.37-58.2,17.47-87,27,22.48,17.5,44.86,35.15,67.39,52.59,41.72-26.62,83.5-53.17,125.06-80.05,7.09,0,14.21-.32,21.29.27-48.57,31.72-97.61,62.73-146.4,94.1C478.94,481.35,437.36,458.11,395.88,434.69Z" transform="translate(-93.49 -57.84)"/><path class="cls-2" d="M123.73,97.68c15.53-6.94,33.1-7.18,49.72-5.14,24.87,3.22,48.82,11.34,71.93,20.86a631.19,631.19,0,0,1,95.29,50.45q-7,5.63-13.78,11.45A412.63,412.63,0,0,0,247,128.2c-20.14-8.67-41.46-15.61-63.54-16.42-16.65-.57-34.1,3.67-46.88,14.82a36.56,36.56,0,0,0-13.09,24.93c-1.43,14.67,3.09,29.13,8.66,42.53C144.06,221.15,161.05,245.6,179,269c10.49,13.64,21.58,26.81,32.83,39.83,6.23,6.84,12.4,13.74,18.63,20.58,21,22.51,42.48,44.56,65.09,65.44-2.6,3.13-5.34,6.14-8,9.22-22.35-19.47-43.81-39.93-64.78-60.86-6.29-6.29-12.62-12.54-18.64-19.09-24.34-25.9-47.8-52.74-68.39-81.76-12.51-17.78-24.1-36.37-32.63-56.43C96.39,169.75,91.42,152,94.35,134.4,97,118.15,108.83,104.27,123.73,97.68Z" transform="translate(-93.49 -57.84)"/><path class="cls-2" d="M384.26,387.51c3.15,0,6.3-.12,9.45.07,0,.54,0,1.61-.07,2.15-2.21.17-4.43.12-6.63.13,0,1.1,0,2.19,0,3.3,2,0,3.94,0,5.92,0,.65,3.75-3.78,1.88-5.94,2.34,0,1.94,0,3.89.08,5.83l-2.84.21Q384.25,394.53,384.26,387.51Z" transform="translate(-93.49 -57.84)"/><path class="cls-2" d="M411.72,387.55l2.71-.07c0,2.39.05,4.78.11,7.18,1.59-1.89,3.12-4.23,6-3.65a48.21,48.21,0,0,1-3.09,3.91c1.17,2.26,2.41,4.48,3.6,6.73-3.65,1-3.66-3.45-6.33-4.49-.14,1.45-.25,2.91-.35,4.38l-2.69-.14C411.78,396.78,411.76,392.17,411.72,387.55Z" transform="translate(-93.49 -57.84)"/><path class="cls-2" d="M439.54,387.46l2.74.16c-.11,4.58-.1,9.18,0,13.77l-2.73.15Z" transform="translate(-93.49 -57.84)"/><path class="cls-2" d="M446.49,392.26a9.41,9.41,0,0,1,3.71-4.88l.2,3.37a3.18,3.18,0,0,1,2.12,1.95c-3.52.24-2,4.4-2,6.76l2.13.77c-.5,2.09-3.48,2.1-4.61.59C447.3,398,448.35,394.77,446.49,392.26Z" transform="translate(-93.49 -57.84)"/><path class="cls-2" d="M456.69,387.86c1-1.36,3.64,0,2.47,1.52C458.21,390.85,455.5,389.39,456.69,387.86Z" transform="translate(-93.49 -57.84)"/><path class="cls-2" d="M473.06,389c2.83-3.32,9.46-2.06,9.94,2.68a4.51,4.51,0,0,1-4.53-2.27,6.59,6.59,0,0,0-3.64,1.2c1.61,3.27,7.56,1.64,8.23,5.92,1.12,6.88-10.79,7.25-11.38.78l2.28-.43c1.21,2.33,4.37,4,6.33,1.45.58-2.63-3-2.27-4.58-3.23C473,394.6,471.27,391.24,473.06,389Z" transform="translate(-93.49 -57.84)"/><path class="cls-2" d="M500.68,387.79l3.58-.17c-1.69,4.28.24,9.15-.29,13.67l-2.74.29c0-4-.3-8,.64-11.92Z" transform="translate(-93.49 -57.84)"/><path class="cls-2" d="M544.87,387.71l2.84-.31c0,2.08,0,4.16.13,6.24l5.55-6.13h3.67c-1.61,1.73-3.33,3.36-4.81,5.2.93,3.21,3.5,5.81,5.19,8.72H553.7l-3.61-6.15c-2.56,1.15-2.52,3.86-2.44,6.28l-2.78-.27C545,396.77,545,392.24,544.87,387.71Z" transform="translate(-93.49 -57.84)"/><path class="cls-2" d="M623.48,392.26a10.33,10.33,0,0,1,3.57-4.86,6.27,6.27,0,0,0,2.42,5.18c-3.4.54-1.84,4.47-2.08,6.84,1.38.08,2.05.71,2,1.9-1.35.74-3.34.85-4.35-.48C624.25,398,625.37,394.77,623.48,392.26Z" transform="translate(-93.49 -57.84)"/><path class="cls-2" d="M671.39,387.44l2.76.2c-.13,4.63-.1,9.26,0,13.89-1.09-.17-2.15-.37-3.2-.54-1.38.51-2.89,1.32-4.28.37-3.76-2.36-3.25-10.32,1.85-10.55l3,1C671.44,390.32,671.41,388.88,671.39,387.44Zm-2.52,5.43c-2.92.94-2.62,6.78.63,7.15C672.35,398.89,672.32,392.68,668.87,392.87Z" transform="translate(-93.49 -57.84)"/><path class="cls-2" d="M714.12,387.57c3.65-.19,7.31,0,11-.06.49,3-2.32,2.28-4.27,2.41,0,3.85,0,7.72,0,11.58H718c0-3.88,0-7.76,0-11.64l-4.28-.05C713.85,389.25,714,388.13,714.12,387.57Z" transform="translate(-93.49 -57.84)"/><path class="cls-2" d="M741.09,387.5h2.7c0,2.36,0,4.72-.06,7.09,1.67-1.78,3.33-4.14,6.16-3.48-1,1.34-2.08,2.66-3.14,4,1.21,2.12,2.42,4.24,3.65,6.36l-2.87.09L745.08,397c-1.53,1-1.24,3-1.45,4.54h-2.54Q741.06,394.5,741.09,387.5Z" transform="translate(-93.49 -57.84)"/><path class="cls-2" d="M783.54,387.44l2.75.21c-.13,4.58-.12,9.16,0,13.74l-2.73.15Z" transform="translate(-93.49 -57.84)"/><path class="cls-2" d="M819.65,387.87c1.13-.12,2.27-.23,3.43-.33-1.27,4.5.55,9.21-.37,13.78l-2.45.4c-.07-4-.33-8.11.62-12.06C820.57,389.22,820,388.32,819.65,387.87Z" transform="translate(-93.49 -57.84)"/><path class="cls-2" d="M835.77,387.56c1.45,0,2.92,0,4.39,0a64.21,64.21,0,0,0,2.49,9c.85-3,1.58-6,2.26-9,1.46-.05,2.94-.08,4.43-.1-.06,4.65-.05,9.3,0,13.95l-2.66,0a66.65,66.65,0,0,0-.6-10.18c-.64,3.47-1.31,6.94-2.23,10.35l-2.8-.39c-.69-3.32-1.37-6.64-2.12-9.94a81,81,0,0,0-.46,10.22l-2.68-.18C835.87,396.76,835.86,392.16,835.77,387.56Z" transform="translate(-93.49 -57.84)"/><path class="cls-2" d="M868.09,387.5h2.7q0,3.54,0,7.09c1.63-1.86,3.31-4.09,6.16-3.43-1,1.28-2.08,2.52-3.14,3.76a72.36,72.36,0,0,0,3.65,6.32c-1,.11-1.91.24-2.85.36-.85-1.61-1.72-3.21-2.59-4.79-1.25,1.26-1.18,3.05-1.35,4.69h-2.53Q868.06,394.5,868.09,387.5Z" transform="translate(-93.49 -57.84)"/><path class="cls-2" d="M881.55,387.46l2.71.14c-.08,4.59-.09,9.19,0,13.79l-2.73.15Q881.54,394.49,881.55,387.46Z" transform="translate(-93.49 -57.84)"/><path class="cls-2" d="M937,394.09c-2.68-2.17.64-5,2.27-6.63.42,1.56,0,4,2.24,4.07v1.27c-3.19.3-1.39,4.21-1.77,6.32a4.67,4.67,0,0,1,2.33,2.57c-1.49-.25-4.3.82-4.79-1.28A43.07,43.07,0,0,1,937,394.09Z" transform="translate(-93.49 -57.84)"/><path class="cls-2" d="M398.66,394.42c-.9-4.21,6-4.8,7.73-1.94.46,3,.23,6,.59,9.07a12.36,12.36,0,0,0-6.55.26c-2.49-.35-3.26-3.41-2-5.3,1.83-1.22,4.09-1.54,6.13-2.31C403,391.79,400.62,393.59,398.66,394.42Zm2.09,5c2,1.61,3.39-1.07,3.78-2.77C403,397.06,399.54,396.82,400.75,399.38Z" transform="translate(-93.49 -57.84)"/><path class="cls-2" d="M431.73,391.06l2.47,0c.12,3.5.12,7,.11,10.52l-3.2-.61c-1.74.84-4.39,1.41-5.5-.68-.81-2.91-.47-6-.34-9l2.55-.31c.6,2.82-1.43,7.23,1.55,9C433.13,398.92,431,393.91,431.73,391.06Z" transform="translate(-93.49 -57.84)"/><path class="cls-2" d="M487.39,393.67c1-3.39,6.28-3.91,8.31-1.29.58,3,.17,6.09.64,9.11-2.31-.44-4.59,0-6.87.22-2.43-.5-3.07-4-1.28-5.53,1.67-.76,3.51-1.11,5.22-1.78C493.08,390.84,489.19,394.94,487.39,393.67ZM490,400c2.3.21,3.62-1.32,3.67-3.57C491.69,396.74,489.24,397.4,490,400Z" transform="translate(-93.49 -57.84)"/><path class="cls-2" d="M512.14,391.82c1.73-1,4.38-1.62,5.71.38.91,3,.33,6.19.49,9.27h-2.68c-.36-2.81,1-6.65-1.21-8.71-4.13.45-2.09,5.91-2.59,8.74h-2.68c0-3.51,0-7,0-10.52Z" transform="translate(-93.49 -57.84)"/><path class="cls-2" d="M523,394.48c-.24-4.92,7.88-4.83,8.93-.51-2.23.48-5.36-2.68-6.7.14,2.6,1,7.87,1.22,6.61,5.31-1.89,3.89-8,2.86-9.51-.87,2.56-1.25,4.86,2.86,7.05.52C528.51,396.38,523.21,398,523,394.48Z" transform="translate(-93.49 -57.84)"/><path class="cls-2" d="M564.9,391c3.37-1,6.76,2.18,6.37,5.59.12,3.39-3.48,6.3-6.75,5.06C559.53,400.36,559.84,391.86,564.9,391Zm-.76,3.08c-1.17,2-.6,6,2.38,5.9,2.41-.93,2.54-4.18,1.45-6.15A2.2,2.2,0,0,0,564.14,394Z" transform="translate(-93.49 -57.84)"/><path class="cls-2" d="M575.77,391.16c2.77.44,5.82-1,8.28.8,1.9-1.14,5-1.93,6.12.69a62.61,62.61,0,0,1,.24,8.88l-2.7-.1a33.11,33.11,0,0,0-.54-9c-4.18.94-2.4,6-2.78,9.09l-2.67-.08a33.25,33.25,0,0,0-.57-9c-4.22.89-2.51,5.9-2.81,9l-2.68,0C575.65,398,575.65,394.59,575.77,391.16Z" transform="translate(-93.49 -57.84)"/><path class="cls-2" d="M595.45,391.19c2.77,1.23,6.12-1.7,8.4.86,2.46,2.88,1.89,8.79-2.25,9.82L598,401c.08,1.44.18,2.89.27,4.35l-2.84.23C595.45,400.77,595.46,396,595.45,391.19Zm4.51,1.67c-2.87,1-2.52,6.49.53,7.17C603.56,399.18,603.46,392.66,600,392.86Z" transform="translate(-93.49 -57.84)"/><path class="cls-2" d="M616.56,391.28l2.65-.27c.11,3.52.1,7.05.1,10.58l-3.17-.59c-1.76.83-4.46,1.43-5.54-.72-.84-2.94-.32-6.07-.43-9.08l2.64,0c.59,2.84-1.4,7.15,1.6,8.91C618.05,398.9,616.11,394.12,616.56,391.28Z" transform="translate(-93.49 -57.84)"/><path class="cls-2" d="M633.19,398.94c-1.58-3.51.77-9,5.19-8,3,.4,3.75,3.72,4,6.24-2.43,0-4.86,0-7.28.14.67,1,1.38,1.9,2.12,2.82a12.47,12.47,0,0,1,4.59-1.69C641.46,402.91,634.37,402.92,633.19,398.94Zm1.94-3.52c1.58,0,3.17,0,4.78,0-.75-.88-1-2.6-2.42-2.66C636.1,392.92,635.79,394.48,635.13,395.42Z" transform="translate(-93.49 -57.84)"/><path class="cls-2" d="M646.85,391.14c2,.06,4.09-.08,6.15-.14-.13.55-.4,1.65-.53,2.2-4.37.3-2.69,5.39-3.05,8.33l-2.71-.1C646.72,398,646.72,394.56,646.85,391.14Z" transform="translate(-93.49 -57.84)"/><path class="cls-2" d="M678.68,394.07c.55-4.52,9.22-4.54,8.62.38.06,2.39.12,4.79.37,7.18l-3-.56c-2.37,1.36-6.32.81-6.18-2.57s4.33-3.14,6.68-4.17C683.84,391.35,680.83,394.24,678.68,394.07Zm3,5.46c2.24,1.34,3.24-1.37,3.28-3.15C683.6,396.93,679.81,397.27,681.63,399.53Z" transform="translate(-93.49 -57.84)"/><path class="cls-2" d="M695.62,391.35c1.84-.48,4.94-1.09,5.75,1.32.56,2.94.22,6,.27,8.93l-2.72-.33a63.8,63.8,0,0,0-.11-7.7C697.72,392.85,696.64,392.13,695.62,391.35Z" transform="translate(-93.49 -57.84)"/><path class="cls-2" d="M730.57,401.7c-5.53-1.37-4.19-11.78,1.83-10.85,3.2.21,4.2,3.68,4.16,6.37-2.31,0-4.62-.07-6.91-.05.61,4.71,4.39.6,7,1.91C735.22,400.91,733,402.48,730.57,401.7Zm-1.24-6.5c1.59.15,3.2.27,4.82.36l-1.34-2.5C731.09,392,730.22,394.18,729.33,395.2Z" transform="translate(-93.49 -57.84)"/><path class="cls-2" d="M757.62,391.35c1.83-.46,4.93-1.1,5.73,1.3.59,2.93.23,6,.29,8.93l-2.72-.3a65.92,65.92,0,0,0-.1-7.7C759.72,392.86,758.65,392.14,757.62,391.35Z" transform="translate(-93.49 -57.84)"/><path class="cls-2" d="M771.93,391c3.38-1.19,7.06,1.93,6.68,5.44.18,3.54-3.74,6.54-7.06,5C767,400,767.25,392.19,771.93,391Zm1,1.86c-2.95,1.05-2.66,6.66.63,7.12C777.07,399.33,776.71,392.3,772.91,392.89Z" transform="translate(-93.49 -57.84)"/><path class="cls-2" d="M793.92,391.13a5.19,5.19,0,0,1,7,4.38c.72,3.57-2.77,7.32-6.42,6.18C789.52,400.76,789.28,392.69,793.92,391.13Zm1,1.88c-2.45,1.35-2.24,6,.51,6.91C799.64,400.08,799.05,391.65,794.91,393Z" transform="translate(-93.49 -57.84)"/><path class="cls-2" d="M808.57,391c2.15.08,4.31.31,6.48.2-.13,4.14.46,8.37-.35,12.46-1.9,3.54-8.62,3-9.53-1.2,2.31-.07,4.7,2.13,6.89.82l.68-2.63c-1.76.41-3.82,1.51-5.47.23C804.27,398.44,804.48,392.09,808.57,391Zm1.27,1.86c-2.82.83-2.64,6.67.62,6.77C813.41,398.7,813.24,392.61,809.84,392.83Z" transform="translate(-93.49 -57.84)"/><path class="cls-2" d="M854.14,393.89c1.22-3.41,6.37-4.3,8.57-1.48.55,3,.18,6.16.61,9.23l-3-.57c-1.53.35-3.18,1.26-4.67.3a3.32,3.32,0,0,1-.43-5.2c1.68-.76,3.51-1.12,5.24-1.78C859.89,391.05,856.17,394.57,854.14,393.89Zm3.26,5.8c2.24.88,3.06-1.49,3.34-3.25C859.19,396.72,855.45,397.44,857.4,399.69Z" transform="translate(-93.49 -57.84)"/><path class="cls-2" d="M895.73,391l2.49.08c.1,3.5.09,7,.08,10.51l-3.17-.63c-1.77.83-4.48,1.43-5.54-.74-.82-2.95-.32-6.08-.4-9.09h2.62c.59,2.82-1.41,7.19,1.62,8.86C897.07,398.81,895,393.93,895.73,391Z" transform="translate(-93.49 -57.84)"/><path class="cls-2" d="M903.78,391.15c2.83.4,5.9-.93,8.45.82,1.81-1.29,4.91-1.85,5.95.71a65.28,65.28,0,0,1,.23,8.85l-2.72-.13a33.52,33.52,0,0,0-.5-8.95c-4.22.89-2.42,6-2.79,9.09l-2.71-.14a31.5,31.5,0,0,0-.54-9c-4.2.91-2.52,5.92-2.81,9.06h-2.69C903.65,398,903.65,394.58,903.78,391.15Z" transform="translate(-93.49 -57.84)"/><path class="cls-2" d="M923.91,394.26c-1.71-3.83,6-4.73,7.47-1.79.49,3,.23,6.07.6,9.09-2.18-.7-4.35-.27-6.5.24-2.68-.24-3.57-4.1-1.52-5.66a57.21,57.21,0,0,1,5.62-1.92C928.1,391.85,925.81,393.55,923.91,394.26Zm1.72,3.28c-.31,1.11.2,2.62,1.57,2.3,1.7-.11,1.68-2.09,2.31-3.26A25,25,0,0,0,925.63,397.54Z" transform="translate(-93.49 -57.84)"/><path class="cls-2" d="M456.62,391.37l2.53-.41c.08,3.51.07,7,0,10.55h-2.64C456.57,398.12,456.41,394.74,456.62,391.37Z" transform="translate(-93.49 -57.84)"/><path class="cls-2" d="M692.51,401.54c.34-3.65-1-7.72.94-11.06.79,1.07,1.66,2.14,2.4,3.26a21.18,21.18,0,0,0-.59,7.65Z" transform="translate(-93.49 -57.84)"/><path class="cls-2" d="M754.51,401.54c.32-3.67-.9-7.7.9-11.08.81,1.07,1.69,2.15,2.44,3.28a21.42,21.42,0,0,0-.59,7.65Z" transform="translate(-93.49 -57.84)"/><path class="cls-2" d="M395.88,434.69c41.48,23.42,83.06,46.66,124.53,70.11-.26,3.54-.52,7.09-.73,10.64-39.8-15.84-79.42-32.12-119.24-47.93C399,456.57,397.37,445.63,395.88,434.69Z" transform="translate(-93.49 -57.84)"/><path class="cls-3" d="M541.21,271.23l1.82,0c.4,10.22.54,20.46.8,30.69l-2.59-.32c-1.49-6-3.64-12.16-8.1-16.68-5.39-5.95-13.49-9.82-21.62-8.52-6.07.6-11.88,5.74-11.8,12.1-.12,5.5,4.47,9.45,8.66,12.24,10.77,6.57,23.12,10.66,32.63,19.19a25.88,25.88,0,0,1,8.45,21.66c-.71,10.35-8.32,19.27-17.65,23.25a37.94,37.94,0,0,1-29.25-.53c-3.39-1.26-7.29-3.6-10.89-1.71-2.74,1.14-3.23,5.21-6.57,5.15-.2-9.53.13-19.07-.17-28.6-.06-.78-.11-1.55-.16-2.32q.11-2,.33-4.05l2.38.62c1.77,6.59,4,13.3,8.59,18.53,5.71,6.76,14.45,11.42,23.47,10.52,7-.17,14.14-5.65,14.5-13,.42-6.19-4.16-11.28-9.1-14.33-9.78-6.05-20.94-9.87-29.84-17.31-6.22-5.18-10.52-13.07-10-21.32.13-9.54,6.45-18.31,14.92-22.38a32.93,32.93,0,0,1,25-.92c3.88,1.28,7.33,3.92,11.47,4.3C540,277.74,540.38,273.64,541.21,271.23Z" transform="translate(-93.49 -57.84)"/><path class="cls-3" d="M375.31,273.26c25.4,0,50.8,0,76.2,0h1.16a59.6,59.6,0,0,1,.44,6.67c-.3,6.51-.09,13-.18,19.55l-2.74-.21c-.68-4.55-1.5-9.36-4.47-13-3.68-4.54-9.53-6.73-15.2-7.34-6.7-.64-13.44-.31-20.16-.38q0,19.06,0,38.12c5.31-.21,11.25-.13,15.55-3.79,4.79-3.85,6.38-10.11,7.24-15.9l2.13-.2c.14,15.46.08,30.92,0,46.39l-2.18-.09c-.87-5.69-1.67-12-5.89-16.32-4.44-4.35-10.9-5.49-16.89-5.31,0,10.36,0,20.72,0,31.07.23,2.72-.14,6,2.08,8.06,2.85,2.88,7.2,2.54,10.91,2.78,0,.51,0,1.53.06,2-16,.05-32.07,0-48.11,0v-2c3.58-.32,7.74.15,10.63-2.43,2.48-2.42,2.17-6.21,2.35-9.39q.06-32.52,0-65c-.21-3.1.19-7-2.71-9-2.88-2.34-6.8-1.85-10.25-2.06Z" transform="translate(-93.49 -57.84)"/><path class="cls-3" d="M578.71,275.13c.15-.45.44-1.36.59-1.81,15.21-.16,30.43,0,45.65-.05.41,3.26-3.41,2-5.38,2.81-3.5.62-5.49,4.16-5.4,7.51-.35,11.32,0,22.66-.15,34,11.37-8.74,22.3-18,33.51-27,3-2.62,6.56-5.2,7.74-9.17.75-3.31-2.71-5.65-5.66-5.58-1.92-.46-5.19.52-4.74-2.58,12.07,0,24.14,0,36.21,0l-.48,2.05c-3.66.61-7.45,1.37-10.34,3.9-12.32,9.59-24.34,19.58-36.52,29.36,8.17,10.36,16.42,20.68,24.63,31,5.73,6.92,10.74,14.6,17.81,20.26a16.53,16.53,0,0,0,9.24,3.45c0,.53,0,1.59,0,2.11-16,0-32,0-48,0-.24-3.84,5-1.7,6.67-4.21,1.33-1.48.53-3.54-.23-5.07-2.17-4.24-5.34-7.86-8.24-11.61-6-7.58-12-15.2-18.1-22.78-1.18.91-2.34,1.83-3.5,2.75,0,9.68-.07,19.35,0,29,.23,2.47,0,5.51,2.14,7.24,2.4,2.31,5.91,2.18,9,2.63l.4,2c-15.46.05-30.93.1-46.39,0l-.36-2c3.48-.21,7.42.18,10.38-2.05,2.65-2.07,2.57-5.74,2.7-8.78q0-33,0-66c-.23-3,.24-6.85-2.54-8.87C586.43,275,582.25,276,578.71,275.13Z" transform="translate(-93.49 -57.84)"/><path class="cls-3" d="M709.58,273.25c27.49-.05,55,.11,82.46-.08.26,8.44.29,16.9,0,25.34l-2.26-.8c-1.79-5.76-3.4-12.25-8.63-15.93-5.43-4.56-12.93-3-19.42-3.2.1,24.64,0,49.29.06,73.93.2,2.86-.11,6.4,2.39,8.41,3,2.61,7.2,2.18,10.87,2.42l-.36,2q-24.15.18-48.3,0l.59-1.86c3.38-.54,7.31.05,10.13-2.33,2.64-2.05,2.48-5.68,2.62-8.68q0-36.94,0-73.91c-7,.1-15.33-1.05-20.73,4.43-4.31,3.92-5.54,9.8-7.28,15l-2.14.21C709.61,289.88,709.58,281.56,709.58,273.25Z" transform="translate(-93.49 -57.84)"/><path class="cls-3" d="M820.66,275.26l.52-2c12.42.06,24.84,0,37.26,0,8.68,20.21,17,40.56,26,60.64,8.48-20.13,16.75-40.36,25-60.59,12.51-.15,25,0,37.56-.06-.1.53-.3,1.61-.39,2.14-3.44.34-7.36-.28-10.19,2.13-2.61,2.19-2.46,5.88-2.56,9q0,33,0,66c.19,2.83-.2,6.35,2.26,8.35,2.89,2.64,7,2.12,10.63,2.55,0,.49,0,1.45,0,1.94-15.9.12-31.81.07-47.7,0-.11-.51-.34-1.53-.45-2,3.52-.25,7.55.18,10.52-2.14,3.08-2.65,2.43-7.12,2.64-10.75-.07-22.46.22-44.94-.15-67.4-2,2.45-2.75,5.57-4,8.38-10.46,24.67-20.63,49.47-31.28,74.05l-1.47-.21c-8-18.34-15.87-36.78-23.83-55.16-4.06-8.91-7.36-18.19-11.93-26.84-.14,22.42,0,44.85-.07,67.28,0,3.13.09,6.64,2.46,9,2.65,3.22,7.11,3.51,11,3.7,0,.54,0,1.62,0,2.16-10.43-.05-20.86.1-31.28-.06,0-.47,0-1.42,0-1.89,3.45-.51,7.36-.74,9.92-3.46,2.94-3.07,2.83-7.58,2.87-11.54,0-20.63.08-41.27-.06-61.91-.3-3,.31-6.89-2.52-8.89C828.35,275.16,824.26,275.66,820.66,275.26Z" transform="translate(-93.49 -57.84)"/><path class="cls-3" d="M323.75,384.81c2.2-.72,5.12-1.48,6.94.48,2.69,2.93,1.38,7.31.5,10.71-4.14,12.85-12.37,24-21.57,33.67-5,4.66-10.31,9.65-17.17,11.26a4.78,4.78,0,0,1-5.55-3.44c-.94-3.52.35-7.1,1.38-10.43,4-10.9,10.78-20.63,18.6-29.16C311.76,392.72,317.13,387.65,323.75,384.81Z" transform="translate(-93.49 -57.84)"/><path class="cls-3" d="M493.19,409.77c16.65-.27,33.31-.3,50,.1l-3,1a80.29,80.29,0,0,0-8.62-.56c-13.11.11-26.23-.07-39.34,0Z" transform="translate(-93.49 -57.84)"/><path class="cls-3" d="M646.52,409.79c7.08-.36,14.18-.18,21.27,0l-.19,1-.79-.06c-7.08-.59-14.2-.28-21.29-.27Z" transform="translate(-93.49 -57.84)"/></svg>