<svg id="Capa_1" enable-background="new 0 0 512 512" height="512" viewBox="0 0 512 512" width="512" xmlns="http://www.w3.org/2000/svg"><g><g><path d="m416.003 442-.76-399.81c-3.64-18.35-19.82-32.19-39.24-32.19h-336c-16.57 0-30 13.43-30 30v50h60v382c0 16.57 13.43 30 30 30h346c16.57 0 30-13.43 30-30v-30z" fill="#eefaff"/><path d="m501.993 50c-26.093-7.522-72.672-11.666-113.33-4.44-26.31 4.71-53.81 14.41-78.43 32.62-98.597 72.887-71.158 252.959-71.57 254.51 0 0 46.21-22.89 96.68-64.02l-19.34-38.67h61.75c10.036-10.31 21.725-23.332 38.25-44.56 54.06-69.4 86-135.44 86-135.44z" fill="#ffda8f"/><circle cx="163.003" cy="120" fill="#ff7b79" r="50"/></g><g><path d="m10.003 100h50v372c0 22.056 17.944 40 40 40h161c5.522 0 10-4.477 10-10s-4.478-10-10-10h-126.382c3.415-5.888 5.381-12.717 5.381-20v-20h326v20c0 11.028-8.972 20-20 20h-95c-5.522 0-10 4.477-10 10s4.478 10 10 10h95c22.056 0 40-17.944 40-40v-30c0-5.523-4.478-10-10-10h-50v-243.14c52.801-68.406 83.697-131.806 85.002-134.506 2.719-5.619-.379-12.448-6.492-14.034-.012-.003-.065-.017-.079-.02-3.694-1.01-37.988-9.99-81.794-8.351-7.339-18.931-25.769-31.949-46.636-31.949h-336c-22.056 0-40 17.944-40 40v50c0 5.523 4.477 10 10 10zm378.391 103.511c-4.705 5.517-9.702 11.049-14.892 16.489h-57.5c-3.466 0-6.685 1.795-8.507 4.743s-1.987 6.63-.437 9.73l15.729 31.452c-28.806 22.781-55.756 39.443-72.191 48.873 6.687-48.414 25.792-94.603 55.877-134.798h70.658c5.522 0 10-4.477 10-10s-4.478-10-10-10h-54.341c12.983-14.611 27.387-28.004 43.005-40h53.335c5.522 0 10-4.477 10-10s-4.478-10-10-10h-23.99c27.442-16.488 57.327-28.694 88.297-36.049-24.63 45.282-57.708 95.734-95.043 139.56zm-141.989 45.655c2.997-48.726 14.825-108.196 50.785-146.225l-7.906 65.867c-.035.293-.049.585-.058.878-18.209 24.654-32.585 51.397-42.821 79.48zm66.318-107.81 6.914-57.61c15.037-10.491 32.187-18.47 51.195-23.84l-21.632 45.825c-.378.8-.638 1.636-.792 2.485-12.728 10.184-24.653 21.264-35.685 33.14zm120.534-89.607c6.281 0 12.301.218 17.971.581-24.536 8.15-48.151 19.213-70.226 32.886l14.46-30.633c12.357-1.907 24.673-2.834 37.795-2.834zm-57.254-31.749c10.36 0 19.715 5.346 25.132 13.62-42.17 5.017-81.111 20.369-111.944 49.06-41.357 38.488-57.481 99.491-62.146 156.062-3.946 47.853.656 87.181 1.571 94.258l-1.925 27h-116.688c-5.523 0-10 4.477-10 10s4.477 10 10 10h166c5.522 0 10-4.477 10-10s-4.478-10-10-10h-29.262l1.498-21.007c13.557-7.195 51.847-28.691 93.421-62.572 3.629-2.958 4.721-8.038 2.626-12.225l-12.101-24.196h45.567c2.698 0 5.283-1.091 7.165-3.024 6.541-6.718 12.83-13.611 18.697-20.491.798-.937 1.592-1.891 2.388-2.835v218.35h-276c-5.523 0-10 4.477-10 10v30c0 11.028-8.972 20-20 20s-20-8.972-20-20c0-22.984 0-407.552 0-432 0-7.283-1.966-14.112-5.381-20zm-356 20c0-11.028 8.972-20 20-20s20 8.972 20 20v40h-40z"/><path d="m110.003 340h86c5.523 0 10-4.477 10-10s-4.477-10-10-10h-86c-5.523 0-10 4.477-10 10s4.477 10 10 10z"/><path d="m163.003 180c33.084 0 60-26.916 60-60s-26.916-60-60-60-60 26.916-60 60 26.916 60 60 60zm0-100c22.056 0 40 17.944 40 40s-17.944 40-40 40-40-17.944-40-40 17.944-40 40-40z"/><circle cx="306.003" cy="502" r="10"/></g></g></svg>