<svg id="Layer_1" data-name="Layer 1" xmlns="http://www.w3.org/2000/svg" viewBox="0 0 841.89 595.28"><defs><style>.cls-1{fill:none;}.cls-2{fill:#bc9633;}.cls-3{fill:#233e99;}.cls-4{fill:#231f20;}.cls-5{fill:#ee3524;}.cls-6{fill:#fff200;}.cls-7{fill:#6e6f71;}</style></defs><title>logo_um_without_text</title><rect class="cls-1" x="214.19" y="77.31" width="351.75" height="44.94"/><path class="cls-2" d="M200.35,48.31H579.53V213.07s8.84,199.07-189.36,308.45c0,0-189.82-95.31-189.82-319.48Z"/><path class="cls-3" d="M208.37,205.1H571.66s13,198.45-181.33,307.49c0,0-181.34-90.07-182-307.49"/><rect class="cls-3" x="208.37" y="55.97" width="363.91" height="141.8"/><path class="cls-4" d="M263.35,266.62l-6.9,2.31a5.26,5.26,0,0,1-1-1.74c-.17-.73-4.56,2.46-5.76,1.59s.74-2-5.39-2.73c-4.83-.62-.28-2.49-3.19-7.26s-4.13-3.66-4.3-4.65.3-2.77-2.49-3.48-.89-2-2-3.35-2.21-2.75.43-2.89,3.52-.29,3.52-.29a38.47,38.47,0,0,0-4.89-5c-1.12-.75.07-1.83-.11-2.74s-1.16-3.72.41-3.89a5.38,5.38,0,0,1,3.22,1.07,7.82,7.82,0,0,1,0-2.83,8.13,8.13,0,0,0-.32-3.72c-.16-.66,3.56-.6,5.16,1.34,1.23,1.4,1-3.59,2.88-3.33,1.11.41,1,2.4,2.53,4.83s1.33.81.75,5.14-1.61,6.7,0,10.2,1.26,6.54,2.16,7.22,3.37-1.66,3.27-3.74,1.27,1.56,1.18,2.88,1.67-.72,1.33-2.88,1-1.91.22-2.56-2.45.58-2.45-1.43,1.41-6.12-.92-6c-1.26.08,2.12-4,2.6-5.65.39-1.49-.85-1.41-2-.91s1.77-2.9,4.2-4.65,4.53-3.47,5.37-4.89-3.54-2,.33-4.9c2.15-1.66,2.42-.66,4.45-.41s2.74-3.46,3-4.13c.35-.83,2.1.89,3.2,2.38s2.45,1.34,4.27,1.57,3.19,2.66,5.21,3.41,3.29-1.47,5.44,2.5c.59,1.06-1,2.06-1,2.06a2.17,2.17,0,0,0-1,2.32,4.85,4.85,0,0,1-.4,2.24l8.95-.25a4.31,4.31,0,0,1-2.75,4.41c-3.18,1.33-7.37,1.74-8.9,1.07,0,0,.66,2.93.09,3.4s-1.18-.41-2.53-.18a10.74,10.74,0,0,0-3.39,1.33c-.52.44,0,2.76,2,2.83s21.23.33,36.84-2.33,15.33-1.14,20.59,1.68,17.19,7,20.45-.91-3.09-16.34-14.16-16.92-21.37,3.48-26.14,4.71-7.93,1.46-9-1.8c-.49-1.6,5-2.19,8-2.76s14.9-4.72,26.82-4.15,19.47,5.31,20.8,15.7-7.12,17.07-20,15.82c0,0,3.66,3.57,4.26,5.47s-1,2,0,2.93a9.79,9.79,0,0,1,2.36,4.14c.14,1,6.68,4,6.94,7.28.18,2-1.6,2.58-1.65,3.33s-1.21,1.65-.87,3,2.1,3.33,2.1,4.6-1.83,1.63-2.59,2.8-2.1,2.48-2.36,3.73-1,3.07-3.36,2.92-3.18.83-4.26,1.72-2.36,1.25-2.36-2.82a1.69,1.69,0,0,0-2,.43c-1,1-3.75,1.56-4.6-.51,0,0-3.46-1-3.82.08a4.9,4.9,0,0,1,1.56-4.73s.94-.65-.34-1.56-2-2.33-3.87-2a5.5,5.5,0,0,1,4.72-2.69c3.08.19,3.56,2.34,5.68,2.51s3.35-1.82,4.52-2,0-1.59.77-3.25-1.78-1.39-1.42-2.82-1.72-.32-3.05-1.76-.57-.29-4.16-1.3-6.79-2.07-7.06-5.42a2.89,2.89,0,0,0-1.74,1.51c-.49,1.18-1.75,3.48-2.68,3.54s-2.09-.22-2.26.93-1.76.68-2.44,1.17.4,2-1.43,2.17-2.41.32-2.41,2.48-1.63.65-1.93,1.48a5.35,5.35,0,0,0-.34,3.91c.59,1.57.9,4.72.17,5.55a5,5,0,0,0-1.68,2.81c-.19,1.34-1.73.85-1.73.85s-1.89-3.32-3.3-3.4-3.43,2.81-5.45,2.72-2.6-.92-3.28-.17-2.83,1.51-3.52.92l-.1-1.81-2,.32-1-1.57a11.23,11.23,0,0,0-3.44,1.25c-1,.75-1-3.59.75-5.16,0,0-3.12-2.39-5.79-1.24,0,0,2.73-6.3,8.8-5.64,4.6.49,2.75,2.82,6.85,2.82s5.66-.17,6.2-.89.18-2.59.18-2.59a10.1,10.1,0,0,1-1.06-4.49c.15-2-1.11-1.64-.6-4.78l-5.35,1.49c-3.27.87-3.27.87-3.89,1.8s-2.33,1.09-3.85.74-1.69.35-1.83.75-1.53,1.25-3.92.18-2,.16-2.62.51-3-1-3-1-1.77-.91-2.41.15-1.1,1.5-3.13,1.76-.81,1.33-2.91,2-2,3.22-1.84,4.21.65,5.48-.32,6.32-2.88-.92-4-1.43-.81,2-1.42,3.25-2.93,2.82-4.11,2.74a6.19,6.19,0,0,0-3.44.91s-1.16.24-1.09-2.65c0,0-.07-1.08-1.83-.18s-2.66.53-3.08-.5-2.28-.82-4.9,0c0,0-.13-3.82,2.45-4.81a9.2,9.2,0,0,0-3.66.07,8.7,8.7,0,0,0-1.95.92A6.57,6.57,0,0,1,243,281c2.62-1.34,2.13-2.51,4.45-2.24s4.54.22,6.79-1.1,1.76-1.72,2.85-2.37,3.7-5.67,5.13-6.33a2.24,2.24,0,0,0,1.1-2.38"/><path class="cls-5" d="M280.09,230.92s2.37.55,3,.09a5,5,0,0,1,3.38-.86c1.25.18,5.33.42,6.14-.14s.48,4.27-9.75,4.27c-1.66,0-1.13-1.91-3.08-2.14l-.15-1.26Z"/><path class="cls-6" d="M270.75,216s0-1-1.41-.13a2,2,0,0,0-.91,2.37c3.69.7,2.32-2.24,2.32-2.24m81.8,54a61.75,61.75,0,0,0-6.79-5.3s1-2.26-1.85-4.28c0,0,.91-1.53-1.26-3.06,0,0,2.27-.61-.89-4.41s-3.43-3.16-3.43-3.16l.22-.6s3.09.69,3.09-1,1.13-2.24-4.85-3.47c0,0-.4,3.57-1.45,3.57,0,0,.12-3.73-.36-4.52s-3.26-1.45-3.72-1.45,1.22,3.46.46,4.24a46.16,46.16,0,0,0-3-5.81c-.47-.69-4-.45-4-.45a44.33,44.33,0,0,1,2.37,5.71c.09.68-.59.23-.59.23s-2.8-5.7-4.95-6.28.3,4.93.3,6.18-.66.42-.66.42-1.15-5.25-3.6-5.25c-1.14,0,2.11,5.14,1.33,6.95s-1.36-7.51-6.32-6.29c-.89.23,0,1.35.79,3s1.47,4.26.67,5.48l-.67.1s-.6-6.6-3.19-7.82,0,3.37,0,3.37a13.53,13.53,0,0,1,.14,3.91l-.72.44s.07-7.84-4-7.84c-2.63,0,.89,4.81,1.22,6s.13,4.94-.9,5.49c0,0,.57-5.25-.91-6.82s-2.64-5-6.12-4.25c-1.56.31,1.61,5.38,2.28,7.62s.69,6.48-.21,6.72a38.28,38.28,0,0,0-1.84-8.76c-1.33-3.44-2.24-4.8-3.85-5.15s-1.89,1.35-.79,3.49-1,2.66.93,4.69a4.94,4.94,0,0,1,1.24,4.47l-.84-.08s-.1-2.48-.87-3.48c-1-1.36-1.35-2.14-1.1-3.6s-1.82-4.6-3.73-4.93.32,1.68,1.1,5.95,1.25,11.87-1.24,13.22c0,0,1.95-8.65.32-13.33s-1-5.71-2.81-5.61c-2.28.17-.9,2.6-.9,3.81s1.26,5.61.45,8c0,0-.67-4.68-1.48-5.14s.11-4.12-.21-5.16-1.73-2.57-2.36-1.56.2,2.81.08,4.27.34,3.34-.08,3.91-1.17,2,0,2.83.29,4.46-.62,4.57c0,0,.7-2.46-.09-3.72s-1.72-1.77-.69-3.56.9-2.94.48-4.82-1.37-2.36-1.13-3.25-2.31-1-2.31.45-.79,4.26-1.43,4.57-1.17,1.69-1.17,1.69a6.16,6.16,0,0,1,1.07-3.36c1-1.35.55-3.23-.82-3.13s-1.82,3.36-5.42,3.23c0,0,5.17-3.12,4.53-5.24s-4.68,4.16-7.48,3c0,0,7.34-4.28,6.23-6.26-.81-1.46-2.85-.11-2.85-.11a3.52,3.52,0,0,1-2.34,2,12.61,12.61,0,0,0,2-2.83s0-1.66-1.62-.54-1-1-1.79-1.58-2.05-.08-2.36-1.79a12.66,12.66,0,0,1-.37-2.22s.57,1.68,1.25,2,2.27.22,2.36,1.45.61,2,2.17.8.81.78,1.24,1.11,1.81,1,2.5-.33c.44-.9.41,1,1.6.66,2-.56,2.58-1.76,3.14-1.56s2.69,1.81,1.45-2.34c0,0-2.26-.58-3.14.33a4,4,0,0,1-4.32.33c-1.23-.77-.54-3.58,1.58-4.25s2.29-.91,4.32-.36,4.86-.2,4.74-2.44-1.67-2.12-1.67-2.12l.21-.77s2.41,1,2.62-.7-1.16-2.34-3.08-2.23c0,0,.1,1.11-.77.89s-.7-.89-.7-.89l-1.24-.11a8.66,8.66,0,0,1-1.46,1.46c-.55.3-1,1-1.8.78s1.46-1,.18-1.82-1.57,1-1.57,1a2.52,2.52,0,0,1,1-2c1-.55.92-.55,1.71-.09s1.71.78,1.71-.35-1.71-2-2.94-1.89-2.29-.34-2.5.86-.8.71-.8.71.25-1.47-.69-1.47a1.86,1.86,0,0,0-1.91,1.68,13.14,13.14,0,0,1-.12,1.8h-.58s.47-2.72-.42-2.8-4.45,0-4.45,0-.78-2.59-2.45-1.15.39,3.28.88,3.67l.25,1.45-1.25.9a12.78,12.78,0,0,0-3.92,2.55c-1,1.32-3.11,3.57-3.11,3.57l2.19.24s-2.9,3.66-3.61,5-.51,2.06.71,2.06a2.93,2.93,0,0,1-.09,3.14,4.33,4.33,0,0,0-.44,2.61,2.74,2.74,0,0,0,2.4.06,3.26,3.26,0,0,1-.42,2.75c-.93,1.63-.54,5.1-.22,6s1.78.21,2.38-.3.65,2.57.65,2.57,0,3,1.85,4a9.54,9.54,0,0,0,1.1-3.29,1.71,1.71,0,0,1,1-1.6s.94,3.68,2.4,4.48c0,0-.64.71-1.66-.51a1.07,1.07,0,0,0-2,.7,5.34,5.34,0,0,0,1.57,3.16,7.19,7.19,0,0,1,1.51,2.87A4.1,4.1,0,0,0,267,261c.1-2.86,1.88-7.87,3.12-8.57l.4.41s-2.28,3.05-1.85,5.72c0,0,.37,1,1.85,0a27.06,27.06,0,0,0,3.6-3.66s.21,2.53-4.42,5.07c0,0-1.86.92-1.74,2.45a8.1,8.1,0,0,0,3.41-.5,33.67,33.67,0,0,1,4-.92,9.61,9.61,0,0,1-4.47,2.54c-3.09.93-4.75,1-5.27,3.7,0,0,3.38.63,5.17.08s2.57-.81,2.57-.81a9.6,9.6,0,0,0-2,1.43c-.61.73-5,.22-6.09.52a2.23,2.23,0,0,0-1.84,2.33l4.11.94-.72.5-5,.23s-2.5.91-1.15,2.64c.73.9,3.85.19,3.85.19s-.75,1.36-1.7,1.43-5.42-.52-5.84.71,1,1.94,2.45,2.45a5.13,5.13,0,0,1-3.06.1,6.72,6.72,0,0,0-4.16.41c-1.33.4-4.63-1-5.86-.08a2.07,2.07,0,0,0,.23,3.37c1,.39,6.28-.32,7.19-1.23a3.11,3.11,0,0,1-2.58,1.73c-1.72,0-4-.3-4,1.33a3,3,0,0,0,1.67,3.06c1.13.49,2.78.38,4.31-1.54s2.39-1.73,3.3-2.45,2-1.43,2-2.25a1.75,1.75,0,0,1-.05,2.06c-.84,1.12-1.9.91-2.81,1.91,0,0-2.27.62-1.76,2.15s1.76-.19,2.48.5,1.56,2.17,3.48.54,1.24-4.91,1.56-6.34a2.13,2.13,0,0,0,2.6-.7c1.09-1.43,2.06.42,1.73-2.87s1-5,2.73-5a3.3,3.3,0,0,0,2.83-2.12c.33-.73,1.88.69,2.3-1s1.05-2.44,2.38-2.05,2,.1,2.66-1.32,1.93-2.34,3.64-3.26,2.77-1.93,2.77-3l.49-.09a4.31,4.31,0,0,1-2.46,4c-2.66,1.44-3.72,2.75-3.6,4.17a1.35,1.35,0,0,0,2.07,1.25c.73-.52.89-1.83,1.34-1.55s.72,2,1.86,1,.9-1.31,2-.54,4.57.84,4.36-.49-1-1-.93-1.53.63-.51,2.48.51,5.07-.62,7.72-1.95,7.05-3.07,9.39-4.37a18.46,18.46,0,0,1,7.33-2.35c2-.1,2.37-1.72-1.42-3.16a7.1,7.1,0,0,0-3.32-.11l.42-.73s4-1,9.4,3.48c3.09,2.55,7.51-3.37,7.51-3.37s.83-.71,1.24-.5-2.18,3.37-2.78,3.87-3.73,2.14-2.57,3.26,4.5,2.37,8.23-6.32c0,0,1.24-1.24.33,1.64a13,13,0,0,1-4.84,6.21c-.7.47-1,3.25,2.75,3.38,2.83.1,4.33-7.57,4.44-9.81.12-2,.6.49.32,3s-2.76,8-1.93,8.45,4,.4,4.81-7.76c.29-3.06.94,2.25.6,3.81s-2,4.38-.19,4.68,3.51-3.06,3.51-4.09,1.66,1-.09,3-2.09,4,.49,4.07a18.28,18.28,0,0,0,5.28-.7l-.11,1s-4.41.29-4.84,2.14,3.07,1.14,4.13,1.54l-.12.72s-3.89-.53-4,1.2,2.06,1,4.2,3.79l-.92.1a3.84,3.84,0,0,0-4.1-1.42c-2.78.61-2.41,2.14-4.44,1.93s-4.52-2.24-5.36-1.93-.23,1.42-1,2.14.11,1.75,2.29,1.22,1.82.39,3.37.53,2.4-1,3.65-.53c0,0-1.62,1.72-3.18,1.43s-3.84-1.34-4.68-.5-.72,1.11.22,1.94-.38,2.94,1.37,2.94,3.09-1.22,4-1.22,1.16-2.25,3.43-3.16,3.4-1.34,3.4-1.34a2.38,2.38,0,0,1-1.35,1.75c-1.14.41-3.49,1.1-2.9,2.33s2.09,1.52,3.94,1.45,2.23-.71,2.75-2.35a9.3,9.3,0,0,1,3.32-4.59c1.43-.93-1.14-2.56-1.14-4.59s3.12-6.84,1.33-8.69m-73-43.85c0-.65.46-.56.46-.56s.44,1,1.26.56.17,1.58-.35,1.92a10.35,10.35,0,0,1-2.31.55s.37-1.45-.54-1.45,1.48-.33,1.48-1m-10.83.54,3.36.44.19.61a12.37,12.37,0,0,1-3.83,0c-1.3-.34-2.12-3.16-2.12-3.16,1.35-.18,2.4,2.11,2.4,2.11m-.11,3.88c.21-.62,1.1-.62,1.1-.62l.25,2.55-1.14-.19s-2.59-1.4-2.59-2.81c0,0,2.21,1.67,2.38,1.07m-8.79-.45,1-2.28,2.14-.44-.1.79s-2.3,1.65-2.48,2.63l-.19,1-1,.06ZM258,246.81c-.66,0-.66-1.08-.66-1.08h.74s.62,1.08-.08,1.08m0-4.12-.19-5.55-.44-1,.8-1.55,1.05-.45.2,1.31-1.08.62.29.69.08,6Zm4.32,7.06-.62.24a1.22,1.22,0,0,0-1.06-1.35,2,2,0,0,1-1.46-1.18l.42-.36.2-.75,1,.06a3.3,3.3,0,0,0,.93,2c.88.79.62,1.32.62,1.32m3.12-6.78-.36-1.17H263.6a8.32,8.32,0,0,0-.59-3.24c-.6-1.42-.05-1.76-.05-1.76l-.93-.71,1.57.37.59,2.54,1.86.61v1.94s-.27.89.26,1.14-.89.28-.89.28m32.08,18.85c-.59.66-3.46,3.75-3.46,3.75l-2.79.05-.16-.67a4.3,4.3,0,0,0,2.65-.74c1.18-.86,4.08-3.6,4.08-3.6a1.2,1.2,0,0,1-.32,1.21m4-.79-1.41.23a18.34,18.34,0,0,0,2-2.31l1.54-2.17.91-.06ZM329,252c-.8,2.5-4,3.71-4,3.71.48-1.91-1.63-9.12-1.63-9.12,1.32-1.1,2.87,5.86,2.87,5.86,2.51.18,2.83-4.94,2.83-4.94l.58-.36A14.33,14.33,0,0,1,329,252M274.65,232.8c-.45,1.34,1.17,1,2.19,1s1.1-.77,2.13-.89.57-1.82.57-1.82c-.46,1-4.41.37-4.89,1.7m-.67,1.48s.22-.35-.54-1.71c0,0-.55,1.59.54,1.71m45.33,26.26c-.48.38-3.95.77-5.27,1.14s.15,2,.15,2l-.45.47c-1.62-2.07-3.78-1.15-5-.14s-3.38,1-2.63,2.5,6.49,0,5.92,1-2.45.55-6.07.47-2.73.68-2,2.84,6.78.92,5.24,1.9-5-1.3-5,1.55.31,1.9,2.49,1.45,4-.08,3.08.23-4.35,1.62-4.19,3,2.35,2.53,2.35,2.53-.16.62-1.74,0-3.21-1.23-2.13.62.71,2.76.23,2-.92-2-2-2.06-1.31,2.35-1.4,1.75-.92-1.54-2.85-1.54-3.74-1.38-5-2.37a4.47,4.47,0,0,0-4.39-.39c-1.44.53-1.19,1.91-1.06,3.62s1.5,1.75,2.4.68,1.94-.92,3.1-.22,3.19.07,3.08.35a3.3,3.3,0,0,1-3.13.41c-1.11-.61-3.34-.41-3.31.9s1.45.88,1.34,2.08,1.67,3.36,2.93,1.28a10.88,10.88,0,0,1,2.36-3s4.49-.23,4.49.08-1.42.75-3.26.75-2.11.84-.62,2.55,2.4.57,3.94.57c1.78,0,3.63-2,3.89-2.58s1-1.54,1.42-1.08c1.1,1.07,1.33,1.47,1.79.54s2.18-.54,2.79-.92-.38-2.88-.54-4.27.74-1.7.79-2.91,1.38-.55,1.38-1.78-.91-3.58,1.52-3.35,1.58-1.31,1.58-2.53.13-.61,2.32-.1,1.62-1.58,1.78-2.75,1.39.92,2.49.86.13-1.53,1.76-2.68,1.31-1.76,0-3.76-4-2-4.48-1.6m-10,26.63c-.76.87-1.61,1.06-.61,1.92s1.39.7,1.62-.3a7.26,7.26,0,0,0,.58-2.3,1.83,1.83,0,0,0-1.59.68m-14.86,3.31a1.44,1.44,0,0,0,1.62-1.6l-1-.72c-1.42,1.25-.62,2.32-.62,2.32M288,286.62a1.65,1.65,0,0,0-.16,1.61,1.41,1.41,0,0,0,1.95-1.36s-1.27-1.24-1.79-.25m-3.47-3.8c1.56.32,2.08-1.6,2.08-1.6-2.69-.24-2.08,1.6-2.08,1.6M332,281.14c-.16-.84-3.42.45-1.81,1.22s1.81-1.22,1.81-1.22m-.62,8c2.32.54,1.87-1.91,1.87-1.91s-2.49,0-1.87,1.91m10,2.75c1.7,0,1.24-2,1.24-2-2,0-1.24,2-1.24,2m-77.14-8.71c-.8,3,2,2.42,2,2.42a2.51,2.51,0,0,0-2-2.42m-10.11,8.26c1.87.2,2-1.84,2-1.84-2.55-.32-2,1.84-2,1.84m-9.89-3.55c2.86.29,2.16-1.67,2.16-1.67a1.67,1.67,0,0,0-2.16,1.67M243,283.41c1.34.22,1.78-1.52,1.78-1.52-2-.22-1.78,1.52-1.78,1.52m7.78-18c1,2.83,1.59,1.77,4.28.12s.73.42,2.51,1,1.13-1.61,3.17-1.21,2.26-1.55,1.66-2.87-2.14-1.14-3.29-1.31,1-1.55-.22-2.35-.48-2.87-1.55-3.8-3,.3-3,.3a6.56,6.56,0,0,0,1.95,4.73,6,6,0,0,1-2.48-2.28c-.63-1.33-2-3.66-2.58-1.2a7.29,7.29,0,0,0,.53,4.38c-.44-.6-1.45.39-1.76-2.86-.35-3.67-.2-4.07-2.15-4s-1.88,4.61-1.88,4.61-.41.4-.72-1.75.85-2.86,1.26-4,.26-3.28-1.76-2.26-1.66,2.86-2.18,2,2.4-4.92,2.4-5.66-.44-1.82-2.4.43-2.18,1.11-2,.1,5.55-3.38,3.09-4.82-3.32,3.09-4,1.86,3.71-5.11,3.71-5.11.46-2.95,1.13-5.61-1.13-3.46-2.75-3.46-1,5.19-1,5.19l-.53-.08c.1-4.71-1.1-4.5-2.26-4.43s-2.88.54-.61,4.21,1.45,4.88.85,3.38-1.86-3.08-4.07-1.75,0,2.35,1.18,3.66,3.57,4.61,1.52,4.42-2,.3-2,3.05,2.67.2,3.3,2.34c1.29,4.52,1.62,4,3,5.52,1.93,2.2,2,5.39,3.19,7.76s5.89.4,6.44,1.71m3.37-11.49-.23-1.35s-1.11-.1-1.11.71,1.34.64,1.34.64m-11.72-24.52.8-.2c.08-1-1.15-2.05-1.15-2.05a1.59,1.59,0,0,0,.35,2.25m-5.07,1a1.82,1.82,0,0,0,1.21-1.74c0-.79-2.28-.31-2.28-.31l-.18,1.94a1.75,1.75,0,0,0,1.25.11m-3,3.86-1.77-.21-.11,1.85s2.47.81,1.88-1.64m-1.77,11.24s.53,1.33,1.26,1.33.29-1.72.29-1.72-1.37,0-1.55.39M312.85,228c2.88-.09,1.86-2.05,1.25-2.57s-5.69.81-5.69.81-.42,2.22,4.44,1.76m6.52-1.33c2.56-.84,1.93-2.67.4-2.58a9.33,9.33,0,0,0-2.69.61s-.3,2.75,2.29,2M324,225c2.06-.43,4.22-.83,3.89-2s-5-.29-5.26.29c0,0-.72,2.06,1.37,1.67m7.6-2c2.28-.4,2-1.21,2-1.21s0-1-2.64-.72-1.65,1.32-1.65,1.32,0,1,2.28.61m5.79-.61c1.46,0,1.77-.52,1.65-.91s-1-.85-1.87-.85a1.83,1.83,0,0,0-1.33.85s.12.91,1.55.91m5.86.32c1.55,0,1.65-.64,1.65-.64s-.1-1.11-1.65-.9-1.51.7-1.51.7,0,.84,1.51.84M348,224a5.85,5.85,0,0,1,1.84.61,1.12,1.12,0,0,0,.49-1.31c-.27-.83-3-.83-3-.83s-.79,1.24.65,1.53m4.19,2.15c1.37,1.11,2.48.39,2.48-.32s-2.35-1.74-2.35-1.74c-1.46-.09-1.46.95-.13,2.06m3.55,3.16c1.13.41,1.73.51,2,0s-.1-2.77-2.48-1.94c0,0-.63,1.54.53,1.94m1.73,1.66s-.31,1.6.52,2.2,2.16,0,1.87-.8-1.14-3-2.39-1.4m2.17,3.75a9.47,9.47,0,0,0-1.85,1.84c-.43.72.52,1.83,1.63,1.83s1.47-1.93.22-3.67m-3.18,7c-.22,1.54-.22,3.48.8,3.48a2.27,2.27,0,0,0,2.28-2.25,20,20,0,0,1,.1-2.23s-3-.54-3.18,1m-1.67,3.19s-2.16.4-2,2a1.32,1.32,0,0,0,2.1,1.12c.39-.41,2.24-1.63-.13-3.15m-6.5,1.72a3,3,0,0,0,.43,2.46c.8.91,2.66,0,3.17-.53s.12-1.41-.9-2.33-2.7.4-2.7.4M343.7,246s-1.65,2.05-.83,3,3.92,1.52,4.22.6A2.85,2.85,0,0,0,343.7,246"/><path class="cls-4" d="M449.71,266.62l-6.93,2.31a6,6,0,0,1-1-1.74c-.14-.73-4.55,2.46-5.69,1.59s.74-2-5.47-2.73c-4.8-.62-.26-2.49-3.19-7.26s-4.12-3.66-4.29-4.65.34-2.77-2.45-3.48-.88-2-2.07-3.35-2.19-2.75.45-2.89,3.51-.29,3.51-.29a40.05,40.05,0,0,0-4.87-5c-1.14-.75.07-1.83-.13-2.74s-1.15-3.72.43-3.89a5.36,5.36,0,0,1,3.2,1.07,7.46,7.46,0,0,1,.08-2.83,8.5,8.5,0,0,0-.35-3.72c-.16-.66,3.56-.6,5.2,1.34,1.16,1.4,1-3.59,2.84-3.33,1.11.41,1,2.4,2.51,4.83s1.34.81.75,5.14-1.62,6.7,0,10.2,1.26,6.54,2.2,7.22,3.33-1.66,3.28-3.74,1.23,1.56,1.17,2.88,1.67-.72,1.34-2.88,1-1.91.15-2.56-2.42.58-2.42-1.43,1.41-6.12-.93-6c-1.26.08,2.16-4,2.61-5.65.4-1.49-.86-1.41-1.92-.91s1.72-2.9,4.19-4.65,4.52-3.47,5.37-4.89-3.55-2,.3-4.9c2.17-1.66,2.44-.66,4.45-.41s2.75-3.46,3-4.13c.32-.83,2.09.89,3.18,2.38s2.41,1.34,4.26,1.57,3.21,2.66,5.21,3.41,3.31-1.47,5.43,2.5c.59,1.06-1,2.06-1,2.06a2.07,2.07,0,0,0-1,2.32,5.93,5.93,0,0,1-.4,2.24l8.94-.25a4.32,4.32,0,0,1-2.78,4.41c-3.19,1.33-7.38,1.74-8.87,1.07,0,0,.65,2.93.07,3.4s-1.17-.41-2.53-.18a11.23,11.23,0,0,0-3.41,1.33c-.49.44.08,2.76,2,2.83s21.21.33,36.77-2.33,15.37-1.14,20.67,1.68,17.14,7,20.42-.91-3.13-16.34-14.19-16.92-21.37,3.48-26.15,4.71-7.91,1.46-9-1.8c-.52-1.6,5-2.19,8.06-2.76s14.9-4.72,26.84-4.15,19.4,5.31,20.77,15.7-7.11,17.07-20,15.82c0,0,3.7,3.57,4.24,5.47s-1,2,0,2.93a9.56,9.56,0,0,1,2.39,4.14c.13,1,6.67,4,7,7.28.15,2-1.62,2.58-1.7,3.33s-1.16,1.65-.86,3,2.15,3.33,2.15,4.6-1.85,1.63-2.65,2.8-2,2.48-2.32,3.73-1,3.07-3.37,2.92-3.16.83-4.25,1.72-2.34,1.25-2.34-2.82a1.71,1.71,0,0,0-2,.43c-1,1-3.78,1.56-4.62-.51,0,0-3.44-1-3.83.08a5.08,5.08,0,0,1,1.55-4.73s.93-.65-.31-1.56-2-2.33-3.86-2a5.52,5.52,0,0,1,4.68-2.69c3.15.19,3.64,2.34,5.69,2.51s3.36-1.82,4.54-2,0-1.59.75-3.25-1.76-1.39-1.39-2.82-1.69-.32-3-1.76-.62-.29-4.2-1.3-6.77-2.07-7-5.42a3,3,0,0,0-1.78,1.51c-.48,1.18-1.75,3.48-2.66,3.54s-2.08-.22-2.27.93-1.76.68-2.43,1.17.4,2-1.42,2.17-2.42.32-2.42,2.48-1.59.65-1.93,1.48a5.39,5.39,0,0,0-.35,3.91c.6,1.57.94,4.72.2,5.55a5.21,5.21,0,0,0-1.72,2.81c-.1,1.34-1.75.85-1.75.85s-1.83-3.32-3.27-3.4-3.42,2.81-5.42,2.72-2.61-.92-3.28-.17-2.88,1.51-3.5.92l-.12-1.81-2,.32-1-1.57a11.41,11.41,0,0,0-3.44,1.25c-1,.75-1-3.59.77-5.16,0,0-3.09-2.39-5.77-1.24,0,0,2.71-6.3,8.82-5.64,4.61.49,2.77,2.82,6.84,2.82s5.6-.17,6.21-.89.16-2.59.16-2.59a10.15,10.15,0,0,1-1.08-4.49c.17-2-1.05-1.64-.58-4.78l-5.38,1.49c-3.25.87-3.25.87-3.85,1.8s-2.32,1.09-3.86.74-1.64.35-1.81.75-1.54,1.25-4,.18-1.91.16-2.62.51-3-1-3-1-1.76-.91-2.44.15-1,1.5-3.09,1.76-.86,1.33-2.93,2-2,3.22-1.85,4.21.69,5.48-.3,6.32-2.87-.92-4-1.43-.83,2-1.41,3.25-2.94,2.82-4.12,2.74a6.12,6.12,0,0,0-3.45.91s-1.16.24-1.08-2.65c0,0-.08-1.08-1.85-.18s-2.65.53-3.11-.5-2.25-.82-4.82,0c0,0-.19-3.82,2.43-4.81a9.38,9.38,0,0,0-3.7.07,9.85,9.85,0,0,0-1.93.92,6.66,6.66,0,0,1,3.2-4.29c2.57-1.34,2.07-2.51,4.42-2.24a10.61,10.61,0,0,0,6.8-1.1c2.26-1.3,1.74-1.72,2.83-2.37s3.71-5.67,5.12-6.33a2.26,2.26,0,0,0,1.14-2.38"/><path class="cls-5" d="M466.41,230.92s2.41.55,3,.09a4.92,4.92,0,0,1,3.34-.86c1.28.18,5.37.42,6.13-.14s.52,4.27-9.71,4.27c-1.73,0-1.12-1.91-3-2.14l-.2-1.26Z"/><path class="cls-6" d="M457.11,216s0-1-1.46-.13a2,2,0,0,0-.89,2.37c3.69.7,2.35-2.24,2.35-2.24m81.79,54a67.76,67.76,0,0,0-6.81-5.3s1-2.26-1.87-4.28c0,0,.94-1.53-1.19-3.06,0,0,2.23-.61-.93-4.41s-3.45-3.16-3.45-3.16l.22-.6s3.11.69,3.11-1,1.13-2.24-4.88-3.47c0,0-.4,3.57-1.42,3.57,0,0,.11-3.73-.32-4.52s-3.33-1.45-3.79-1.45,1.25,3.46.46,4.24a40.34,40.34,0,0,0-3-5.81c-.42-.69-4-.45-4-.45a47.42,47.42,0,0,1,2.37,5.71c.1.68-.56.23-.56.23s-2.84-5.7-5-6.28.35,4.93.35,6.18-.67.42-.67.42-1.11-5.25-3.63-5.25c-1.13,0,2.17,5.14,1.34,6.95s-1.41-7.51-6.32-6.29c-.92.23,0,1.35.78,3s1.46,4.26.69,5.48l-.69.1s-.56-6.6-3.17-7.82,0,3.37,0,3.37a13.17,13.17,0,0,1,.12,3.91l-.69.44s0-7.84-4.09-7.84c-2.6,0,.93,4.81,1.3,6s.1,4.94-1,5.49c0,0,.59-5.25-.89-6.82s-2.63-5-6.12-4.25c-1.57.31,1.58,5.38,2.28,7.62s.69,6.48-.21,6.72a41.66,41.66,0,0,0-1.8-8.76c-1.39-3.44-2.25-4.8-3.85-5.15s-1.94,1.35-.81,3.49-1,2.66.92,4.69a5,5,0,0,1,1.21,4.47l-.79-.08a9,9,0,0,0-.87-3.48c-1-1.36-1.38-2.14-1.16-3.6s-1.82-4.6-3.74-4.93.32,1.68,1.15,5.95,1.24,11.87-1.24,13.22c0,0,1.91-8.65.33-13.33s-1-5.71-2.82-5.61c-2.3.17-.91,2.6-.91,3.81s1.24,5.61.45,8c0,0-.67-4.68-1.47-5.14s.12-4.12-.25-5.16-1.66-2.57-2.35-1.56.22,2.81.12,4.27.3,3.34-.12,3.91-1.15,2,0,2.83.33,4.46-.55,4.57c0,0,.67-2.46-.12-3.72s-1.72-1.77-.69-3.56a5.55,5.55,0,0,0,.44-4.82c-.44-1.92-1.34-2.36-1.13-3.25s-2.26-1-2.26.45-.79,4.26-1.49,4.57-1.13,1.69-1.13,1.69a6.29,6.29,0,0,1,1-3.36c1-1.35.58-3.23-.79-3.13s-1.83,3.36-5.43,3.23c0,0,5.18-3.12,4.52-5.24s-4.65,4.16-7.46,3c0,0,7.3-4.28,6.24-6.26-.79-1.46-2.86-.11-2.86-.11a3.61,3.61,0,0,1-2.37,2,11.23,11.23,0,0,0,2-2.83s0-1.66-1.58-.54-1-1-1.81-1.58-2.05-.08-2.39-1.79a13.7,13.7,0,0,1-.34-2.22s.55,1.68,1.25,2,2.28.22,2.38,1.45.58,2,2.14.8.79.78,1.29,1.11,1.79,1,2.44-.33c.47-.9.39,1,1.6.66,2.05-.56,2.62-1.76,3.2-1.56s2.66,1.81,1.44-2.34c0,0-2.25-.58-3.16.33a4,4,0,0,1-4.3.33c-1.22-.77-.58-3.58,1.57-4.25s2.28-.91,4.31-.36,4.88-.2,4.76-2.44-1.71-2.12-1.71-2.12l.25-.77s2.39,1,2.59-.7-1.13-2.34-3.07-2.23c0,0,.11,1.11-.77.89s-.72-.89-.72-.89l-1.19-.11A10,10,0,0,1,464,223.3c-.58.3-1.07,1-1.83.78s1.46-1,.21-1.82-1.58,1-1.58,1a2.53,2.53,0,0,1,1-2c1.05-.55,1-.55,1.69-.09s1.73.78,1.73-.35-1.73-2-3-1.89-2.25-.34-2.49.86-.81.71-.81.71.22-1.47-.69-1.47a1.84,1.84,0,0,0-1.88,1.68,15.73,15.73,0,0,1-.1,1.8h-.59s.45-2.72-.45-2.8-4.41,0-4.41,0-.82-2.59-2.46-1.15.41,3.28.88,3.67l.24,1.45-1.23.9s-2.93,1.22-3.9,2.55-3.15,3.57-3.15,3.57l2.22.24s-2.93,3.66-3.67,5-.47,2.06.74,2.06a2.9,2.9,0,0,1-.08,3.14,4.36,4.36,0,0,0-.45,2.61,2.73,2.73,0,0,0,2.38.06,3.19,3.19,0,0,1-.41,2.75c-.93,1.63-.48,5.1-.2,6s1.74.21,2.38-.3.6,2.57.6,2.57,0,3,1.87,4a9.38,9.38,0,0,0,1.13-3.29,1.72,1.72,0,0,1,1.06-1.6s.92,3.68,2.37,4.48c0,0-.62.71-1.66-.51a1.07,1.07,0,0,0-2,.7,5.63,5.63,0,0,0,1.51,3.16,6.56,6.56,0,0,1,1.58,2.87,4.08,4.08,0,0,0,2.79-3.68c.1-2.86,1.85-7.87,3.08-8.57l.44.41s-2.3,3.05-1.87,5.72c0,0,.42,1,1.87,0a27.12,27.12,0,0,0,3.58-3.66s.2,2.53-4.41,5.07c0,0-1.86.92-1.78,2.45a8,8,0,0,0,3.4-.5,34.86,34.86,0,0,1,4-.92,9.17,9.17,0,0,1-4.43,2.54c-3.07.93-4.69,1-5.24,3.7,0,0,3.41.63,5.16.08s2.59-.81,2.59-.81a9.26,9.26,0,0,0-2,1.43c-.61.73-5.06.22-6.09.52a2.28,2.28,0,0,0-1.85,2.33l4.1.94-.67.5-5.06.23s-2.51.91-1.16,2.64c.74.9,3.82.19,3.82.19s-.71,1.36-1.67,1.43-5.41-.52-5.82.71,1,1.94,2.44,2.45a5.16,5.16,0,0,1-3.08.1,6.63,6.63,0,0,0-4.14.41c-1.32.4-4.63-1-5.86-.08a2.07,2.07,0,0,0,.17,3.37c1.06.39,6.33-.32,7.26-1.23a3.2,3.2,0,0,1-2.61,1.73c-1.74,0-4-.3-4,1.33a2.92,2.92,0,0,0,1.71,3.06c1.09.49,2.74.38,4.29-1.54s2.36-1.73,3.28-2.45,2-1.43,2-2.25a1.72,1.72,0,0,1-.12,2.06c-.8,1.12-1.86.91-2.78,1.91,0,0-2.26.62-1.72,2.15s1.72-.19,2.47.5,1.52,2.17,3.5.54,1.24-4.91,1.53-6.34a2.09,2.09,0,0,0,2.57-.7c1.15-1.43,2.09.42,1.77-2.87s1-5,2.71-5a3.32,3.32,0,0,0,2.84-2.12c.35-.73,1.88.69,2.29-1s1-2.44,2.39-2.05,2.08.1,2.65-1.32,1.95-2.34,3.63-3.26,2.76-1.93,2.76-3l.52-.09a4.31,4.31,0,0,1-2.45,4c-2.69,1.44-3.7,2.75-3.64,4.17s1.35,1.74,2.07,1.25.91-1.83,1.35-1.55.71,2,1.87,1,.92-1.31,2-.54,4.57.84,4.34-.49-1-1-.94-1.53.64-.51,2.52.51,5-.62,7.72-1.95,7-3.07,9.39-4.37a18.24,18.24,0,0,1,7.31-2.35c2-.1,2.42-1.72-1.45-3.16a6.9,6.9,0,0,0-3.27-.11l.4-.73s4-1,9.37,3.48C511.55,261.87,516,256,516,256s.82-.71,1.22-.5-2.15,3.37-2.77,3.87-3.7,2.14-2.59,3.26,4.54,2.37,8.26-6.32c0,0,1.23-1.24.32,1.64a12.83,12.83,0,0,1-4.86,6.21c-.68.47-1,3.25,2.78,3.38,2.79.1,4.33-7.57,4.41-9.81.12-2,.66.49.32,3s-2.77,8-1.94,8.45,4,.4,4.84-7.76c.34-3.06.92,2.25.62,3.81s-2.06,4.38-.23,4.68,3.56-3.06,3.56-4.09,1.62,1-.12,3-2.06,4,.49,4.07a18.43,18.43,0,0,0,5.28-.7l-.1,1s-4.46.29-4.86,2.14,3.08,1.14,4.12,1.54l-.08.72s-3.91-.53-4,1.2,2.08,1,4.24,3.79l-1,.1a3.85,3.85,0,0,0-4.1-1.42c-2.79.61-2.35,2.14-4.45,1.93s-4.54-2.24-5.35-1.93-.22,1.42-.95,2.14.14,1.75,2.28,1.22,1.86.39,3.41.53,2.37-1,3.6-.53c0,0-1.65,1.72-3.21,1.43s-3.8-1.34-4.61-.5-.74,1.11.22,1.94-.44,2.94,1.31,2.94,3.08-1.22,4-1.22,1.13-2.25,3.39-3.16l3.41-1.34a2.3,2.3,0,0,1-1.34,1.75c-1.15.41-3.47,1.1-2.88,2.33s2.08,1.52,3.92,1.45,2.27-.71,2.77-2.35a9.36,9.36,0,0,1,3.32-4.59c1.42-.93-1.15-2.56-1.15-4.59s3.08-6.84,1.35-8.69m-73-43.85c0-.65.46-.56.46-.56s.44,1,1.21.56.25,1.58-.32,1.92a10.1,10.1,0,0,1-2.26.55s.34-1.45-.57-1.45,1.48-.33,1.48-1m-10.83.54,3.38.44.15.61a12.17,12.17,0,0,1-3.8,0c-1.33-.34-2.1-3.16-2.1-3.16,1.31-.18,2.37,2.11,2.37,2.11m-.1,3.88c.17-.62,1.08-.62,1.08-.62l.25,2.55-1.16-.19s-2.57-1.4-2.57-2.81c0,0,2.23,1.67,2.4,1.07m-8.76-.45,1-2.28,2.08-.44-.05.79s-2.32,1.65-2.5,2.63l-.17,1-1,.06Zm-1.82,16.76c-.7,0-.7-1.08-.7-1.08h.74s.63,1.08,0,1.08m-.05-4.12-.2-5.55-.45-1,.84-1.55,1-.45.19,1.31-1.06.62.28.69.05,6Zm4.36,7.06L448,250a1.27,1.27,0,0,0-1-1.35,1.89,1.89,0,0,1-1.5-1.18l.46-.36.15-.75,1,.06a3.3,3.3,0,0,0,.93,2c.87.79.65,1.32.65,1.32m3.1-6.78-.38-1.17h-1.46a9.39,9.39,0,0,0-.56-3.24c-.6-1.42-.13-1.76-.13-1.76l-.88-.71,1.57.37.59,2.54,1.85.61v1.94s-.22.89.3,1.14-.9.28-.9.28m32.07,18.85c-.58.66-3.45,3.75-3.45,3.75l-2.8.05-.18-.67a4.37,4.37,0,0,0,2.67-.74c1.22-.86,4.07-3.6,4.07-3.6a1.21,1.21,0,0,1-.31,1.21m4-.79-1.42.23a16.32,16.32,0,0,0,2-2.31c1.21-1.63,1.56-2.17,1.56-2.17l1-.06ZM515.37,252c-.78,2.5-4.05,3.71-4.05,3.71.5-1.91-1.62-9.12-1.62-9.12,1.33-1.1,2.91,5.86,2.91,5.86,2.54.18,2.81-4.94,2.81-4.94l.59-.36a13.91,13.91,0,0,1-.64,4.85M461,232.8c-.43,1.34,1.14,1,2.18,1s1.12-.77,2.13-.89.57-1.82.57-1.82c-.43,1-4.4.37-4.88,1.7m-.65,1.48s.22-.35-.59-1.71c0,0-.59,1.59.59,1.71m45.31,26.26c-.47.38-4,.77-5.26,1.14s.16,2,.16,2l-.49.47c-1.59-2.07-3.8-1.15-5-.14s-3.45,1-2.65,2.5,6.52,0,6,1-2.48.55-6.12.47-2.73.68-2,2.84,6.81.92,5.24,1.9-5-1.3-5,1.55.29,1.9,2.46,1.45,4.07-.08,3.13.23-4.37,1.62-4.21,3,2.34,2.53,2.34,2.53-.17.62-1.72,0-3.26-1.23-2.15.62.66,2.76.21,2-.91-2-2-2.06-1.31,2.35-1.39,1.75-.91-1.54-2.86-1.54-3.72-1.38-5-2.37a4.39,4.39,0,0,0-4.34-.39c-1.46.53-1.25,1.91-1.12,3.62s1.52,1.75,2.41.68,2-.92,3.12-.22,3.16.07,3.07.35a3.32,3.32,0,0,1-3.14.41c-1.08-.61-3.33-.41-3.28.9s1.41.88,1.3,2.08,1.73,3.36,3,1.28a10.1,10.1,0,0,1,2.35-3s4.43-.23,4.43.08-1.38.75-3.21.75-2.11.84-.62,2.55,2.41.57,3.93.57c1.74,0,3.63-2,3.85-2.58s1-1.54,1.49-1.08c1,1.07,1.31,1.47,1.76.54s2.18-.54,2.81-.92-.39-2.88-.56-4.27.72-1.7.77-2.91,1.42-.55,1.42-1.78-1-3.58,1.56-3.35,1.51-1.31,1.51-2.53.14-.61,2.31-.1,1.63-1.58,1.81-2.75,1.4.92,2.46.86.17-1.53,1.8-2.68,1.29-1.76,0-3.76-4-2-4.49-1.6m-10,26.63c-.8.87-1.63,1.06-.62,1.92s1.38.7,1.62-.3.48-.75.55-2.3a1.76,1.76,0,0,0-1.55.68m-14.86,3.31c1.7.14,1.61-1.6,1.61-1.6l-1-.72c-1.39,1.25-.62,2.32-.62,2.32m-6.43-3.86a1.53,1.53,0,0,0-.13,1.61,1.4,1.4,0,0,0,1.93-1.36s-1.24-1.24-1.8-.25m-3.48-3.8c1.53.32,2.07-1.6,2.07-1.6-2.69-.24-2.07,1.6-2.07,1.6m47.41-1.68c-.15-.84-3.4.45-1.77,1.22s1.77-1.22,1.77-1.22m-.62,8c2.34.54,1.85-1.91,1.85-1.91s-2.47,0-1.85,1.91m10.08,2.75c1.71,0,1.26-2,1.26-2-2,0-1.26,2-1.26,2m-77.17-8.71c-.8,3,2,2.42,2,2.42a2.53,2.53,0,0,0-2-2.42m-10.11,8.26c1.85.2,2-1.84,2-1.84-2.59-.32-2,1.84-2,1.84m-9.92-3.55c2.91.29,2.21-1.67,2.21-1.67a1.69,1.69,0,0,0-2.21,1.67m-1.17-4.51c1.29.22,1.69-1.52,1.69-1.52-1.95-.22-1.69,1.52-1.69,1.52m7.73-18c1.07,2.83,1.63,1.77,4.32.12s.69.42,2.46,1,1.11-1.61,3.18-1.21,2.28-1.55,1.68-2.87-2.19-1.14-3.31-1.31,1-1.55-.2-2.35-.55-2.87-1.57-3.8-3,.3-3,.3a6.58,6.58,0,0,0,2,4.73,5.92,5.92,0,0,1-2.47-2.28c-.64-1.33-2.08-3.66-2.61-1.2a7.38,7.38,0,0,0,.53,4.38c-.41-.6-1.47.39-1.76-2.86-.35-3.67-.2-4.07-2.17-4s-1.86,4.61-1.86,4.61-.43.4-.72-1.75.84-2.86,1.24-4,.34-3.28-1.77-2.26-1.61,2.86-2.17,2,2.41-4.92,2.41-5.66-.4-1.82-2.41.43-2.13,1.11-1.93.1,5.57-3.38,3.09-4.82-3.29,3.09-4.05,1.86,3.74-5.11,3.74-5.11a46.31,46.31,0,0,1,1.16-5.61c.69-2.64-1.16-3.46-2.8-3.46s-.94,5.19-.94,5.19l-.52-.08c.12-4.71-1.13-4.5-2.25-4.43s-2.91.54-.62,4.21,1.4,4.88.82,3.38-1.87-3.08-4-1.75,0,2.35,1.16,3.66,3.61,4.61,1.55,4.42-2.1.3-2.1,3.05,2.71.2,3.33,2.34c1.29,4.52,1.63,4,3,5.52,1.93,2.2,2,5.39,3.18,7.76s5.87.4,6.44,1.71m3.36-11.49-.2-1.35s-1.12-.1-1.12.71,1.32.64,1.32.64m-11.77-24.52.83-.2c.11-1-1.13-2.05-1.13-2.05a1.61,1.61,0,0,0,.3,2.25m-5,1a1.82,1.82,0,0,0,1.25-1.74c0-.79-2.29-.31-2.29-.31l-.2,1.94a1.72,1.72,0,0,0,1.24.11m-3,3.86-1.77-.21-.08,1.85s2.42.81,1.85-1.64M419,245.54s.49,1.33,1.21,1.33.34-1.72.34-1.72-1.35,0-1.55.39M499.19,228c2.89-.09,1.85-2.05,1.21-2.57s-5.62.81-5.62.81-.48,2.22,4.41,1.76m6.49-1.33c2.59-.84,2-2.67.42-2.58a9.44,9.44,0,0,0-2.69.61s-.3,2.75,2.27,2m4.63-1.63c2.08-.43,4.25-.83,3.93-2s-4.95-.29-5.26.29c0,0-.71,2.06,1.33,1.67m7.65-2c2.28-.4,1.95-1.21,1.95-1.21s0-1-2.58-.72-1.64,1.32-1.64,1.32,0,1,2.27.61m5.79-.61c1.41,0,1.73-.52,1.63-.91s-1-.85-1.84-.85a1.76,1.76,0,0,0-1.34.85s.1.91,1.55.91m5.87.32c1.54,0,1.64-.64,1.64-.64s-.1-1.11-1.64-.9-1.52.7-1.52.7,0,.84,1.52.84m4.75,1.21a5.75,5.75,0,0,1,1.87.61,1.18,1.18,0,0,0,.52-1.31c-.34-.83-3-.83-3-.83s-.81,1.24.65,1.53m4.26,2.15c1.28,1.11,2.44.39,2.44-.32s-2.37-1.74-2.37-1.74c-1.45-.09-1.45.95-.07,2.06m3.48,3.16c1.11.41,1.75.51,1.95,0a1.7,1.7,0,0,0-2.48-1.94s-.63,1.54.53,1.94m1.75,1.66s-.32,1.6.49,2.2,2.16,0,1.9-.8-1.16-3-2.39-1.4m2.17,3.75a9.65,9.65,0,0,0-1.88,1.84c-.42.72.5,1.83,1.64,1.83s1.48-1.93.24-3.67m-3.24,7c-.16,1.54-.16,3.48.83,3.48a2.3,2.3,0,0,0,2.31-2.25,20,20,0,0,1,.1-2.23s-3-.54-3.24,1m-1.64,3.19s-2.13.4-1.95,2a1.31,1.31,0,0,0,2.09,1.12c.38-.41,2.25-1.63-.14-3.15m-6.47,1.72a3,3,0,0,0,.37,2.46c.85.91,2.72,0,3.24-.53s.08-1.41-.94-2.33-2.67.4-2.67.4M530,246s-1.66,2.05-.84,3,3.92,1.52,4.24.6A2.86,2.86,0,0,0,530,246"/><path class="cls-4" d="M356.42,430.08l-6.88,2.34a5.32,5.32,0,0,1-1-1.74c-.12-.76-4.55,2.44-5.7,1.58s.71-2-5.41-2.74c-4.88-.59-.34-2.5-3.25-7.3s-4.1-3.58-4.24-4.62.27-2.75-2.49-3.46-.89-2.06-2.07-3.36-2.2-2.77.45-2.87,3.5-.32,3.5-.32a38.38,38.38,0,0,0-4.91-5c-1.09-.75.1-1.82-.06-2.74s-1.18-3.73.37-3.87a5.22,5.22,0,0,1,3.24,1.06,8,8,0,0,1,0-2.83,7.82,7.82,0,0,0-.31-3.72c-.18-.68,3.58-.63,5.18,1.32,1.17,1.41,1-3.56,2.85-3.31,1.1.4,1.05,2.4,2.54,4.8s1.32.82.74,5.16-1.58,6.7,0,10.19,1.22,6.56,2.19,7.22,3.33-1.68,3.27-3.72,1.25,1.56,1.14,2.9,1.71-.75,1.37-2.9,1-1.95.15-2.58-2.42.6-2.42-1.41,1.41-6.15-.92-6c-1.26.07,2.12-4,2.61-5.65.41-1.5-.84-1.43-1.93-.93s1.74-2.87,4.18-4.6,4.53-3.51,5.35-4.91-3.52-2,.36-4.91c2.16-1.65,2.41-.64,4.42-.39s2.77-3.47,3-4.18,2.06.92,3.18,2.42,2.43,1.31,4.27,1.6,3.2,2.63,5.21,3.4,3.27-1.45,5.47,2.48c.55,1.08-1.05,2-1.05,2a2.23,2.23,0,0,0-1,2.34,4.71,4.71,0,0,1-.38,2.25l9-.26a4.3,4.3,0,0,1-2.79,4.37c-3.18,1.34-7.38,1.76-8.88,1.12,0,0,.63,2.88.1,3.39s-1.18-.4-2.52-.19a10.89,10.89,0,0,0-3.44,1.36c-.49.41.08,2.75,2,2.8s21.22.35,36.78-2.31,15.37-1.17,20.65,1.64,17.14,7,20.42-.87-3.08-16.37-14.15-16.94-21.39,3.48-26.15,4.75-7.92,1.45-9-1.86c-.53-1.59,5-2.14,8.07-2.75s14.87-4.72,26.78-4.13,19.45,5.29,20.78,15.69-7.12,17.08-20,15.82c0,0,3.7,3.56,4.3,5.49s-1.07,2,0,2.89a9.94,9.94,0,0,1,2.31,4.14c.2,1,6.7,4.09,7,7.31.17,2-1.6,2.59-1.7,3.32s-1.16,1.68-.84,3,2.1,3.32,2.1,4.55-1.84,1.7-2.59,2.82-2.1,2.53-2.37,3.77-1,3.06-3.35,2.89-3.16.83-4.25,1.72-2.35,1.28-2.35-2.78a1.69,1.69,0,0,0-2,.41c-1,1-3.73,1.56-4.59-.48,0,0-3.42-1-3.87.07a5.14,5.14,0,0,1,1.59-4.76s.93-.62-.3-1.56-2-2.31-3.85-2A5.28,5.28,0,0,1,425,443c3.1.13,3.61,2.31,5.67,2.48s3.34-1.86,4.53-2,0-1.59.77-3.22-1.77-1.43-1.41-2.85-1.7-.32-3.06-1.73-.55-.35-4.16-1.33-6.77-2.05-7-5.41a3,3,0,0,0-1.78,1.51c-.52,1.14-1.76,3.47-2.69,3.59s-2.09-.28-2.24.87-1.78.68-2.47,1.18.47,2-1.4,2.17-2.42.33-2.42,2.48-1.59.66-1.94,1.47a5.41,5.41,0,0,0-.35,3.93c.58,1.58.91,4.73.19,5.56a4.74,4.74,0,0,0-1.68,2.78c-.19,1.34-1.75.84-1.75.84s-1.85-3.3-3.28-3.37-3.45,2.8-5.47,2.72-2.57-.9-3.24-.19-2.86,1.5-3.52.94l-.1-1.85-2,.37-1-1.57a12.36,12.36,0,0,0-3.43,1.2c-1,.78-1-3.55.74-5.13,0,0-3.1-2.38-5.79-1.22,0,0,2.69-6.28,8.8-5.68,4.63.52,2.79,2.85,6.86,2.85s5.65-.19,6.24-.91.12-2.54.12-2.54a10.12,10.12,0,0,1-1.06-4.51c.15-2-1.11-1.65-.59-4.84,0,0-2.09.61-5.35,1.5s-3.26.95-3.86,1.82-2.36,1.12-3.85.77-1.67.35-1.82.75-1.52,1.23-4,.17-1.93.15-2.59.49-3-1-3-1-1.74-.91-2.43.2-1.08,1.44-3.09,1.7-.85,1.33-3,2-2,3.24-1.81,4.21.66,5.5-.33,6.33-2.84-.92-4-1.41-.84,2-1.41,3.25-2.92,2.8-4.08,2.73a5.75,5.75,0,0,0-3.44.88s-1.21.28-1.13-2.64c0,0-.08-1.06-1.83-.16s-2.68.48-3.08-.51-2.26-.83-4.87,0c0,0-.16-3.8,2.44-4.8a8.85,8.85,0,0,0-3.69.11,8.22,8.22,0,0,0-1.93.89,6.68,6.68,0,0,1,3.18-4.3c2.61-1.34,2.11-2.51,4.45-2.26a10.86,10.86,0,0,0,6.78-1c2.25-1.36,1.76-1.75,2.84-2.43s3.69-5.67,5.14-6.29a2.29,2.29,0,0,0,1.07-2.42"/><path class="cls-5" d="M373.17,394.39s2.38.56,3,.12a5,5,0,0,1,3.4-.9c1.19.21,5.29.46,6.07-.13s.49,4.28-9.75,4.28c-1.64,0-1.1-1.92-3-2.16l-.17-1.24Z"/><path class="cls-6" d="M363.84,379.41s0-1-1.47-.09a2.05,2.05,0,0,0-.87,2.34c3.68.7,2.34-2.25,2.34-2.25m81.82,54a61.93,61.93,0,0,0-6.83-5.29s1-2.23-1.85-4.28c0,0,.91-1.52-1.23-3.07,0,0,2.27-.61-.94-4.39s-3.39-3.16-3.39-3.16l.2-.62s3.09.72,3.09-1,1.15-2.24-4.85-3.46c0,0-.38,3.58-1.44,3.58,0,0,.12-3.73-.32-4.52s-3.3-1.44-3.77-1.44,1.26,3.46.47,4.24a45.87,45.87,0,0,0-3.06-5.82c-.45-.68-4-.43-4-.43a43.31,43.31,0,0,1,2.39,5.68c.12.68-.59.25-.59.25s-2.8-5.74-4.95-6.3.33,4.95.33,6.17-.68.45-.68.45-1.12-5.29-3.64-5.29c-1.11,0,2.19,5.17,1.36,7s-1.38-7.51-6.31-6.3c-.94.24,0,1.37.8,3.05s1.44,4.25.65,5.45l-.65.15s-.56-6.6-3.2-7.86,0,3.37,0,3.37a14.48,14.48,0,0,1,.13,3.93l-.65.41s0-7.8-4.13-7.8c-2.58,0,.93,4.81,1.28,6s.1,4.91-.93,5.49c0,0,.58-5.28-.91-6.84s-2.63-5-6.08-4.23c-1.58.31,1.56,5.4,2.25,7.59s.68,6.5-.21,6.73a40,40,0,0,0-1.82-8.74c-1.38-3.46-2.27-4.81-3.87-5.16s-1.9,1.37-.79,3.49-1,2.68.91,4.69a4.9,4.9,0,0,1,1.24,4.5l-.75-.11A8.94,8.94,0,0,0,388,416a4.12,4.12,0,0,1-1.16-3.58c.22-1.46-1.78-4.58-3.75-4.91s.35,1.68,1.14,5.94,1.23,11.87-1.24,13.21c0,0,2-8.6.35-13.34s-1.06-5.71-2.86-5.6c-2.25.16-.86,2.58-.86,3.84s1.2,5.57.43,8c0,0-.67-4.71-1.5-5.15s.13-4.16-.19-5.19-1.67-2.54-2.39-1.55.23,2.8.12,4.28.32,3.36-.12,3.91-1.14,2,0,2.82.34,4.45-.61,4.58c0,0,.75-2.48-.06-3.7s-1.7-1.81-.68-3.61.89-2.9.44-4.78-1.35-2.36-1.11-3.26-2.29-1-2.29.45-.78,4.25-1.46,4.58-1.11,1.67-1.11,1.67a6.35,6.35,0,0,1,1-3.32c1-1.37.58-3.26-.79-3.14s-1.8,3.36-5.42,3.21c0,0,5.22-3.11,4.53-5.26s-4.64,4.15-7.46,3c0,0,7.3-4.3,6.2-6.28-.77-1.44-2.84-.09-2.84-.09a3.52,3.52,0,0,1-2.37,2,11.41,11.41,0,0,0,2-2.82s0-1.68-1.58-.55-1-1-1.8-1.58-2-.13-2.38-1.81a12.66,12.66,0,0,1-.37-2.22s.61,1.68,1.28,2,2.26.21,2.37,1.46.55,2,2.13.77.81.77,1.27,1.12,1.78,1.07,2.49-.35c.42-.88.4,1,1.58.68,2-.53,2.62-1.79,3.17-1.56s2.69,1.82,1.46-2.35c0,0-2.26-.56-3.18.33a3.93,3.93,0,0,1-4.27.37c-1.25-.8-.61-3.61,1.56-4.28s2.25-.87,4.31-.33,4.86-.23,4.75-2.47-1.71-2.11-1.71-2.11l.24-.82s2.35,1,2.61-.66-1.14-2.37-3.08-2.22c0,0,.15,1.11-.78.87s-.67-.87-.67-.87l-1.24-.15a9.77,9.77,0,0,1-1.48,1.49c-.58.33-1,1-1.79.78s1.44-1,.22-1.81-1.6,1-1.6,1,0-1.49,1-2,.92-.55,1.7-.12,1.69.79,1.69-.36-1.69-2-2.92-1.86-2.25-.36-2.49.87-.79.68-.79.68.21-1.48-.68-1.48a1.86,1.86,0,0,0-1.92,1.72A13.33,13.33,0,0,1,363,386h-.57s.45-2.69-.47-2.81-4.39,0-4.39,0-.83-2.57-2.46-1.11.38,3.28.91,3.66l.2,1.43-1.25.93s-2.89,1.25-3.9,2.55-3.1,3.58-3.1,3.58l2.18.21s-2.91,3.69-3.63,5-.54,2.07.72,2.07a2.91,2.91,0,0,1-.11,3.13,4.74,4.74,0,0,0-.42,2.62,2.75,2.75,0,0,0,2.36,0,3.07,3.07,0,0,1-.41,2.75c-.92,1.64-.49,5.1-.17,6s1.74.22,2.35-.3.63,2.55.63,2.55,0,3.06,1.83,4a9.3,9.3,0,0,0,1.16-3.3,1.74,1.74,0,0,1,1-1.62s.92,3.68,2.39,4.5c0,0-.62.73-1.66-.51a1.07,1.07,0,0,0-2,.72,5.13,5.13,0,0,0,1.57,3.13,7.23,7.23,0,0,1,1.54,2.88,4,4,0,0,0,2.74-3.68c.11-2.84,1.87-7.84,3.1-8.57l.43.43s-2.27,3.05-1.86,5.72c0,0,.42,1,1.86,0a25.94,25.94,0,0,0,3.6-3.69s.25,2.55-4.39,5.11c0,0-1.86.91-1.79,2.45a9.24,9.24,0,0,0,3.41-.53,33.82,33.82,0,0,1,4-.92,9.54,9.54,0,0,1-4.44,2.56c-3.06.93-4.72,1-5.26,3.69,0,0,3.41.6,5.16.09s2.61-.84,2.61-.84a8.65,8.65,0,0,0-2,1.45c-.63.74-5,.18-6.09.51a2.22,2.22,0,0,0-1.86,2.36l4.11.91-.69.49-5.08.21s-2.48.95-1.12,2.67c.71.92,3.79.21,3.79.21s-.7,1.32-1.62,1.42-5.45-.52-5.87.75,1,1.93,2.47,2.4a5.47,5.47,0,0,1-3.12.14,6.65,6.65,0,0,0-4.14.37c-1.31.44-4.64-1-5.85-.08a2.08,2.08,0,0,0,.19,3.37c1,.42,6.28-.31,7.22-1.24a3.06,3.06,0,0,1-2.56,1.74c-1.76,0-4-.31-4,1.34s.52,2.56,1.65,3.05,2.78.38,4.31-1.54,2.36-1.71,3.31-2.43,2-1.44,2-2.25a1.64,1.64,0,0,1-.1,2c-.83,1.15-1.86.95-2.81,1.93,0,0-2.26.63-1.74,2.19s1.74-.21,2.48.46,1.56,2.18,3.51.54,1.26-4.89,1.55-6.33a2.14,2.14,0,0,0,2.59-.72c1.11-1.44,2.08.4,1.74-2.87s1.05-5,2.7-5a3.31,3.31,0,0,0,2.87-2.15c.34-.7,1.86.72,2.28-1s1-2.42,2.36-2,2.07.1,2.66-1.34a7.53,7.53,0,0,1,3.63-3.25c1.62-1,2.78-2,2.78-3l.51-.07a4.34,4.34,0,0,1-2.44,4c-2.71,1.45-3.71,2.78-3.6,4.2a1.32,1.32,0,0,0,2.05,1.24c.7-.51.93-1.85,1.33-1.53s.73,2.05,1.85,1,.94-1.34,2.1-.52,4.51.82,4.32-.5-1.07-1-.94-1.54.65-.5,2.48.52,5.05-.62,7.73-1.94,7-3.07,9.37-4.39a19.65,19.65,0,0,1,7.35-2.37c1.93-.07,2.37-1.69-1.48-3.15a6.85,6.85,0,0,0-3.26-.11l.4-.7s4-1,9.37,3.46c3.09,2.55,7.53-3.39,7.53-3.39s.82-.69,1.24-.48-2.16,3.38-2.8,3.87-3.67,2.15-2.56,3.24,4.55,2.37,8.25-6.31c0,0,1.25-1.25.31,1.65a12.63,12.63,0,0,1-4.84,6.21c-.67.49-1.06,3.25,2.77,3.39,2.82.09,4.36-7.55,4.43-9.78.11-2.06.62.51.31,2.93s-2.77,8-1.92,8.46,4,.39,4.84-7.74c.28-3.06.89,2.25.62,3.77s-2.07,4.4-.2,4.69,3.46-3.05,3.46-4.08,1.67,1-.1,3-2.05,4,.57,4.12a18,18,0,0,0,5.21-.75l-.12,1s-4.42.32-4.8,2.16,3.07,1.12,4.12,1.51l-.09.72s-3.95-.49-4,1.21,2,1,4.2,3.79l-.92.12a3.93,3.93,0,0,0-4.14-1.44c-2.78.63-2.36,2.15-4.42,1.94s-4.53-2.24-5.35-1.94-.2,1.44-1,2.15.13,1.73,2.3,1.23,1.87.38,3.4.5,2.36-1,3.59-.5c0,0-1.64,1.7-3.21,1.43s-3.78-1.36-4.63-.51-.69,1.11.23,1.89-.42,3,1.33,3,3.07-1.23,4-1.23,1.15-2.26,3.41-3.16,3.4-1.36,3.4-1.36a2.43,2.43,0,0,1-1.34,1.78c-1.13.37-3.52,1.09-2.9,2.33s2.07,1.53,3.92,1.4,2.27-.69,2.79-2.32a9.43,9.43,0,0,1,3.32-4.6c1.46-.91-1.11-2.56-1.11-4.6s3.07-6.86,1.31-8.69m-73.05-43.82c0-.67.48-.59.48-.59s.45,1,1.26.59.22,1.57-.36,1.9a8.86,8.86,0,0,1-2.29.57s.36-1.47-.54-1.47,1.45-.31,1.45-1m-10.82.49,3.39.45.16.66a13.67,13.67,0,0,1-3.8,0c-1.35-.36-2.11-3.19-2.11-3.19,1.32-.16,2.36,2.08,2.36,2.08m-.07,3.89c.18-.6,1.09-.6,1.09-.6l.24,2.53-1.15-.15s-2.56-1.4-2.56-2.82c0,0,2.2,1.68,2.38,1m-8.8-.43,1-2.28,2.13-.43-.08.78s-2.32,1.65-2.48,2.64l-.2.95-1,.1Zm-1.8,16.75c-.66,0-.66-1-.66-1h.71s.62,1-.05,1m0-4.09-.2-5.53-.42-1.09.76-1.55,1.06-.46.22,1.32-1.08.64.27.69.08,6Zm4.33,7-.63.26a1.3,1.3,0,0,0-1.06-1.4,1.88,1.88,0,0,1-1.49-1.14l.44-.37.19-.74,1,.08a3.44,3.44,0,0,0,.95,2c.89.81.63,1.29.63,1.29m3.11-6.8-.4-1.1h-1.48a8.07,8.07,0,0,0-.54-3.29c-.6-1.38-.07-1.75-.07-1.75l-.89-.72,1.5.4.63,2.51,1.87.63V405s-.26.88.29,1.17-.91.24-.91.24m32.06,18.88c-.58.65-3.43,3.73-3.43,3.73l-2.78.07-.17-.65a4.28,4.28,0,0,0,2.61-.75c1.23-.87,4.07-3.63,4.07-3.63a1.22,1.22,0,0,1-.3,1.23m3.95-.84-1.32.27a17.47,17.47,0,0,0,1.94-2.34,22.76,22.76,0,0,0,1.55-2.14l1-.09Zm27.62-9c-.86,2.47-4.06,3.7-4.06,3.7.51-1.91-1.61-9.11-1.61-9.11,1.29-1.12,2.86,5.86,2.86,5.86,2.54.15,2.86-4.95,2.86-4.95l.55-.37a14.25,14.25,0,0,1-.6,4.87m-54.4-19.14c-.44,1.32,1.16.95,2.15.95s1.13-.74,2.16-.86.55-1.77.55-1.77c-.43,1-4.41.33-4.86,1.68m-.68,1.46s.24-.39-.55-1.7c0,0-.58,1.56.55,1.7M412.37,424c-.45.4-3.94.78-5.24,1.17s.18,2,.18,2l-.49.46c-1.61-2.05-3.8-1.12-5-.16s-3.4,1-2.62,2.56,6.51,0,5.95,1-2.48.52-6.13.43-2.7.73-2,2.84,6.81.93,5.26,1.92-5.05-1.3-5.05,1.53.34,1.91,2.48,1.46,4.05-.08,3.12.22-4.34,1.61-4.18,3,2.32,2.54,2.32,2.54-.15.56-1.7,0-3.25-1.23-2.17.56.67,2.79.2,2-.89-2-2-2.08-1.31,2.37-1.36,1.76-1-1.53-2.88-1.53-3.72-1.38-5-2.39a4.41,4.41,0,0,0-4.31-.37c-1.5.55-1.24,1.91-1.09,3.59s1.46,1.77,2.42.7,1.91-.93,3.08-.23,3.16.06,3.08.38-2.07,1-3.18.4-3.32-.4-3.21.92,1.38.85,1.29,2.06,1.72,3.37,2.95,1.28a11.4,11.4,0,0,1,2.32-3.07s4.48-.19,4.48.09-1.4.78-3.24.78-2.12.83-.64,2.52,2.44.62,4,.62c1.75,0,3.63-2,3.83-2.62s1.05-1.52,1.5-1.05c1.06,1.05,1.31,1.45,1.77.53s2.17-.53,2.79-.91-.39-2.93-.54-4.28.71-1.71.77-2.95,1.42-.54,1.42-1.74-1-3.6,1.51-3.38,1.53-1.28,1.53-2.52.18-.63,2.35-.08,1.6-1.61,1.77-2.75,1.39.94,2.47.83.19-1.53,1.77-2.64,1.36-1.8,0-3.77-4-2-4.48-1.62m-9.95,26.64c-.77.84-1.63,1.06-.64,1.92s1.4.7,1.63-.31A7.5,7.5,0,0,0,404,450a1.85,1.85,0,0,0-1.55.7M387.55,454c1.7.16,1.62-1.61,1.62-1.61l-1-.69c-1.38,1.23-.62,2.3-.62,2.3m-6.41-3.84a1.57,1.57,0,0,0-.15,1.6,1.4,1.4,0,0,0,1.93-1.37s-1.24-1.21-1.78-.23m-3.49-3.83c1.56.32,2.08-1.61,2.08-1.61-2.69-.22-2.08,1.61-2.08,1.61m47.42-1.65c-.13-.88-3.39.44-1.78,1.22s1.78-1.22,1.78-1.22m-.65,8c2.37.55,1.86-1.88,1.86-1.88s-2.43,0-1.86,1.88m10.09,2.77c1.7,0,1.24-2,1.24-2-2-.07-1.24,2-1.24,2m-77.13-8.72c-.85,2.95,2,2.46,2,2.46a2.53,2.53,0,0,0-2-2.46M347.25,455c1.83.18,1.94-1.85,1.94-1.85-2.56-.29-1.94,1.85-1.94,1.85m-9.91-3.55c2.87.29,2.18-1.69,2.18-1.69a1.69,1.69,0,0,0-2.18,1.69m-1.24-4.54c1.35.23,1.76-1.52,1.76-1.52a1.4,1.4,0,0,0-1.76,1.52m7.75-17.94c1.1,2.81,1.63,1.74,4.33.1s.72.39,2.47,1,1.14-1.65,3.21-1.25,2.24-1.53,1.64-2.85-2.19-1.11-3.31-1.31,1.08-1.54-.2-2.34-.51-2.9-1.53-3.83-3,.33-3,.33a6.63,6.63,0,0,0,2,4.72,6.21,6.21,0,0,1-2.48-2.25c-.62-1.34-2-3.68-2.56-1.24a7,7,0,0,0,.52,4.39c-.44-.6-1.45.42-1.78-2.84-.33-3.67-.19-4.1-2.14-4s-1.86,4.58-1.86,4.58-.4.44-.74-1.71.83-2.87,1.24-4,.34-3.26-1.75-2.25-1.63,2.85-2.15,2,2.36-4.88,2.36-5.61-.42-1.85-2.36.39-2.15,1.13-1.95.12,5.52-3.36,3.09-4.8-3.29,3.05-4,1.83,3.66-5.08,3.66-5.08a54.41,54.41,0,0,1,1.14-5.64c.72-2.61-1.14-3.46-2.79-3.46s-.93,5.19-.93,5.19l-.5-.1c.13-4.67-1.15-4.49-2.27-4.38s-2.89.51-.61,4.19,1.45,4.89.83,3.35-1.84-3.06-4-1.74,0,2.38,1.13,3.71,3.59,4.57,1.56,4.38-2.08.31-2.08,3,2.69.23,3.3,2.37c1.3,4.5,1.64,4,3,5.48,1.94,2.2,2,5.44,3.2,7.78s5.93.4,6.4,1.75m3.4-11.55-.2-1.32s-1.13-.12-1.13.74,1.33.58,1.33.58m-11.79-24.47.86-.24c.08-1-1.14-2-1.14-2a1.64,1.64,0,0,0,.28,2.28m-5,1a1.79,1.79,0,0,0,1.24-1.74c0-.82-2.26-.3-2.26-.3l-.24,1.93a1.7,1.7,0,0,0,1.26.11m-3,3.86-1.75-.18-.14,1.83s2.5.83,1.89-1.65M325.7,409s.54,1.35,1.25,1.35.27-1.74.27-1.74-1.32,0-1.52.39m80.23-17.55c2.88-.1,1.89-2.05,1.26-2.53s-5.66.79-5.66.79-.48,2.24,4.4,1.74m6.5-1.33c2.6-.79,2-2.63.41-2.55a8.25,8.25,0,0,0-2.65.63s-.31,2.72,2.24,1.92m4.65-1.61c2.07-.43,4.21-.83,3.92-1.95s-4.91-.32-5.28.31c0,0-.69,2.05,1.36,1.64m7.64-1.95c2.27-.4,1.95-1.22,1.95-1.22s0-1-2.57-.7-1.65,1.29-1.65,1.29,0,1,2.27.63m5.77-.63c1.42,0,1.76-.5,1.65-.92s-1.05-.78-1.87-.78a1.92,1.92,0,0,0-1.35.78s.14.92,1.57.92m5.88.31c1.52,0,1.65-.59,1.65-.59s-.13-1.14-1.65-.93-1.56.71-1.56.71,0,.81,1.56.81m4.75,1.25a6,6,0,0,1,1.88.59,1.08,1.08,0,0,0,.47-1.31c-.3-.84-3-.84-3-.84a1,1,0,0,0,.63,1.56m4.2,2.11c1.37,1.14,2.51.43,2.51-.27s-2.37-1.76-2.37-1.76c-1.45-.08-1.45.94-.14,2m3.57,3.18c1.07.42,1.71.5,1.93,0a1.7,1.7,0,0,0-2.46-1.95s-.65,1.55.53,1.95m1.71,1.64s-.32,1.64.54,2.23,2.17,0,1.84-.81-1.16-2.93-2.38-1.42m2.16,3.77a9.59,9.59,0,0,0-1.85,1.85c-.39.72.52,1.82,1.69,1.82s1.38-1.9.16-3.67m-3.2,7c-.19,1.53-.19,3.47.84,3.47a2.27,2.27,0,0,0,2.29-2.24c0-1.42.07-2.21.07-2.21s-3-.55-3.2,1m-1.63,3.18s-2.19.41-1.95,2,1.63,1.56,2,1.13,2.26-1.6-.09-3.14m-6.48,1.73a2.81,2.81,0,0,0,.4,2.44c.83.91,2.66,0,3.17-.51s.11-1.41-.91-2.33-2.66.4-2.66.4m-4.64-.72s-1.69,2-.84,3,3.9,1.52,4.24.59a2.86,2.86,0,0,0-3.4-3.57"/><path class="cls-4" d="M380.18,317S380,305.76,372,298s-1.7-7.16,3.49-8.57a6.15,6.15,0,0,1,4.7-5.31c3.32-.82,1.37-3.58,7.86-4.08,2.69-.22,3.87-1.62,4.94-1.62,3.27-.12,4,2.47,7.44,8.14,0,0,2.49,1.23,2.49,5.5,0,2.27,3.09-.18,2.28,6.56s-2.67,14.49-9.1,17.33-6.17,5.53-6.17,5.53,5.52-1.84,8.23-4.9,8.47-8.78,8.88-17.79c0,0-.21-3.85,3.5-1s5.34-.75,7.85,9.8c.81,3.47,2.47,1.47,3.7,12,.4,3.46,2.08,5.13.4,9.16a14.38,14.38,0,0,1-12.76,8.8c-6.62.22-7.2.83-7.2.83s-1.47,3.26,1,8,6.8,14.7,1.66,18.56-3.95,0-8.27,3.69-4.35-.81-8.23-.18-4,4.37-10.36,0c-4.1-2.9-8.64-2.67-3.05-7,2.87-2.21,9.26-8.76,7.21-18.56,0,0-.64,22.83-24.76,23.7-5.8.17-5.18-4.1-5.18-4.1a4.37,4.37,0,0,0-2.45-2.65c-2.06-1-.44-6.73-2.28-8.4s-4.95-3.84-1.22-7.94c0,0-3.33-4.9.4-5.7s12,5.5,24.33-2.45c0,0-15.55,5.07-25.57-.21-3.11-1.63-.59-3.28-2.26-6.54s-1-5.3,1-5.91c0,0-.6-2.25.41-2.88,0,0-4.73-6.32,2.31-9.78,2.43-1.24,3.67-.63,3.67-.63s-1-2.43.22-2.82c0,0-2.49-8,5.79-9.63,0,0,5.77-6.54,12.16,1.82s5.38,5.11,11.11,18.21"/><path class="cls-5" d="M390.48,322.8c-5.82,2.15-5.46,1.14-7.15-.67s-8.76-.9-8.49,3a32.22,32.22,0,0,1,18.37,7.76c4.13,3.69,7.41,2.47,7.41,2.47s4.32,3.47,17.14-2.88c2.87-1.42,0-1.62,0-1.62s3.28-3.06,2.87-4.9-7.68,9.38-20.62,8c-3.73-.4,4.53-1.22,7-2.05s10.73-4.07,12.37-8.78.22-3.87-2.69-1.45-8.24,6.77-12.37,6.55c0,0-1.9-.68.82-1.11s13.11-6.51,14.41-11.38c.84-2.91-.1-4.05-1.33-4.52a1.52,1.52,0,0,0-2.55-.09c-1.34,1.58-6.44,10.92-11.67,12,0,0-1.26-.45.9-1.24s10.47-10.79,10.35-12.47c0,0,.12-3.51-1.47-2.16s-3.63,16.54-23.22,18.38c0,0-1.24-.93.7-.93S410.33,322,413.8,302.2c.46-2.58-2.52-1.67-2.28-.09s-2.36,7.18-3.16,6.64,4.42-6.62,1.09-8.09c-1.21-.57-.88,1.45-1.33,3.34s-4.83,14.08-17.64,18.8m-8.72-8c-.28,3.49,2.72-2.25,2.46-5.06s.66-8.89.37-11.26c0,0,1-2,1.11,2.71s-.82,12.38-1.79,15,2.48-2.15,4-8.37c0,0,1.62-4.75-.64,4.75a19.48,19.48,0,0,1-2.65,5.18s-.52,2.72,3.19-1.92,4.63-10,5.49-9.77-1.72,8.33-6.95,13.6c0,0,0,2.15,2.3.13s6.75-10.35,6.75-10.35,1.26-1.62.83.89-3,5.4-3,5.4a7.29,7.29,0,0,0,3.16-1.8,17.11,17.11,0,0,0,6.38-10c1.49-6.07.1-10.82-.56-7.65s-2.34,15-4.22,13.71c-.81-.53,5-12.38,2.5-16,0,0,.14-7.19-2.41-4.95,0,0-.9-8.44-5.59-7.63s1,5.39-.2,8-1.55-8.91-6.81-7.1,3.65,9.47,2.25,16.21c0,0-1.21,2.61-1.33-1.57s-5.12-13.4-7.16-9.45c0,0-3.08,1-1.26,3.36s3.79,5.54,2.5,6.31-2.05-5.62-5.45-5.3-5,.47-2,3.38,9.07,14.61,8.78,19.59M371,332.61s.78-1.57-.91-.9-9.1,4.5-15.35-.91c0,0-.33-.78,2.05.68s9.12,1.88,12.73-1.46c1.9-1.81-3.29.23-7.74-1.81,0,0-1.58-1.24,1.16-.46s6.36,1.13,6.26-.22-7.26.05-11.16-3.59c-2-1.81,1,.34,3.43.67s8.12,2.81,9.66.44c1.23-1.91-5.6-3.47-9.14-8-2.68-3.49,8.22,6.07,9.43,6.07s1.16-1.11-5.08-7.65c-4.35-4.49,6,5.72,7.05,5.17s-1.82-7.41-9.21-14.18c0,0-.48-1.45,1.13-.67s7.85,7.56,9.58,13.62c0,0,3.63-2.59-4-13.62,0,0,5.69,3.38,5.69,14.4,0,0,0,.68.58.68s.89-2.69.43-5.63-7.62-18.62-17.17-18c-5.1.32,3.86,1.71,6.73,6,0,0,.56,1.57-.68.58s-7.86-7-11.38-2.94-1.49,3.93,2.28,6.18,2.5,2.15,1.79,2-5.83-3-6.39-1.36c-.87,2.82,2.32,3,3.23,4s-6.26-1.66-7.62-.09-3.52,2.71-1.74,8.11c1.15,3.36,9,4,11.72,6s-6-.16-9.76-2.89-2.74,1.36-1.81,1.59,3.76.66,3.76,1.68-3.76-2.25-5.5-.69,1.3,2.48,1.59,3.85-2.14,5.39,4.47,6.53,13.07,2,19.89-3.27M370.52,359c-.62-.46,3.39-3.81,4.62-4.88s2.48-4.46-.3-1.23-5.13,2.92-2.93,1.52,8.83-12.86,7.11-12.69-1.07,2.15-2.94,5.05-4,2-1.4,0,2.51-9,1.25-6.28c-1.7,3.74-10.09,8.58-10.09,7.66s7.6-5.21,8.51-7.19-1.51-.33-3.83,1.66-7.11,1.38-3.87.48,4.33-2.61,6.19-4.14,1.73-4.89-.64-2.61c-7,7-22.1,3.83-22.1,3.83-3.72-.72-3,2.76-.65,3.37,1.88.46,3.86.32,3.29,1.85-.89,2.13-6.82-3.68-5.14,2.27s12.71.93,10.7,2.93-7.45-.33-7.93,1.38-.6,1.83,1,5.32,12.69-1.18,11.89-.13-6.47,2.14-6.47,2.14-5.72,1.36-2.18,1.36c6.81,0,7.6.47,4.34.8s-4.64.6-3.56,2.12,3.56,1.55,3.56,1.55c18.71-1.55,20.57-16.54,20.57-16.54-1.08,4.43-8.34,10.86-9,10.4m31.56-11.16c-3.1-6.59-3.41-4.61-7-9.19-1.93-2.55-19.64-11-21.05-8.73,0,0-.94,2.44,0,3.66s2.66,2.91,2.17,4.16,2.78-2.6,5.56.91,6.66,8.31.45,19.16c-2.59,4.58-10.34,5.32-5.06,7.33s8.18-6.89,9.74-9.81-.62,4.46-1.87,6.31-1.41,3.65-3.58,5-.13,3.08,2.33,1.88a10.06,10.06,0,0,0,5.44-7.39s.75-1.35.45,4.45,6.65-9.63,0-21.59c0,0,2.15,12.12,0,14.25s1.55-8.41-2.77-15.9c0,0,.92,0,.6-2,0,0,6.85,1.51,6.19,23.12,0,0-2.79,4.28.61,4.28s2.47-3.67,2.47-4.14-.61-14.08-1.85-16.06c0,0,.92-1.54,1.74,3.82s1.83,7.82,1.21,10.29.92,4.26,1.69,2.89,3.88-14.69-11-26.66l.64-.58s12.83,6.71,12.66,26.64c0,0,.48.74,1.87-.17s1.87-2.62,1.07-5.66.9-2.43-2.77-10.26m57.55,14.07c-.94-1.82-6.94-3.05-6.94-3.05l1.66-1.56s2.81,1.7,3.25-.9-4-2.9-4.62-1.07a2.08,2.08,0,0,1-2.31,1.53,3.22,3.22,0,0,0,.15-1.84c-.4-3.25-4.64-1-2.92,1.25s.92,2.9.92,2.9,0,.78-1.11-.63-4.17-.29-3.7,1.41,3.41.89,3.41.89c-.33,1.55-5.88.94-5.88.94s-.34-.94,1.24-2.61.64-3.36-.75-2.77-2.68,5.24-2.68,5.24L437.2,361a9.16,9.16,0,0,1,2.33-2.61c1.09-.59,1.67-2.76,0-3.07s-4,4.9-4,4.9l-2-.58,1.1-1.84c.6-1.08,2.92-2.17,2.62-3.4s-2.78-.43-3.42,1.23a8.27,8.27,0,0,1-2.31,3.06s-2.33-.6-2-1.66,4.3-2.63,3.08-4.15-2.17.32-2.79,1.52a8.71,8.71,0,0,1-2.49,2.45s-3.55-.9-2-1.67,5.12-2.3,4.5-3.84-2.64-.46-3.87,1.39a4,4,0,0,1-3.08,1.82c-2.19-.44-16-11.46-18.11-14.38s-4-1.53-4-1.53-2.95-.6-9.43-5.82a35.16,35.16,0,0,0-15.32-6.74c-1.09-.15-3.21-.88-3.56.79-.31,1.35,1.86,1.19,1.86,1.19,2.65.32,23.19,7.2,28.61,15.31s17.79,14.87,17.79,14.87l.17,3.53s-1.24,5,1.68,4.61.34-4.48.34-4.48l-.34-2.45,2.32,1.68c0,4.59,1.1,7.1,3.14,6.31s0-2.92-.66-3.86a2.34,2.34,0,0,1,0-2.12l3,1.66c-.32,4.76.59,5.83,2.49,5.67s.46-2.58-.18-3.07-.31-2-.31-2l2.46,1.06c-.49,2.91.94,6.89,3,5.83s-.77-3.54-.77-3.54l-.17-1.38,2.15.17s.47,5.51,2.49,5.35,2.05-3,1.09-3.52-.32-1.08-.32-1.08c7,0,9.29-1.67,9.29-1.67.45,5.24,2,4.3,3.26,3.26s-1.38-4.48-1.71-6.17,2.48-.43,4,1.52,3.55.17,2.62-1.68"/><path class="cls-4" d="M328,178l35.85,9.17L367.2,185l5,2.35,3.71-1.75,4.31,1.56L385,186l1.13,2.15,11.43,2,162.83-17v-1.36l-9.85-10.13,10.66-1.95v-1.38l-9.06-6.61,9.62-2.74v-1.15L548.16,141l12.39-3.9.63-1.16-14.4-5.85,8.69-2.92.16-1.17-11.2-4.68v-1.56l-16.59-4.28v-1.57L499,109.63l-75.23,30.21s-7.57-1-13.2,1.36a33,33,0,0,1-12,2.14l78.17-30.59s3.93-1,2.17-6.46-9.26-23.54-9.26-23.54-1.78-5.28-7.64-3.32c-8,2.6-49.65,17.33-49.65,17.33l7.85-16.38-18.11,5.1V81.74l-5.89,1.79-2.37-1.79-1,.41L390.66,81l.17-1.38-2.56.2-2.35-1.94-2.17-.77.41-1,1.95-.41V73.57L384,73.16l1.75-4.27-2.18-1.16-.38-2-1-.56,1.18-3.73-141,7.6L219.93,92.67l9.66.78-9.28,9.35h10.43L219.15,118l11.41-1.58-9.05,15.8,8.47-.38-3.35,5.83,7.29-1.17L229.79,143H237l-4.47,6.82,7.25-1.17-3.92,7,7.67-.77-2.19,4.1,34.49-11.32,11.21,34.51s1,6,10.25,1.93S390,146.84,390,146.84s5.92,3.13,11.81,1.57Z"/><path class="cls-6" d="M335.24,177.75l81.05-33.47s2.66-2.2,9.37.27c4.86,1.79,3,4.41,9.15,3.13,4.86-1,.69-6.5-2.25-4,0,0-3.74-2.23-5.22-3l69.38-28.81c3.53-1.56,25,2.14,25,2.14v1.23l-159,70.12Z"/><path class="cls-6" d="M370.19,183.43l.55,1.55,3-.34L538.83,120.8l.07-1.13s-12.4-3.47-17.19-2.88Z"/><path class="cls-6" d="M378.11,184.3v1l2.69.23,169.45-59.38.24-1.11-8-3.36a7.84,7.84,0,0,0-3.06.43c-1.12.59-161.27,62.17-161.27,62.17"/><path class="cls-6" d="M387.4,185l.81,1.8,3.85.1,164.06-51-.08-.79-11.69-4.22s-.76-.46-3.62.32S387.4,185,387.4,185"/><path class="cls-6" d="M399.39,186.1l1.6.68,155.82-39V147l-11.12-5.5s-.79-.35-3.13.22S399.39,186.1,399.39,186.1"/><polygon class="cls-6" points="421.79 183.08 549 151.49 556.59 157.76 425.66 183.2 421.79 183.08"/><polygon class="cls-6" points="421.68 184.87 421.46 185.99 557.16 170.86 556.92 170.09 548.43 161.59 421.68 184.87"/><polygon class="cls-7" points="550.52 161.66 549.56 160.7 561.18 158.33 561.18 159.71 550.52 161.66"/><polygon class="cls-7" points="560.37 171.79 428.79 186.65 560.37 173.15 560.37 171.79"/><polygon class="cls-7" points="552.12 151.72 551.16 150.83 561.74 147.83 561.74 148.98 552.12 151.72"/><polygon class="cls-7" points="546.62 140.18 548.16 141 560.55 137.1 561.18 135.94 546.62 140.18"/><polygon class="cls-7" points="546.78 130.09 555.47 127.17 555.63 126 544.9 129.53 546.78 130.09"/><polygon class="cls-7" points="544.43 121.31 542.63 120.6 544.43 119.76 544.43 121.31"/><path class="cls-6" d="M435.87,145.07a1.4,1.4,0,0,1-1.41,1.41,1.43,1.43,0,0,1-1.43-1.41,1.4,1.4,0,0,1,1.43-1.4,1.37,1.37,0,0,1,1.41,1.4"/><path class="cls-6" d="M392.75,145.88a6.46,6.46,0,0,1,4.86-1.85c3.26,0,8.14,0,10.82-1.18s11.73-3.85,17.77-1.29,6.49,4.21,5.9,4.92-5.09-4.09-9.47-4a35.86,35.86,0,0,0-14.27,3c-5.79,2.44-16.44,2.24-15.61.34"/><polygon class="cls-6" points="231.69 91 225.06 91 244.46 71.81 379.82 63.84 380.18 65.28 241.98 78.54 231.69 91"/><polygon class="cls-6" points="225.48 100.8 243.44 79.76 381.45 66.51 381.25 67.42 379.18 68.33 383.21 68.33 383.01 69.97 376.45 70.78 376.07 72.2 240.56 91 232.3 100.59 225.48 100.8"/><polygon class="cls-6" points="223.82 115.48 242.19 92.62 382.25 72.62 382.25 73.38 381.06 73.7 381.06 74.23 383.54 74.33 383.54 75.36 236.2 106.92 231.69 114.26 223.82 115.48"/><polygon class="cls-6" points="225.28 129.75 237.67 108.36 382.49 77.09 382.67 78.74 240.98 114.66 231.69 129.38 225.28 129.75"/><polygon class="cls-6" points="230.24 135.29 241.65 116.25 385.79 79.15 385.56 80.78 244.04 119.16 234.37 135.08 230.24 135.29"/><polygon class="cls-6" points="232.71 141.19 245.1 120.39 389.08 81.39 389.08 82.6 249.25 123.25 237.88 141.19 232.71 141.19"/><polygon class="cls-6" points="236.03 147.53 250.24 124.44 391.55 83.44 391.98 84.67 253.56 126.1 240.98 146.73 236.03 147.53"/><polygon class="cls-6" points="238.91 153.66 254.38 127.74 400.42 83.65 400.42 85.89 255.39 130.21 244.68 153.04 238.91 153.66"/><path class="cls-6" d="M283.88,142c-7.94,2.35-5.56,7.55-5.56,7.55s8.41,25.95,10.51,30.83,5.56,2.46,5.56,2.46,177.42-70.43,180.46-71.56a3.53,3.53,0,0,0,2.17-4.6s-5.29-14.88-7.57-21.36-7.67-4-7.67-4l-86.85,29.94c5,6.87,4.62,12.19,4.62,12.19a5.59,5.59,0,0,1,1,3.49c-.15,1.85-3.9,3.17-4.95,1s.62-2.77.62-2.77c.62-1-.08-5.54-.69-6.88a20.19,20.19,0,0,0-5.31-6.08Z"/><path class="cls-6" d="M245.39,155.48l11.45-24.06L416.71,82.6l-6.18,14.5-37.11,12.76a14.91,14.91,0,0,0-11.75-3.38c-6.81,1.13-12.84,5.84-18.08,6.89s-7.27.4-8.13-.54-5-.6-4.72,2,2.06,2.45,4.12,2.25a21.76,21.76,0,0,0,13.36-1.56c7-3.15,11.43-6.23,17-5.4a8.89,8.89,0,0,1,3,1l-.56.87L283,140.6s-4.85.93-6.88,4.9Z"/><path class="cls-4" d="M290.5,153.23l7.91,18.65,2.09-.81-7.92-18.65Zm12.91,13.82-6.83-16.15-2.12.82,7.89,18.64,7.2-2.74-1.06-2.5Zm7.37-21.6,3.56,14.69,0,0-8.19-12.93-3.24,1.26,7.85,18.64,2-.75-6.56-15.52h0l9.22,14.48,1.79-.68-3.9-16.53v0l6.58,15.52,2-.77L314,144.23ZM324,140.34l-2.1.83,5.68,13.38c1,2.35.76,3.64-.46,4.11s-2.41-.31-3.37-2.65l-5.67-13.37-2.12.79,5.59,13.15c1.8,4.29,4,5.32,6.51,4.34s3.36-3.11,1.48-7.42Zm11.25-4.5-4,1.53,7.22,18.78,2.07-.75-3-7.79,1.78-.66c2.37-.91,2.85-3.61,1.59-7s-3.18-5.09-5.64-4.15m2.84,9-1.44.52-2.52-6.49,1.29-.48c1.61-.62,2.67.4,3.43,2.42.91,2.38.31,3.59-.76,4m9.62-13.72-2,.78,5.18,13.46c.92,2.37.69,3.68-.47,4.12s-2.34-.33-3.23-2.71l-5.18-13.45L340,134l5.09,13.26c1.71,4.33,3.75,5.35,6.23,4.42s3.26-3,1.55-7.38ZM355.9,128l5.38,14v0l-9.09-12.62-2.45,1L357,149.15l1.93-.71L353.31,134h.05l9.22,13,2.48-.95-7.28-18.78Zm16.45,7.56-2,.75.13.33c.68,1.73,1.55,4.6-.13,5.22-1.49.57-2.76-.68-5.09-6.73s-2.23-7.69-.69-8.26c1.39-.61,2.52,1.24,3.19,3l.15.32,2-.77-.12-.34c-.77-2-2.51-5.82-6.13-4.44-3.2,1.21-3,4.63-.44,11.36s4.79,9.38,8,8.19c3-1.15,2.6-4.81,1.3-8.23Zm2.52-14.8,2.91,7.53-3.71,1.43-2.91-7.52-2,.78,7.25,18.77,2-.77L375,132.27l3.75-1.42,3.37,8.72,2.06-.77L376.92,120Zm6.33-2.54,3.64,20.17,2.12-.8-1-4.93,3.71-1.42,2.56,4.32,2.12-.81-10.6-17.53Zm4.25,11.91-2.07-9.82,0,0,5,8.7Zm13.94-18.44-2.14.84-.72,9.65,0,0-3-8.21-2,.75,7,18.84,2-.75-2.29-6.1.22-2.81,6.19,7.31,2.27-.85L398.79,121Zm9.22,15.11-2.24-6,4.44-1.7-.93-2.54-4.45,1.73-2-5.22,4.74-1.82-.95-2.54-6.75,2.58,7.07,18.82,6.85-2.64L413.5,125Zm7.8-21.61,3,14.8h0L412,106.91l-3.07,1.18,7,18.83,1.91-.73L412,110.54l0,0,8.42,14.73,1.65-.65L418.73,108h0l5.87,15.66,1.9-.72-7.08-18.85Zm7.49-2.85,3.46,20.19,2.12-.79-.94-4.93,3.66-1.4,2.48,4.33,2.08-.79-10.31-17.58Zm4.1,11.92-2-9.84h0l4.92,8.73Zm8.37-16.67-2,.75,4.91,13.19c.72,1.89,1.41,3.74.05,4.23-1.09.42-1.78-.79-2.37-2.33l-.34-.92-1.9.72.46,1.23c1,2.46,2.42,4.54,5,3.6,2-.73,2.82-2.73,1.26-6.85ZM445.81,94l-2,.78,5.06,13.5c.87,2.35.63,3.67-.53,4.1s-2.23-.36-3.14-2.7l-5-13.51-2,.76,4.93,13.25c1.64,4.37,3.69,5.39,6.06,4.48s3.2-3,1.58-7.38Zm4.27-1.6,3.5,20.16,2.07-.8-.89-4.92,3.64-1.38,2.49,4.3,2.06-.8L452.67,91.37Zm4.12,11.9-2-9.86h0l4.89,8.74Zm15.15,2.23,2.46-.94-7.06-18.82-1.86.72,5.23,14h0l-8.86-12.65-2.43.93,7,18.83,1.88-.7-5.34-14.42h0Z"/><path class="cls-6" d="M377.34,125.61s-.61-.33-.61.07c0,1.54,0,2.24,1.82,1.24s.22-1.83.22-1.83c-.82-12.86-6.59-15.52-11.89-17.35-4.92-1.75-13.9,2.56-18.12,5s-10.51,2.45-12.29,1.83-2.44.4-2.44.4c-.4.91.6,2,5.15,2s12.47-4.2,15.26-5.2,8.56-4.61,14.43-1.65,9.18,9.92,8.47,15.43"/></svg>