<svg id="Layer_1" data-name="Layer 1" xmlns="http://www.w3.org/2000/svg" viewBox="0 0 841.89 595.28"><defs><style>.cls-1{fill:#233e99;}.cls-2{fill:#ee3524;}.cls-3{fill:#bc9633;}.cls-4{fill:#231f20;}.cls-5{fill:#fff200;}.cls-6{fill:#6e6f71;}</style></defs><title>logo_um_bm</title><path class="cls-1" d="M410.81,280.51h-19L389.51,286a12.83,12.83,0,0,0-1.11,4.56,3.85,3.85,0,0,0,1.83,3.52c.71.44,2.47.78,5.28,1v1.55H377.59v-1.55a7.87,7.87,0,0,0,4.77-2.53q1.86-2.07,4.61-8.56l19.27-45.29H407l19.43,46.55q2.77,6.61,4.57,8.33a6.08,6.08,0,0,0,3.81,1.5v1.55H408.74v-1.55h1.08c2.09,0,3.56-.3,4.41-.92a2.27,2.27,0,0,0,.87-1.92,5.32,5.32,0,0,0-.24-1.55c-.05-.25-.45-1.3-1.19-3.14Zm-1.35-3.09-8-19.55-8.26,19.55Z"/><path class="cls-1" d="M513.8,276.75l-2,19.92H463.93v-1.55h1.79a7.08,7.08,0,0,0,3.77-.88,3.75,3.75,0,0,0,1.59-2,18.09,18.09,0,0,0,.44-5.27V249.63a19.69,19.69,0,0,0-.44-5.45,4.08,4.08,0,0,0-1.77-1.9,6.86,6.86,0,0,0-3.59-.82h-1.79v-1.54h28.73v1.54h-2.35a7.18,7.18,0,0,0-3.77.88,4,4,0,0,0-1.63,2,18.17,18.17,0,0,0-.44,5.28v36.16a19.08,19.08,0,0,0,.48,5.54,3.22,3.22,0,0,0,1.87,1.78,17.9,17.9,0,0,0,4.8.38h4.49a14.59,14.59,0,0,0,7.16-1.59,13.67,13.67,0,0,0,4.94-5,42.23,42.23,0,0,0,4-10.13Z"/><path class="cls-1" d="M577.25,280.51h-19L556,286a12.67,12.67,0,0,0-1.12,4.56,3.85,3.85,0,0,0,1.83,3.52c.72.44,2.48.78,5.29,1v1.55H544v-1.55a7.82,7.82,0,0,0,4.76-2.53q1.88-2.07,4.61-8.56l19.28-45.29h.75l19.43,46.55q2.77,6.61,4.57,8.33a6.09,6.09,0,0,0,3.82,1.5v1.55H575.18v-1.55h1.07c2.09,0,3.56-.3,4.41-.92a2.26,2.26,0,0,0,.88-1.92,5.32,5.32,0,0,0-.24-1.55c0-.25-.45-1.3-1.19-3.14Zm-1.36-3.09-8-19.55-8.27,19.55Z"/><path class="cls-1" d="M679.24,239.92v1.54a7.65,7.65,0,0,0-4.09,1.64q-2,1.76-6.28,9.58l-11.69,20.55V287a19.58,19.58,0,0,0,.44,5.46,4.22,4.22,0,0,0,1.73,1.89,6.42,6.42,0,0,0,3.44.81h3v1.55H635.57v-1.55h2.82a6.94,6.94,0,0,0,3.77-.88,3.9,3.9,0,0,0,1.63-2,18.09,18.09,0,0,0,.44-5.27V275.58l-12.68-24.32q-3.76-7.2-5.32-8.48a6.48,6.48,0,0,0-4.13-1.32v-1.54h25.83v1.54h-1.16a5.52,5.52,0,0,0-3.27.72,1.93,1.93,0,0,0-.94,1.5c0,1,1.06,3.53,3.18,7.58l9.74,18.79,9.69-17.12q3.62-6.27,3.62-8.33a2.26,2.26,0,0,0-1-1.88q-1.35-1-5-1.26v-1.54Z"/><path class="cls-1" d="M733.23,280.51h-19L711.93,286a12.83,12.83,0,0,0-1.11,4.56,3.85,3.85,0,0,0,1.83,3.52c.71.44,2.47.78,5.28,1v1.55H700v-1.55a7.87,7.87,0,0,0,4.77-2.53q1.86-2.07,4.61-8.56l19.27-45.29h.75l19.44,46.55q2.77,6.61,4.56,8.33a6.13,6.13,0,0,0,3.82,1.5v1.55H731.16v-1.55h1.08c2.09,0,3.56-.3,4.41-.92a2.27,2.27,0,0,0,.87-1.92,5.32,5.32,0,0,0-.24-1.55c0-.25-.45-1.3-1.19-3.14Zm-1.35-3.09-8-19.55-8.26,19.55Z"/><path class="cls-1" d="M354.5,163.41l26.58,35.2v-24.4c0-3.4-.47-5.7-1.39-6.9q-1.92-2.43-6.4-2.35v-1.55h17.8V165a13.28,13.28,0,0,0-4.59,1.19,4.81,4.81,0,0,0-1.83,2.39,17,17,0,0,0-.65,5.67v47.26h-1.36l-36.42-47.26v36.08c0,3.27.71,5.47,2.13,6.62a7.53,7.53,0,0,0,4.86,1.71h1.27v1.55H335.4v-1.55c3,0,5-.67,6.19-1.92s1.75-3.39,1.75-6.41v-40l-1.15-1.51a10.52,10.52,0,0,0-3-3,8.64,8.64,0,0,0-3.77-.8v-1.55Z"/><path class="cls-1" d="M422.78,218.62v1.55H394.62v-1.55h1.79a7.08,7.08,0,0,0,3.77-.88,3.75,3.75,0,0,0,1.59-2,18.09,18.09,0,0,0,.44-5.27V173.12a19.65,19.65,0,0,0-.44-5.44,4.08,4.08,0,0,0-1.77-1.9,6.74,6.74,0,0,0-3.59-.82h-1.79v-1.55h28.16V165H421a7.12,7.12,0,0,0-3.78.88,4,4,0,0,0-1.63,2,18.28,18.28,0,0,0-.43,5.27v37.34a19,19,0,0,0,.45,5.44,4.26,4.26,0,0,0,1.79,1.91,6.91,6.91,0,0,0,3.6.81Z"/><path class="cls-1" d="M482.56,163.41V165a8.67,8.67,0,0,0-5.24,3.31q-1.67,2.08-5,9.83L453.8,221.47h-1.31L434,176.35q-3.33-8.16-4.47-9.59t-4.26-1.8v-1.55H451.1V165h-.87c-2.33,0-3.92.31-4.77.92a2.1,2.1,0,0,0-.91,1.84,6.16,6.16,0,0,0,.32,1.78c.21.69.92,2.52,2.14,5.51l11.48,28.25,10.65-25.16c1.27-3,2.05-5.07,2.34-6.11a10,10,0,0,0,.44-2.63,3.82,3.82,0,0,0-2.51-3.69,12,12,0,0,0-4.52-.71v-1.55Z"/><path class="cls-1" d="M505.56,166.68v23.1h1.07c3.42,0,5.89-1.13,7.43-3.39s2.52-5.59,2.94-10h1.51v29.72H517a23.28,23.28,0,0,0-2-8,9,9,0,0,0-3.55-4.16,12.93,12.93,0,0,0-5.88-1.07v16a23.77,23.77,0,0,0,.38,5.74,3.38,3.38,0,0,0,1.41,1.71,6.29,6.29,0,0,0,3.33.67h3.22q7.54,0,12.1-3.68t6.53-11.22H534l-2.42,18H485v-1.55h1.79a7.08,7.08,0,0,0,3.77-.88,3.75,3.75,0,0,0,1.59-2,18.09,18.09,0,0,0,.44-5.27V173.12a31.72,31.72,0,0,0-.2-4.73,4,4,0,0,0-1.47-2.26,6.56,6.56,0,0,0-4.13-1.17H485v-1.55h45.09V180.2H528.6q-1.15-6.15-3.24-8.83a12,12,0,0,0-5.9-3.94q-2.22-.75-8.34-.75Z"/><path class="cls-1" d="M559.26,194.3v15.91q0,4.6.54,5.8a4,4,0,0,0,1.88,1.9,12.24,12.24,0,0,0,5.05.71v1.55H539.16v-1.55c2.49,0,4.18-.24,5.07-.73a4.13,4.13,0,0,0,1.86-1.91q.54-1.17.54-5.77V173.38c0-3.07-.18-5-.54-5.8a4,4,0,0,0-1.88-1.91,12.21,12.21,0,0,0-5.05-.71v-1.55h25q9.76,0,14.3,1.43a14.41,14.41,0,0,1,7.38,5.25,14.57,14.57,0,0,1,2.86,9,13.76,13.76,0,0,1-4.29,10.38,17.29,17.29,0,0,1-7.66,3.89l13,19.21a28.91,28.91,0,0,0,3.61,4.65,6.53,6.53,0,0,0,3.77,1.42v1.55h-17L562.8,194.3Zm0-27.83v24.86h2.27a23.89,23.89,0,0,0,8.26-1.07,8.37,8.37,0,0,0,4.31-3.85,14.75,14.75,0,0,0,1.57-7.26q0-6.48-2.88-9.58t-9.28-3.1Z"/><path class="cls-1" d="M634.61,162.12l.44,18.91h-1.63a19.76,19.76,0,0,0-5.66-11.44q-4.51-4.34-9.75-4.34a8.88,8.88,0,0,0-6.42,2.29,7.11,7.11,0,0,0-2.36,5.25,6.74,6.74,0,0,0,.83,3.35,13.86,13.86,0,0,0,3.7,3.89,81.65,81.65,0,0,0,8.62,4.9q9.45,4.89,12.75,9.25a16.18,16.18,0,0,1,3.25,10,16.49,16.49,0,0,1-5.26,12.24,18.36,18.36,0,0,1-13.37,5.13A20.64,20.64,0,0,1,615,221a35.46,35.46,0,0,1-5.68-2.06,8.37,8.37,0,0,0-3.14-.83,3.78,3.78,0,0,0-2.18.83,5.83,5.83,0,0,0-1.87,2.56h-1.47V200h1.47q1.74,9,6.73,13.79t10.75,4.75a9.8,9.8,0,0,0,7.09-2.55,8,8,0,0,0,2.64-5.95,8.18,8.18,0,0,0-1-3.89,12.31,12.31,0,0,0-3.08-3.58,46.24,46.24,0,0,0-7.31-4.41,63.19,63.19,0,0,1-10.57-6.49,19.67,19.67,0,0,1-4.94-6,15.49,15.49,0,0,1-1.73-7.28,15.77,15.77,0,0,1,4.73-11.55,16.07,16.07,0,0,1,11.91-4.77,19.22,19.22,0,0,1,5.09.67,23.94,23.94,0,0,1,4.54,1.86,10.28,10.28,0,0,0,3.76,1.36,2.06,2.06,0,0,0,1.63-.67,8.21,8.21,0,0,0,1.11-3.22Z"/><path class="cls-1" d="M671.43,218.62v1.55H643.27v-1.55h1.79a7.08,7.08,0,0,0,3.77-.88,3.75,3.75,0,0,0,1.59-2,18.09,18.09,0,0,0,.44-5.27V173.12a19.65,19.65,0,0,0-.44-5.44,4.08,4.08,0,0,0-1.77-1.9,6.77,6.77,0,0,0-3.59-.82h-1.79v-1.55h28.16V165h-1.79a7.08,7.08,0,0,0-3.77.88,4,4,0,0,0-1.63,2,18.13,18.13,0,0,0-.44,5.27v37.34a18.9,18.9,0,0,0,.46,5.44,4.26,4.26,0,0,0,1.79,1.91,6.87,6.87,0,0,0,3.59.81Z"/><path class="cls-1" d="M724.62,163.41v15.36h-1.43a25,25,0,0,0-2.82-7.63,11.07,11.07,0,0,0-4.25-3.71,13.06,13.06,0,0,0-5.29-.75h-4v43.78c0,2.9.15,4.72.46,5.44a4.21,4.21,0,0,0,1.79,1.91,6.93,6.93,0,0,0,3.63.81h1.79v1.55h-28.2v-1.55h1.78a7.12,7.12,0,0,0,3.78-.88,4,4,0,0,0,1.63-2,18.23,18.23,0,0,0,.43-5.27V166.68H690q-5.44,0-7.9,2.43-3.47,3.39-4.37,9.66h-1.51V163.41Z"/><path class="cls-1" d="M757.35,218.62v1.55H729.18v-1.55H731a7.15,7.15,0,0,0,3.78-.88,3.79,3.79,0,0,0,1.58-2c.3-.67.44-2.42.44-5.27V173.12a19.24,19.24,0,0,0-.44-5.44,4.11,4.11,0,0,0-1.76-1.9A6.81,6.81,0,0,0,731,165h-1.79v-1.55h28.17V165h-1.79a7.08,7.08,0,0,0-3.77.88,3.9,3.9,0,0,0-1.63,2,18.13,18.13,0,0,0-.44,5.27v37.34c0,2.9.15,4.72.46,5.44a4.23,4.23,0,0,0,1.78,1.91,6.91,6.91,0,0,0,3.6.81Z"/><path class="cls-1" d="M312.48,163.44h18.65V165l-1.37,0s-4.51-.26-5.69,4a20.46,20.46,0,0,0-.56,4.16l.06,8.38v13l-.13,5.22a49,49,0,0,1-.62,7.62,14.6,14.6,0,0,1-5.53,9.44,17.17,17.17,0,0,1-9.5,4.44,34.87,34.87,0,0,1-11.38-.29,22.63,22.63,0,0,1-3.56-1,14.32,14.32,0,0,1-3.94-2.4c-3.47-3-3.78-4-4.53-5.6a27.5,27.5,0,0,1-1.75-8.81c0-.94-.06-5.4-.06-5.4l0-6,0-8.63,13.05-5.59-.05,10.19v9.13a101.62,101.62,0,0,0,.27,10.76c.17,2,.74,4.39,1.47,5.34a10.29,10.29,0,0,0,5.72,4,15.15,15.15,0,0,0,8.22-.28c2.79-1,8-3.66,8.75-13.35.22-2.82.31-7.3.28-8.84s-.16-21.87-.16-21.87a11.42,11.42,0,0,0-.56-3.91,4.91,4.91,0,0,0-3.41-3.22,29.74,29.74,0,0,0-3.68-.47Z"/><path class="cls-2" d="M282.62,182.32l13-5.63s0-5.34.12-6.6a9.9,9.9,0,0,1,.41-2.61,4.35,4.35,0,0,1,1.23-1.59c1.32-1,3.84-1,4.33-1,.72,0,1.8,0,1.8,0v-1.62l-27.88.08V165h1.94s4.44-.17,4.85,3.76a26.79,26.79,0,0,1,.16,4.3Z"/><path class="cls-2" d="M275.52,239.91h22l4.57,11.34-10.56,7.49-5.47-13.24,0,17.08-3,2,0-15.92a17.4,17.4,0,0,0-.47-4.49c-1.56-3.6-7.06-2.73-7.08-2.84S275.52,239.91,275.52,239.91Z"/><path class="cls-1" d="M291.8,259.35l10.57-7.44,10.29,25.38,14.68-37.41,21.91,0,0,1.56h-2.14s-2.87.07-4.06,1.33a4.75,4.75,0,0,0-1.28,3.17c0,.2-.12,4.18-.12,4.18l0,38.54a30.2,30.2,0,0,0,.37,3.63c1.16,3.13,5.94,2.92,5.94,2.92h1.27l0,1.47H321.08v-1.47l2.08,0s3,.14,4.36-1.69c.62-.85.91-1,1.05-3.43.12-1.87.09-3.13.11-3.26s0-5.9,0-5.9l0-36L308,296.68l-1,0Z"/><path class="cls-1" d="M283.08,265.41l3-2,0,25.22s-.27,3.94,3,5.64a13.27,13.27,0,0,0,4.8.94v1.44l-18.41.06,0-1.5s4.23.17,6.08-2.25a7.36,7.36,0,0,0,1.36-3.22l.12-3.09Z"/><path class="cls-3" d="M87.67,163.44H258.54v74.24s4,89.7-85.33,139c0,0-85.54-42.95-85.54-144Z"/><path class="cls-1" d="M91.29,234.09H255s5.85,89.42-81.71,138.56c0,0-81.71-40.59-82-138.56"/><rect class="cls-1" x="91.29" y="166.89" width="163.98" height="63.9"/><path class="cls-4" d="M116.06,261.81l-3.1,1a2.33,2.33,0,0,1-.46-.78c-.07-.33-2,1.1-2.59.71s.33-.9-2.43-1.23c-2.18-.27-.13-1.12-1.44-3.27s-1.86-1.65-1.94-2.09.14-1.25-1.12-1.57-.4-.92-.92-1.51-1-1.24.2-1.3,1.59-.13,1.59-.13a17.74,17.74,0,0,0-2.21-2.25c-.5-.34,0-.83,0-1.24s-.52-1.67.18-1.75a2.41,2.41,0,0,1,1.45.48,3.45,3.45,0,0,1,0-1.27,3.53,3.53,0,0,0-.15-1.68c-.07-.3,1.61-.27,2.33.6.55.64.46-1.61,1.3-1.49.5.18.46,1.07,1.14,2.17s.59.36.34,2.32-.73,3,0,4.59.57,3,1,3.26,1.52-.75,1.47-1.69.57.71.54,1.3.75-.33.59-1.3.46-.86.1-1.15-1.1.26-1.1-.65.63-2.76-.42-2.68c-.57,0,1-1.8,1.17-2.55s-.38-.63-.88-.41.8-1.3,1.89-2.1A9.25,9.25,0,0,0,115,242c.37-.63-1.59-.88.15-2.2,1-.75,1.09-.3,2-.19s1.23-1.56,1.35-1.86,1,.4,1.44,1.07,1.11.61,1.93.71,1.43,1.2,2.34,1.54,1.48-.66,2.45,1.12c.27.48-.46.93-.46.93a1,1,0,0,0-.45,1,2.16,2.16,0,0,1-.18,1l4-.11a1.94,1.94,0,0,1-1.24,2,6.66,6.66,0,0,1-4,.48s.3,1.32,0,1.54-.53-.19-1.14-.09a5,5,0,0,0-1.53.6c-.23.2,0,1.24.89,1.28a101.58,101.58,0,0,0,16.6-1c7-1.2,6.91-.52,9.28.76s7.75,3.13,9.21-.42-1.39-7.36-6.38-7.62-9.63,1.57-11.78,2.12-3.57.66-4-.81c-.22-.72,2.27-1,3.62-1.24s6.72-2.13,12.09-1.87,8.77,2.39,9.37,7.07-3.21,7.69-9,7.13a10,10,0,0,1,1.92,2.47c.25.86-.46.89,0,1.31a4.56,4.56,0,0,1,1.06,1.87c.06.45,3,1.82,3.13,3.28.08.91-.72,1.16-.75,1.5s-.54.75-.39,1.34.95,1.5.95,2.07-.82.74-1.17,1.27a6,6,0,0,0-1.06,1.68A1.42,1.42,0,0,1,153.7,273a2.2,2.2,0,0,0-1.91.78c-.47.36-1.07.56-1.07-1.27a.75.75,0,0,0-.9.19c-.45.45-1.69.7-2.08-.23,0,0-1.56-.45-1.72,0a2.24,2.24,0,0,1,.7-2.14s.43-.29-.15-.7-.91-1.05-1.74-.89a2.45,2.45,0,0,1,2.12-1.21c1.39.08,1.61,1.05,2.56,1.13s1.51-.82,2-.89,0-.72.35-1.47-.8-.63-.64-1.27-.78-.14-1.38-.79-.25-.13-1.87-.59-3.06-.93-3.18-2.44a1.31,1.31,0,0,0-.79.68c-.22.53-.79,1.57-1.2,1.6s-1-.1-1,.42-.8.3-1.1.52.18.9-.65,1-1.08.14-1.08,1.12-.74.29-.88.67A2.4,2.4,0,0,0,138,269a3.64,3.64,0,0,1,.08,2.51,2.27,2.27,0,0,0-.76,1.27c-.08.59-.78.38-.78.38s-.85-1.5-1.48-1.54-1.55,1.27-2.46,1.23-1.17-.41-1.48-.07-1.27.67-1.58.41l-.05-.82-.88.15-.46-.71a5.23,5.23,0,0,0-1.55.56c-.47.34-.47-1.61.34-2.32a3,3,0,0,0-2.61-.56s1.23-2.84,4-2.54c2.07.22,1.24,1.27,3.08,1.27s2.55-.08,2.8-.4.08-1.17.08-1.17a4.61,4.61,0,0,1-.48-2c.07-.9-.5-.74-.27-2.16l-2.41.67c-1.47.4-1.47.4-1.75.82s-1.05.49-1.74.33-.76.16-.82.34-.69.56-1.77.08-.88.07-1.18.23-1.36-.46-1.36-.46-.8-.41-1.09.07-.5.68-1.41.79-.37.6-1.31.9-.91,1.45-.83,1.9.29,2.47-.15,2.85-1.29-.42-1.79-.65-.37.9-.64,1.47a2.65,2.65,0,0,1-1.85,1.23,2.85,2.85,0,0,0-1.55.41s-.53.11-.49-1.19c0,0,0-.49-.83-.08s-1.2.24-1.38-.23-1-.37-2.21,0c0,0-.06-1.72,1.1-2.17a4.14,4.14,0,0,0-1.65,0,4.38,4.38,0,0,0-.88.41,3,3,0,0,1,1.43-1.93c1.18-.61,1-1.13,2-1a4.76,4.76,0,0,0,3.06-.49c1-.59.8-.78,1.29-1.08s1.66-2.55,2.31-2.85a1,1,0,0,0,.49-1.07"/><path class="cls-2" d="M123.61,245.72s1.07.25,1.33,0a2.22,2.22,0,0,1,1.52-.38,7.7,7.7,0,0,0,2.77-.06c.34-.27.21,1.92-4.4,1.92-.75,0-.51-.86-1.39-1l-.06-.57Z"/><path class="cls-5" d="M119.4,239s0-.47-.64-.06a.9.9,0,0,0-.41,1.07c1.66.31,1.05-1,1.05-1m36.86,24.32a27.86,27.86,0,0,0-3.06-2.39s.46-1-.83-1.93c0,0,.4-.69-.57-1.37,0,0,1-.28-.4-2s-1.55-1.42-1.55-1.42l.1-.28s1.39.32,1.39-.46.51-1-2.18-1.56c0,0-.19,1.61-.66,1.61a7.2,7.2,0,0,0-.16-2c-.19-.36-1.47-.66-1.68-.66s.55,1.57.21,1.92a20.31,20.31,0,0,0-1.37-2.62c-.21-.31-1.79-.2-1.79-.2a19.14,19.14,0,0,1,1.07,2.57c0,.3-.26.1-.26.1s-1.27-2.57-2.24-2.83.14,2.22.14,2.79-.3.19-.3.19-.51-2.37-1.62-2.37c-.51,0,.95,2.32.6,3.13s-.61-3.38-2.85-2.83c-.4.1,0,.61.36,1.37s.66,1.92.3,2.47l-.3,0s-.27-3-1.44-3.52,0,1.52,0,1.52a5.89,5.89,0,0,1,.06,1.76l-.32.2s0-3.53-1.82-3.53c-1.18,0,.4,2.16.55,2.72s.06,2.22-.4,2.47c0,0,.25-2.37-.41-3.07s-1.19-2.25-2.76-1.92c-.7.14.73,2.43,1,3.43s.32,2.93-.09,3a16.74,16.74,0,0,0-.83-3.94c-.6-1.55-1-2.17-1.73-2.32s-.85.6-.36,1.57-.45,1.2.42,2.11a2.23,2.23,0,0,1,.56,2l-.38,0a3.76,3.76,0,0,0-.39-1.57,1.79,1.79,0,0,1-.5-1.62,2.62,2.62,0,0,0-1.68-2.22c-.87-.15.15.76.5,2.68s.56,5.35-.56,5.95c0,0,.88-3.89.15-6s-.45-2.57-1.27-2.53c-1,.08-.41,1.17-.41,1.72s.57,2.53.2,3.63c0,0-.3-2.11-.66-2.32s0-1.86-.1-2.32-.77-1.16-1.06-.71.09,1.27,0,1.93.15,1.5,0,1.76-.53.92,0,1.27.13,2-.28,2.06a2.58,2.58,0,0,0,0-1.67c-.37-.55-.77-.8-.31-1.61a2.56,2.56,0,0,0,.22-2.17c-.22-.86-.62-1.06-.52-1.46s-1-.46-1,.2a3.63,3.63,0,0,1-.65,2.06c-.31.16-.53.76-.53.76a2.77,2.77,0,0,1,.49-1.52c.44-.6.24-1.45-.37-1.41s-.82,1.52-2.45,1.46c0,0,2.33-1.41,2-2.36s-2.1,1.87-3.37,1.36c0,0,3.31-1.93,2.81-2.83-.36-.65-1.28-.05-1.28-.05a1.57,1.57,0,0,1-1.06.91,5.54,5.54,0,0,0,.92-1.27s0-.75-.73-.24-.45-.45-.8-.72-.93,0-1.07-.8a5.89,5.89,0,0,1-.16-1s.25.76.56.9,1,.1,1.06.65.28.91,1,.36.37.36.56.5.81.47,1.13-.14c.19-.41.18.44.72.29.9-.25,1.16-.79,1.41-.7s1.21.82.66-1.06c0,0-1-.26-1.42.15a1.8,1.8,0,0,1-1.94.15c-.56-.34-.25-1.61.71-1.92s1-.41,1.94-.15,2.19-.09,2.14-1.11-.75-1-.75-1l.09-.35s1.08.44,1.18-.31-.52-1.06-1.39-1c0,0,0,.5-.34.4s-.32-.4-.32-.4l-.56-.05a3.89,3.89,0,0,1-.66.66c-.24.14-.46.44-.81.35s.66-.46.08-.82-.7.47-.7.47a1.14,1.14,0,0,1,.46-.92c.46-.25.42-.25.77,0s.77.35.77-.16-.77-.9-1.32-.85-1-.15-1.13.39-.36.32-.36.32.11-.67-.31-.67a.84.84,0,0,0-.86.76,6.36,6.36,0,0,1,0,.81h-.27s.22-1.22-.19-1.26-2,0-2,0-.36-1.17-1.11-.52.18,1.48.4,1.65l.11.65-.56.41a5.79,5.79,0,0,0-1.77,1.15c-.46.59-1.4,1.61-1.4,1.61l1,.11s-1.31,1.65-1.63,2.24-.22.92.32.92a1.32,1.32,0,0,1,0,1.42,2,2,0,0,0-.2,1.17,1.23,1.23,0,0,0,1.09,0,1.52,1.52,0,0,1-.19,1.24,4.46,4.46,0,0,0-.1,2.71c.15.42.8.1,1.07-.13s.29,1.16.29,1.16,0,1.37.83,1.78a4.2,4.2,0,0,0,.5-1.48.78.78,0,0,1,.47-.72s.42,1.66,1.08,2c0,0-.28.32-.75-.23a.48.48,0,0,0-.88.32,2.34,2.34,0,0,0,.71,1.42,3.23,3.23,0,0,1,.68,1.29,1.85,1.85,0,0,0,1.25-1.65c0-1.29.84-3.55,1.4-3.86l.18.18a4.16,4.16,0,0,0-.83,2.58s.17.45.83,0a12.71,12.71,0,0,0,1.63-1.65s.09,1.14-2,2.28c0,0-.85.42-.79,1.11a3.76,3.76,0,0,0,1.54-.23,13.46,13.46,0,0,1,1.81-.41,4.29,4.29,0,0,1-2,1.14c-1.4.42-2.14.45-2.38,1.67a6.55,6.55,0,0,0,2.33,0c.8-.22,1.16-.36,1.16-.36a4.24,4.24,0,0,0-.88.64c-.28.33-2.25.1-2.75.24a1,1,0,0,0-.82,1.05l1.85.42-.33.22-2.27.11s-1.12.41-.52,1.19c.33.4,1.74.08,1.74.08s-.34.62-.77.65-2.44-.23-2.63.32.46.88,1.1,1.1a2.31,2.31,0,0,1-1.37.05,3.07,3.07,0,0,0-1.88.18c-.6.18-2.09-.45-2.64,0a.94.94,0,0,0,.1,1.52,6.32,6.32,0,0,0,3.24-.56,1.4,1.4,0,0,1-1.16.78c-.78,0-1.81-.13-1.81.6a1.32,1.32,0,0,0,.75,1.38,1.61,1.61,0,0,0,1.94-.7c.71-.86,1.08-.77,1.48-1.1s.88-.64.88-1a.78.78,0,0,1,0,.92c-.38.51-.86.42-1.26.87,0,0-1,.28-.8,1s.8-.08,1.12.23.7,1,1.57.24.56-2.21.7-2.85a1,1,0,0,0,1.17-.32c.5-.64.93.19.78-1.29s.47-2.25,1.23-2.25a1.49,1.49,0,0,0,1.28-1c.15-.33.85.31,1-.47s.47-1.1,1.07-.92.91,0,1.2-.6a3.34,3.34,0,0,1,1.63-1.47c.75-.42,1.25-.87,1.25-1.34l.22,0a1.94,1.94,0,0,1-1.1,1.8c-1.2.65-1.68,1.24-1.62,1.88a.6.6,0,0,0,.93.56c.32-.23.4-.83.6-.7s.32.92.84.47.4-.6.91-.25,2.06.38,2-.22-.46-.46-.43-.69.29-.23,1.12.23,2.29-.28,3.48-.87,3.18-1.39,4.23-2a8.51,8.51,0,0,1,3.31-1.06c.88,0,1.06-.77-.65-1.42a3.24,3.24,0,0,0-1.49-.05l.19-.33s1.8-.43,4.23,1.57C144,259.67,146,257,146,257s.37-.32.55-.22-1,1.51-1.25,1.74-1.68,1-1.15,1.47,2,1.07,3.7-2.85c0,0,.56-.56.15.74a5.85,5.85,0,0,1-2.18,2.8c-.31.21-.47,1.46,1.24,1.52,1.28.05,2-3.41,2-4.42s.27.22.15,1.34-1.25,3.59-.87,3.81,1.8.18,2.16-3.5c.13-1.38.43,1,.27,1.72s-.9,2-.08,2.11,1.58-1.38,1.58-1.85.75.47,0,1.34-.94,1.8.22,1.84a8.12,8.12,0,0,0,2.38-.32l-.05.46s-2,.13-2.18,1,1.38.52,1.86.7l0,.32s-1.75-.23-1.81.55.93.46,1.89,1.7L154,269a1.73,1.73,0,0,0-1.85-.64c-1.25.27-1.08,1-2,.87s-2-1-2.42-.87-.1.64-.43,1,0,.79,1,.55.82.18,1.52.24,1.08-.47,1.65-.24c0,0-.73.78-1.44.65s-1.73-.61-2.1-.23-.33.5.09.87-.17,1.33.62,1.33,1.39-.55,1.8-.55.52-1,1.54-1.42l1.54-.61a1.07,1.07,0,0,1-.61.79c-.51.19-1.57.5-1.31,1.05s1,.69,1.78.65,1-.32,1.24-1.06a4.12,4.12,0,0,1,1.49-2.06c.65-.42-.51-1.16-.51-2.07s1.41-3.09.6-3.92m-32.9-19.76c0-.29.21-.25.21-.25s.2.45.56.25.08.72-.16.87a4.82,4.82,0,0,1-1,.25s.16-.66-.25-.66.67-.15.67-.46m-4.88.25L120,244l.09.28a5.83,5.83,0,0,1-1.73,0c-.58-.15-.95-1.42-.95-1.42.61-.09,1.08.95,1.08.95m0,1.74c.09-.27.5-.27.5-.27l.11,1.14-.52-.08s-1.16-.63-1.16-1.27c0,0,1,.76,1.07.48m-4-.2.45-1,1-.19,0,.35s-1,.75-1.11,1.19l-.09.44-.45,0Zm-.81,7.55c-.3,0-.3-.48-.3-.48h.33s.28.48,0,.48m0-1.85-.08-2.5-.2-.48.36-.69.47-.21.1.59-.49.28.13.31,0,2.7Zm2,3.18-.28.11a.55.55,0,0,0-.48-.61.88.88,0,0,1-.65-.53l.19-.17.08-.33.44,0a1.48,1.48,0,0,0,.42.91c.4.35.28.59.28.59m1.41-3.06-.16-.52h-.66a3.85,3.85,0,0,0-.27-1.46c-.27-.64,0-.8,0-.8l-.42-.32.71.17.26,1.15.84.27v.87s-.12.4.12.52-.4.12-.4.12m14.45,8.5c-.26.3-1.56,1.69-1.56,1.69l-1.25,0-.07-.3a1.93,1.93,0,0,0,1.19-.33c.53-.39,1.84-1.63,1.84-1.63a.54.54,0,0,1-.15.55m1.79-.36-.63.11a8.64,8.64,0,0,0,.91-1l.7-1,.41,0Zm12.42-4.09a3.24,3.24,0,0,1-1.81,1.67c.22-.86-.73-4.11-.73-4.11.59-.49,1.29,2.64,1.29,2.64,1.13.08,1.28-2.22,1.28-2.22L146,253a6.59,6.59,0,0,1-.29,2.19m-24.5-8.63c-.21.61.52.45,1,.45s.5-.34,1-.39.26-.82.26-.82c-.21.46-2,.16-2.2.76m-.31.67s.1-.16-.24-.77c0,0-.25.71.24.77m20.43,11.83a21.82,21.82,0,0,1-2.38.51c-.59.18.07.9.07.9l-.2.21a1.5,1.5,0,0,0-2.27-.06c-.56.45-1.52.45-1.18,1.13s2.92,0,2.67.44-1.11.25-2.74.22-1.23.3-.9,1.28,3.05.41,2.36.85-2.27-.58-2.27.7.14.86,1.12.65,1.81,0,1.4.1-2,.74-1.89,1.35,1.06,1.13,1.06,1.13-.08.28-.79,0-1.45-.55-1,.28.32,1.25.1.9-.41-.9-.9-.93-.59,1.06-.63.79-.42-.69-1.29-.69a4,4,0,0,1-2.26-1.07,2,2,0,0,0-2-.17c-.65.24-.54.86-.49,1.63s.68.79,1.09.3.87-.41,1.39-.09,1.44,0,1.39.15a1.48,1.48,0,0,1-1.41.19c-.5-.28-1.5-.19-1.49.4s.66.4.6.94.76,1.52,1.32.58a4.77,4.77,0,0,1,1.07-1.37,9.74,9.74,0,0,1,2,0c0,.14-.64.34-1.47.34s-.95.38-.28,1.15,1.08.26,1.78.26a2.51,2.51,0,0,0,1.75-1.16c.08-.28.44-.7.64-.49.5.48.6.66.81.24s1-.24,1.25-.41-.17-1.3-.24-1.93.33-.76.36-1.31.62-.25.62-.8-.41-1.61.68-1.51.72-.59.72-1.14.06-.28,1,0,.73-.72.8-1.24.63.41,1.13.38.05-.68.79-1.2.59-.8,0-1.7a1.84,1.84,0,0,0-2-.72m-4.5,12c-.35.39-.73.48-.28.87s.63.31.73-.14a2.93,2.93,0,0,0,.26-1,.79.79,0,0,0-.71.3m-6.7,1.49a.65.65,0,0,0,.73-.72l-.45-.32c-.64.56-.28,1-.28,1m-2.89-1.74a.72.72,0,0,0-.07.73.63.63,0,0,0,.87-.61s-.56-.56-.8-.12m-1.56-1.71c.7.14.93-.72.93-.72-1.21-.11-.93.72-.93.72m21.37-.76c-.07-.38-1.54.21-.82.55s.82-.55.82-.55m-.28,3.62c1,.24.84-.86.84-.86s-1.12,0-.84.86m4.52,1.24c.76,0,.56-.9.56-.9-.91,0-.56.9-.56.9m-34.76-3.92c-.36,1.33.88,1.09.88,1.09a1.13,1.13,0,0,0-.88-1.09M111.92,273c.85.09.88-.83.88-.83-1.15-.14-.88.83-.88.83m-4.46-1.6c1.29.13,1-.75,1-.75a.76.76,0,0,0-1,.75m-.56-2c.6.1.8-.69.8-.69-.89-.1-.8.69-.8.69m3.5-8.11c.47,1.27.72.8,1.93.05s.33.2,1.13.47.51-.73,1.43-.55,1-.7.75-1.29-1-.52-1.48-.6.45-.69-.1-1.06-.22-1.29-.7-1.71-1.34.14-1.34.14a3,3,0,0,0,.88,2.13,2.7,2.7,0,0,1-1.12-1c-.28-.6-.92-1.64-1.16-.54a3.26,3.26,0,0,0,.24,2c-.2-.28-.65.17-.79-1.29-.16-1.66-.09-1.83-1-1.79s-.85,2.07-.85,2.07-.18.18-.32-.79.38-1.28.56-1.79.12-1.47-.79-1-.75,1.29-1,.89,1.08-2.21,1.08-2.55-.2-.82-1.08.19-1,.51-.88,0,2.5-1.52,1.39-2.17-1.49,1.39-1.81.84,1.67-2.3,1.67-2.3.21-1.34.51-2.53-.51-1.56-1.24-1.56-.43,2.34-.43,2.34l-.24,0c0-2.12-.49-2-1-2s-1.29.24-.27,1.89.65,2.2.38,1.52-.84-1.38-1.83-.78,0,1.05.53,1.65,1.61,2.07.68,2-.92.13-.92,1.37,1.21.09,1.49,1c.58,2,.73,1.8,1.34,2.49.87,1,.88,2.43,1.43,3.5s2.66.18,2.9.77m1.52-5.18-.1-.61s-.5,0-.5.33.6.28.6.28m-5.28-11L107,245c0-.45-.52-.92-.52-.92a.72.72,0,0,0,.16,1m-2.28.47a.82.82,0,0,0,.54-.79c0-.35-1-.14-1-.14l-.09.88a.79.79,0,0,0,.57,0M103,247.25l-.79-.1,0,.84s1.11.36.84-.74m-.79,5.06s.24.6.57.6.13-.77.13-.77-.62,0-.7.17m36.16-7.9c1.3,0,.84-.93.56-1.16s-2.56.37-2.56.37-.19,1,2,.79m2.93-.6c1.16-.38.88-1.21.19-1.16a4.1,4.1,0,0,0-1.21.27s-.14,1.24,1,.89m2.1-.73c.93-.2,1.9-.38,1.76-.89s-2.25-.13-2.38.13c0,0-.32.93.62.76m3.43-.89c1-.18.9-.54.9-.54s0-.46-1.19-.33-.74.6-.74.6,0,.45,1,.27m2.6-.27c.66,0,.8-.24.75-.41s-.46-.39-.84-.39a.8.8,0,0,0-.6.39s0,.41.69.41m2.64.14c.7,0,.75-.29.75-.29s0-.5-.75-.4-.67.31-.67.31,0,.38.67.38m2.16.54a2.46,2.46,0,0,1,.82.28.51.51,0,0,0,.23-.59c-.13-.37-1.35-.37-1.35-.37a.42.42,0,0,0,.3.68m1.88,1c.62.5,1.12.17,1.12-.15s-1.06-.78-1.06-.78c-.66-.05-.66.43-.06.93m1.6,1.42c.51.18.78.23.88,0a.77.77,0,0,0-1.12-.88s-.28.7.24.88m.78.75s-.14.72.24,1,1,0,.84-.36-.51-1.34-1.08-.63m1,1.68a4.42,4.42,0,0,0-.83.83c-.2.33.23.83.73.83s.66-.87.1-1.66M158,250.6c-.1.7-.1,1.57.36,1.57a1,1,0,0,0,1-1c0-.65,0-1,0-1s-1.35-.24-1.43.45m-.75,1.44s-1,.18-.89.92a.59.59,0,0,0,.94.5c.18-.18,1-.73-.05-1.42m-2.93.78a1.34,1.34,0,0,0,.19,1.1c.36.41,1.2,0,1.43-.23s.05-.64-.41-1.05-1.21.18-1.21.18m-2.09-.32s-.74.92-.37,1.33,1.76.68,1.9.27a1.28,1.28,0,0,0-1.53-1.6"/><path class="cls-4" d="M200,261.81l-3.13,1a2.56,2.56,0,0,1-.45-.78c-.07-.33-2.05,1.1-2.57.71s.33-.9-2.46-1.23c-2.17-.27-.12-1.12-1.44-3.27s-1.86-1.65-1.93-2.09.15-1.25-1.11-1.57-.39-.92-.93-1.51-1-1.24.2-1.3,1.59-.13,1.59-.13a18.19,18.19,0,0,0-2.2-2.25c-.52-.34,0-.83-.06-1.24s-.52-1.67.2-1.75a2.43,2.43,0,0,1,1.44.48,3.21,3.21,0,0,1,0-1.27,3.79,3.79,0,0,0-.16-1.68c-.07-.3,1.61-.27,2.35.6.52.64.45-1.61,1.28-1.49.5.18.47,1.07,1.13,2.17s.6.36.34,2.32-.73,3,0,4.59.57,3,1,3.26,1.5-.75,1.48-1.69.55.71.52,1.3.76-.33.61-1.3.45-.86.06-1.15-1.09.26-1.09-.65.64-2.76-.41-2.68c-.57,0,1-1.8,1.17-2.55s-.38-.63-.86-.41.77-1.3,1.89-2.1a9.69,9.69,0,0,0,2.41-2.2c.37-.63-1.6-.88.14-2.2,1-.75,1.1-.3,2-.19s1.23-1.56,1.36-1.86.94.4,1.43,1.07,1.09.61,1.92.71,1.45,1.2,2.35,1.54,1.49-.66,2.45,1.12c.26.48-.46.93-.46.93a.94.94,0,0,0-.44,1,2.49,2.49,0,0,1-.18,1l4-.11a2,2,0,0,1-1.25,2,6.64,6.64,0,0,1-4,.48s.3,1.32,0,1.54-.52-.19-1.13-.09a5,5,0,0,0-1.54.6c-.22.2,0,1.24.91,1.28a101,101,0,0,0,16.56-1c7-1.2,6.93-.52,9.32.76s7.72,3.13,9.2-.42-1.41-7.36-6.39-7.62-9.63,1.57-11.79,2.12-3.57.66-4-.81c-.23-.72,2.27-1,3.63-1.24s6.72-2.13,12.1-1.87,8.74,2.39,9.36,7.07-3.21,7.69-9,7.13a9.35,9.35,0,0,1,1.91,2.47c.28.86-.45.89,0,1.31a4.3,4.3,0,0,1,1.08,1.87c.06.45,3,1.82,3.14,3.28.06.91-.73,1.16-.77,1.5s-.52.75-.39,1.34,1,1.5,1,2.07-.83.74-1.19,1.27a6.18,6.18,0,0,0-1,1.68,1.4,1.4,0,0,1-1.51,1.31,2.25,2.25,0,0,0-1.92.78c-.47.36-1.05.56-1.05-1.27a.78.78,0,0,0-.92.19c-.46.45-1.7.7-2.08-.23,0,0-1.55-.45-1.73,0a2.31,2.31,0,0,1,.71-2.14s.41-.29-.15-.7-.91-1.05-1.73-.89a2.46,2.46,0,0,1,2.11-1.21c1.41.08,1.63,1.05,2.56,1.13s1.51-.82,2-.89,0-.72.34-1.47-.79-.63-.62-1.27-.76-.14-1.37-.79-.28-.13-1.89-.59-3.05-.93-3.17-2.44a1.38,1.38,0,0,0-.81.68c-.21.53-.78,1.57-1.19,1.6s-.94-.1-1,.42-.79.3-1.09.52.18.9-.64,1-1.09.14-1.09,1.12-.72.29-.87.67a2.4,2.4,0,0,0-.16,1.75,3.65,3.65,0,0,1,.09,2.51,2.41,2.41,0,0,0-.78,1.27c0,.59-.78.38-.78.38s-.83-1.5-1.48-1.54-1.54,1.27-2.44,1.23-1.18-.41-1.48-.07-1.3.67-1.57.41l-.06-.82-.9.15-.46-.71a5.35,5.35,0,0,0-1.56.56c-.44.34-.44-1.61.35-2.32a3,3,0,0,0-2.6-.56s1.22-2.84,4-2.54c2.07.22,1.25,1.27,3.08,1.27s2.52-.08,2.8-.4.07-1.17.07-1.17a4.46,4.46,0,0,1-.48-2c.07-.9-.48-.74-.27-2.16l-2.42.67c-1.47.4-1.47.4-1.74.82s-1,.49-1.74.33-.74.16-.81.34-.69.56-1.79.08-.86.07-1.18.23-1.35-.46-1.35-.46-.8-.41-1.1.07-.47.68-1.4.79-.38.6-1.31.9-.91,1.45-.84,1.9.31,2.47-.13,2.85-1.3-.42-1.79-.65-.37.9-.64,1.47a2.65,2.65,0,0,1-1.86,1.23,2.82,2.82,0,0,0-1.55.41s-.52.11-.49-1.19c0,0,0-.49-.83-.08s-1.2.24-1.4-.23-1-.37-2.17,0c0,0-.09-1.72,1.09-2.17a4.18,4.18,0,0,0-1.66,0,4.8,4.8,0,0,0-.88.41,3,3,0,0,1,1.45-1.93c1.15-.61.93-1.13,2-1a4.78,4.78,0,0,0,3.06-.49c1-.59.79-.78,1.28-1.08s1.67-2.55,2.3-2.85a1,1,0,0,0,.52-1.07"/><path class="cls-2" d="M207.56,245.72s1.09.25,1.35,0a2.18,2.18,0,0,1,1.5-.38,7.61,7.61,0,0,0,2.76-.06c.37-.27.24,1.92-4.37,1.92-.78,0-.51-.86-1.37-1l-.09-.57Z"/><path class="cls-5" d="M203.37,239s0-.47-.66-.06a.92.92,0,0,0-.4,1.07c1.67.31,1.06-1,1.06-1m36.86,24.32a30.91,30.91,0,0,0-3.07-2.39s.46-1-.84-1.93c0,0,.42-.69-.54-1.37,0,0,1-.28-.42-2s-1.55-1.42-1.55-1.42l.09-.28s1.41.32,1.41-.46.51-1-2.2-1.56c0,0-.18,1.61-.64,1.61a7.94,7.94,0,0,0-.15-2c-.21-.36-1.5-.66-1.7-.66s.56,1.57.2,1.92a17.85,17.85,0,0,0-1.37-2.62c-.19-.31-1.78-.2-1.78-.2a22.23,22.23,0,0,1,1.07,2.57c0,.3-.25.1-.25.1s-1.28-2.57-2.25-2.83.16,2.22.16,2.79-.31.19-.31.19-.5-2.37-1.63-2.37c-.51,0,1,2.32.6,3.13s-.64-3.38-2.85-2.83c-.41.1,0,.61.35,1.37a3.1,3.1,0,0,1,.31,2.47l-.31,0s-.25-3-1.42-3.52,0,1.52,0,1.52a6.12,6.12,0,0,1,.05,1.76l-.31.2s0-3.53-1.84-3.53c-1.18,0,.41,2.16.58,2.72s0,2.22-.43,2.47c0,0,.26-2.37-.4-3.07s-1.19-2.25-2.76-1.92c-.71.14.71,2.43,1,3.43s.31,2.93-.1,3a18.7,18.7,0,0,0-.81-3.94c-.62-1.55-1-2.17-1.73-2.32s-.88.6-.37,1.57-.46,1.2.42,2.11a2.25,2.25,0,0,1,.54,2l-.35,0a4,4,0,0,0-.4-1.57,1.89,1.89,0,0,1-.52-1.62,2.59,2.59,0,0,0-1.68-2.22c-.86-.15.14.76.51,2.68s.56,5.35-.55,5.95c0,0,.86-3.89.14-6s-.46-2.57-1.27-2.53c-1,.08-.41,1.17-.41,1.72s.56,2.53.21,3.63c0,0-.31-2.11-.66-2.32s.05-1.86-.12-2.32-.75-1.16-1.06-.71.1,1.27.06,1.93.13,1.5-.06,1.76-.51.92,0,1.27.15,2-.25,2.06a2.61,2.61,0,0,0,0-1.67c-.37-.55-.77-.8-.31-1.61a2.52,2.52,0,0,0,.2-2.17c-.2-.86-.6-1.06-.51-1.46s-1-.46-1,.2-.35,1.92-.67,2.06-.51.76-.51.76a2.86,2.86,0,0,1,.47-1.52c.45-.6.26-1.45-.36-1.41s-.82,1.52-2.44,1.46c0,0,2.33-1.41,2-2.36s-2.09,1.87-3.36,1.36c0,0,3.29-1.93,2.81-2.83-.35-.65-1.29-.05-1.29-.05a1.6,1.6,0,0,1-1.06.91,5,5,0,0,0,.91-1.27s0-.75-.71-.24-.45-.45-.82-.72-.92,0-1.07-.8a5.89,5.89,0,0,1-.16-1s.25.76.56.9,1,.1,1.08.65.26.91,1,.36.36.36.59.5.8.47,1.09-.14c.22-.41.18.44.72.29.93-.25,1.19-.79,1.45-.7s1.19.82.65-1.06c0,0-1-.26-1.43.15a1.8,1.8,0,0,1-1.94.15c-.54-.34-.26-1.61.71-1.92s1-.41,1.94-.15,2.2-.09,2.15-1.11-.77-1-.77-1l.11-.35s1.08.44,1.17-.31-.51-1.06-1.38-1c0,0,0,.5-.35.4s-.33-.4-.33-.4l-.53-.05a4.55,4.55,0,0,1-.67.66c-.26.14-.48.44-.83.35s.66-.46.1-.82-.71.47-.71.47a1.14,1.14,0,0,1,.46-.92c.47-.25.42-.25.76,0s.78.35.78-.16-.78-.9-1.34-.85-1-.15-1.12.39-.36.32-.36.32.1-.67-.31-.67a.83.83,0,0,0-.85.76,6.36,6.36,0,0,1,0,.81h-.26s.2-1.22-.2-1.26-2,0-2,0-.37-1.17-1.11-.52.18,1.48.4,1.65l.1.65-.55.41a5.34,5.34,0,0,0-1.76,1.15c-.46.59-1.41,1.61-1.41,1.61l1,.11s-1.32,1.65-1.65,2.24-.21.92.33.92a1.31,1.31,0,0,1,0,1.42,2,2,0,0,0-.21,1.17,1.23,1.23,0,0,0,1.08,0,1.43,1.43,0,0,1-.19,1.24,4.69,4.69,0,0,0-.09,2.71c.14.42.79.1,1.07-.13s.28,1.16.28,1.16,0,1.37.84,1.78a4.15,4.15,0,0,0,.51-1.48.78.78,0,0,1,.47-.72s.42,1.66,1.07,2c0,0-.28.32-.75-.23a.48.48,0,0,0-.88.32,2.51,2.51,0,0,0,.68,1.42,2.94,2.94,0,0,1,.71,1.29,1.84,1.84,0,0,0,1.26-1.65c0-1.29.83-3.55,1.39-3.86l.19.18a4.14,4.14,0,0,0-.84,2.58s.19.45.84,0a12.4,12.4,0,0,0,1.62-1.65s.09,1.14-2,2.28c0,0-.84.42-.8,1.11a3.7,3.7,0,0,0,1.53-.23,13.85,13.85,0,0,1,1.81-.41,4.14,4.14,0,0,1-2,1.14c-1.39.42-2.12.45-2.37,1.67a6.57,6.57,0,0,0,2.33,0c.77-.22,1.17-.36,1.17-.36a4.44,4.44,0,0,0-.9.64c-.27.33-2.28.1-2.74.24a1,1,0,0,0-.83,1.05l1.84.42-.3.22-2.28.11s-1.13.41-.52,1.19c.33.4,1.72.08,1.72.08s-.32.62-.75.65-2.44-.23-2.63.32.44.88,1.1,1.1a2.34,2.34,0,0,1-1.39.05,3,3,0,0,0-1.86.18c-.59.18-2.09-.45-2.64,0a.94.94,0,0,0,.07,1.52,6.45,6.45,0,0,0,3.28-.56,1.45,1.45,0,0,1-1.18.78c-.78,0-1.82-.13-1.82.6a1.31,1.31,0,0,0,.78,1.38,1.6,1.6,0,0,0,1.93-.7c.7-.86,1.06-.77,1.48-1.1s.89-.64.89-1a.77.77,0,0,1-.05.92c-.37.51-.84.42-1.26.87,0,0-1,.28-.77,1s.77-.08,1.11.23.68,1,1.58.24.56-2.21.69-2.85a.94.94,0,0,0,1.16-.32c.51-.64.94.19.79-1.29s.47-2.25,1.22-2.25a1.48,1.48,0,0,0,1.28-1c.16-.33.85.31,1-.47s.45-1.1,1.07-.92.94,0,1.2-.6a3.43,3.43,0,0,1,1.63-1.47c.75-.42,1.25-.87,1.25-1.34l.23,0a1.94,1.94,0,0,1-1.1,1.8c-1.22.65-1.67,1.24-1.64,1.88s.6.78.93.56.41-.83.61-.7.32.92.84.47.41-.6.91-.25,2.07.38,2-.22-.46-.46-.42-.69.28-.23,1.13.23,2.27-.28,3.48-.87,3.16-1.39,4.23-2a8.42,8.42,0,0,1,3.3-1.06c.88,0,1.09-.77-.66-1.42a3.16,3.16,0,0,0-1.47-.05l.18-.33s1.8-.43,4.22,1.57c1.39,1.15,3.4-1.52,3.4-1.52s.37-.32.55-.22-1,1.51-1.24,1.74-1.67,1-1.17,1.47,2,1.07,3.72-2.85c0,0,.55-.56.14.74a5.75,5.75,0,0,1-2.19,2.8c-.3.21-.46,1.46,1.26,1.52,1.25.05,2-3.41,2-4.42s.3.22.15,1.34-1.25,3.59-.88,3.81,1.81.18,2.18-3.5c.16-1.38.42,1,.29,1.72s-.93,2-.11,2.11,1.61-1.38,1.61-1.85.72.47-.06,1.34-.93,1.8.22,1.84a8.19,8.19,0,0,0,2.38-.32l0,.46s-2,.13-2.2,1,1.39.52,1.86.7l0,.32s-1.75-.23-1.82.55.95.46,1.91,1.7L238,269a1.74,1.74,0,0,0-1.85-.64c-1.26.27-1.06,1-2,.87s-2-1-2.41-.87-.09.64-.42,1,.06.79,1,.55.84.18,1.54.24,1.07-.47,1.62-.24c0,0-.74.78-1.44.65s-1.72-.61-2.08-.23-.33.5.1.87-.2,1.33.59,1.33,1.39-.55,1.82-.55.5-1,1.52-1.42l1.54-.61a1,1,0,0,1-.61.79c-.51.19-1.56.5-1.29,1.05s.94.69,1.76.65,1-.32,1.25-1.06a4.2,4.2,0,0,1,1.5-2.06c.64-.42-.52-1.16-.52-2.07s1.39-3.09.61-3.92m-32.91-19.76c0-.29.21-.25.21-.25s.19.45.54.25.11.72-.14.87a4.91,4.91,0,0,1-1,.25s.15-.66-.26-.66.67-.15.67-.46m-4.88.25L204,244l.07.28a5.69,5.69,0,0,1-1.71,0c-.6-.15-.95-1.42-.95-1.42.59-.09,1.07.95,1.07.95m0,1.74c.07-.27.48-.27.48-.27l.11,1.14-.52-.08s-1.16-.63-1.16-1.27c0,0,1,.76,1.09.48m-4-.2.44-1,.94-.19,0,.35s-1,.75-1.12,1.19l-.08.44-.44,0Zm-.82,7.55c-.32,0-.32-.48-.32-.48h.33s.29.48,0,.48m0-1.85-.1-2.5-.2-.48.38-.69.47-.21.08.59-.47.28.12.31,0,2.7Zm2,3.18-.29.11a.58.58,0,0,0-.48-.61.84.84,0,0,1-.67-.53l.2-.17.07-.33.46,0a1.48,1.48,0,0,0,.42.91c.39.35.29.59.29.59m1.39-3.06-.16-.52h-.66a4.22,4.22,0,0,0-.26-1.46c-.27-.64,0-.8,0-.8l-.4-.32.71.17.26,1.15.84.27v.87s-.1.4.13.52-.41.12-.41.12m14.46,8.5c-.26.3-1.56,1.69-1.56,1.69l-1.26,0-.08-.3a2,2,0,0,0,1.2-.33c.55-.39,1.84-1.63,1.84-1.63a.55.55,0,0,1-.14.55m1.8-.36-.64.11a8.18,8.18,0,0,0,.9-1c.54-.73.7-1,.7-1l.43,0Zm12.4-4.09c-.34,1.13-1.82,1.67-1.82,1.67.23-.86-.73-4.11-.73-4.11.6-.49,1.31,2.64,1.31,2.64,1.15.08,1.27-2.22,1.27-2.22l.26-.17a6.29,6.29,0,0,1-.29,2.19m-24.5-8.63c-.19.61.51.45,1,.45s.51-.34,1-.39.26-.82.26-.82c-.19.46-2,.16-2.2.76m-.29.67s.1-.16-.27-.77c0,0-.26.71.27.77m20.41,11.83a22.1,22.1,0,0,1-2.37.51c-.58.18.08.9.08.9l-.22.21a1.49,1.49,0,0,0-2.26-.06c-.56.45-1.56.45-1.2,1.13s2.94,0,2.7.44-1.12.25-2.76.22-1.23.3-.91,1.28,3.08.41,2.37.85-2.26-.58-2.26.7.14.86,1.11.65,1.84,0,1.41.1-2,.74-1.89,1.35,1.05,1.13,1.05,1.13-.07.28-.77,0-1.47-.55-1,.28.29,1.25.09.9-.41-.9-.9-.93-.59,1.06-.63.79-.41-.69-1.29-.69a4,4,0,0,1-2.26-1.07,2,2,0,0,0-2-.17c-.66.24-.57.86-.51,1.63s.69.79,1.09.3a1,1,0,0,1,1.4-.09c.51.29,1.43,0,1.39.15a1.5,1.5,0,0,1-1.42.19c-.48-.28-1.5-.19-1.48.4s.64.4.59.94.78,1.52,1.34.58a4.46,4.46,0,0,1,1.06-1.37,9.46,9.46,0,0,1,2,0c0,.14-.62.34-1.44.34s-.95.38-.28,1.15,1.09.26,1.77.26a2.42,2.42,0,0,0,1.73-1.16c.11-.28.46-.7.68-.49.45.48.59.66.79.24s1-.24,1.27-.41-.18-1.3-.26-1.93.33-.76.35-1.31.64-.25.64-.8-.44-1.61.7-1.51.68-.59.68-1.14.06-.28,1,0,.74-.72.82-1.24.63.41,1.11.38.07-.68.81-1.2.58-.8,0-1.7a1.85,1.85,0,0,0-2-.72m-4.49,12c-.36.39-.73.48-.28.87s.62.31.73-.14.22-.34.25-1a.77.77,0,0,0-.7.3m-6.7,1.49c.77.07.73-.72.73-.72l-.45-.32c-.63.56-.28,1-.28,1m-2.89-1.74a.7.7,0,0,0-.07.73.63.63,0,0,0,.88-.61s-.56-.56-.81-.12m-1.57-1.71c.69.14.93-.72.93-.72-1.21-.11-.93.72-.93.72m21.36-.76c-.07-.38-1.53.21-.8.55s.8-.55.8-.55m-.28,3.62c1.05.24.84-.86.84-.86s-1.12,0-.84.86m4.54,1.24c.77,0,.57-.9.57-.9-.91,0-.57.9-.57.9m-34.77-3.92c-.36,1.33.9,1.09.9,1.09a1.14,1.14,0,0,0-.9-1.09M195.88,273c.84.09.89-.83.89-.83-1.16-.14-.89.83-.89.83m-4.46-1.6c1.31.13,1-.75,1-.75a.76.76,0,0,0-1,.75m-.53-2c.58.1.76-.69.76-.69-.88-.1-.76.69-.76.69m3.48-8.11c.48,1.27.74.8,1.95.05s.31.2,1.1.47.5-.73,1.44-.55,1-.7.75-1.29-1-.52-1.49-.6.47-.69-.09-1.06-.24-1.29-.7-1.71-1.35.14-1.35.14a3,3,0,0,0,.89,2.13,2.63,2.63,0,0,1-1.11-1c-.29-.6-.94-1.64-1.18-.54a3.35,3.35,0,0,0,.24,2c-.19-.28-.66.17-.79-1.29-.16-1.66-.09-1.83-1-1.79s-.84,2.07-.84,2.07-.19.18-.32-.79.37-1.28.56-1.79.15-1.47-.8-1-.73,1.29-1,.89,1.09-2.21,1.09-2.55-.18-.82-1.09.19-1,.51-.87,0,2.51-1.52,1.39-2.17-1.48,1.39-1.82.84,1.68-2.3,1.68-2.3a19.71,19.71,0,0,1,.53-2.53c.31-1.19-.53-1.56-1.26-1.56s-.43,2.34-.43,2.34l-.23,0c.05-2.12-.51-2-1-2s-1.31.24-.28,1.89.64,2.2.37,1.52-.84-1.38-1.82-.78,0,1.05.53,1.65,1.62,2.07.69,2-.94.13-.94,1.37,1.22.09,1.5,1c.58,2,.73,1.8,1.35,2.49.87,1,.88,2.43,1.43,3.5s2.64.18,2.9.77m1.51-5.18-.09-.61s-.5,0-.5.33.59.28.59.28m-5.3-11L191,245c.05-.45-.5-.92-.5-.92a.73.73,0,0,0,.13,1m-2.27.47a.82.82,0,0,0,.57-.79c0-.35-1-.14-1-.14l-.09.88a.76.76,0,0,0,.56,0M187,247.25l-.79-.1,0,.84s1.09.36.83-.74m-.79,5.06s.22.6.54.6.16-.77.16-.77-.61,0-.7.17m36.16-7.9c1.3,0,.83-.93.54-1.16s-2.53.37-2.53.37-.22,1,2,.79m2.92-.6c1.17-.38.89-1.21.19-1.16a4.1,4.1,0,0,0-1.21.27s-.14,1.24,1,.89m2.08-.73c.94-.2,1.92-.38,1.78-.89s-2.23-.13-2.37.13c0,0-.32.93.59.76m3.45-.89c1-.18.88-.54.88-.54s0-.46-1.16-.33-.74.6-.74.6,0,.45,1,.27m2.61-.27c.64,0,.78-.24.73-.41s-.45-.39-.82-.39a.81.81,0,0,0-.61.39s.05.41.7.41m2.64.14c.7,0,.74-.29.74-.29s0-.5-.74-.4-.68.31-.68.31,0,.38.68.38m2.15.54a2.49,2.49,0,0,1,.84.28.53.53,0,0,0,.23-.59c-.15-.37-1.37-.37-1.37-.37a.41.41,0,0,0,.3.68m1.92,1c.57.5,1.1.17,1.1-.15s-1.07-.78-1.07-.78c-.66-.05-.66.43,0,.93m1.56,1.42c.51.18.79.23.88,0a.77.77,0,0,0-1.11-.88s-.29.7.23.88m.79.75s-.14.72.22,1,1,0,.86-.36-.52-1.34-1.08-.63m1,1.68a4.66,4.66,0,0,0-.85.83c-.19.33.23.83.74.83s.67-.87.11-1.66M242,250.6c-.07.7-.07,1.57.38,1.57a1,1,0,0,0,1-1,8.16,8.16,0,0,1,.05-1s-1.35-.24-1.46.45m-.74,1.44s-1,.18-.88.92a.59.59,0,0,0,.94.5c.18-.18,1-.73-.06-1.42m-2.92.78a1.34,1.34,0,0,0,.17,1.1c.39.41,1.23,0,1.46-.23s0-.64-.42-1.05-1.21.18-1.21.18m-2.09-.32s-.75.92-.38,1.33,1.77.68,1.91.27a1.28,1.28,0,0,0-1.53-1.6"/><path class="cls-4" d="M158,335.47l-3.1,1a2.39,2.39,0,0,1-.46-.78c-.05-.35-2.05,1.1-2.57.71s.33-.91-2.44-1.24c-2.19-.26-.15-1.12-1.46-3.28s-1.84-1.62-1.91-2.09.12-1.24-1.12-1.56-.4-.93-.94-1.51-1-1.25.21-1.29,1.58-.15,1.58-.15a17.41,17.41,0,0,0-2.22-2.24c-.49-.34.05-.82,0-1.24s-.53-1.68.17-1.74a2.32,2.32,0,0,1,1.46.48,3.65,3.65,0,0,1,0-1.28,3.46,3.46,0,0,0-.14-1.67c-.08-.31,1.61-.29,2.33.59.53.64.47-1.6,1.29-1.49.49.18.47,1.08,1.15,2.16s.59.37.33,2.33-.72,3,0,4.59.55,2.95,1,3.25,1.5-.75,1.48-1.67.56.7.51,1.3.77-.34.62-1.3.45-.88.07-1.17-1.1.27-1.1-.63.64-2.77-.41-2.69c-.57,0,1-1.8,1.18-2.55s-.38-.64-.87-.42.78-1.29,1.88-2.07a9.54,9.54,0,0,0,2.41-2.21c.39-.63-1.59-.89.17-2.21,1-.75,1.08-.29,2-.18s1.24-1.56,1.36-1.88.93.41,1.43,1.09,1.1.59,1.93.72,1.44,1.18,2.35,1.53,1.47-.66,2.46,1.12c.25.48-.47.92-.47.92a1,1,0,0,0-.46,1.05,2.16,2.16,0,0,1-.18,1l4.05-.11a1.94,1.94,0,0,1-1.26,2,6.84,6.84,0,0,1-4,.5s.28,1.3,0,1.53-.52-.18-1.13-.09a4.84,4.84,0,0,0-1.55.62c-.22.18,0,1.23.91,1.26a99.49,99.49,0,0,0,16.57-1c7-1.2,6.93-.53,9.3.74s7.73,3.14,9.2-.4-1.38-7.37-6.37-7.63-9.64,1.57-11.78,2.14-3.57.65-4-.84c-.24-.71,2.25-1,3.63-1.24s6.7-2.12,12.07-1.86,8.77,2.39,9.37,7.07-3.21,7.7-9,7.13a10,10,0,0,1,1.94,2.47c.25.87-.48.91,0,1.31a4.37,4.37,0,0,1,1,1.86c.09.45,3,1.85,3.15,3.3.08.9-.72,1.16-.76,1.49s-.53.76-.38,1.35.94,1.49.94,2.05-.82.76-1.16,1.27a6.51,6.51,0,0,0-1.07,1.7,1.41,1.41,0,0,1-1.51,1.3,2.3,2.3,0,0,0-1.92.77c-.46.38-1.06.58-1.06-1.25a.75.75,0,0,0-.91.18c-.44.44-1.69.71-2.07-.21,0,0-1.54-.46-1.74,0a2.33,2.33,0,0,1,.71-2.15s.42-.27-.13-.7-.91-1-1.74-.9a2.39,2.39,0,0,1,2.12-1.18c1.39.06,1.62,1,2.55,1.12s1.5-.84,2-.9,0-.72.35-1.45-.8-.65-.64-1.29-.76-.14-1.38-.78-.25-.15-1.87-.6-3.05-.92-3.17-2.44a1.38,1.38,0,0,0-.8.69c-.24.51-.8,1.56-1.22,1.61s-.93-.12-1,.4-.81.3-1.12.53.22.9-.63,1-1.09.16-1.09,1.12-.72.3-.87.66a2.41,2.41,0,0,0-.16,1.77,3.77,3.77,0,0,1,.09,2.51,2.11,2.11,0,0,0-.76,1.26c-.09.59-.79.37-.79.37s-.83-1.48-1.48-1.52-1.55,1.27-2.46,1.23-1.16-.4-1.46-.08-1.29.67-1.59.42l0-.84-.89.17-.47-.71a5.49,5.49,0,0,0-1.54.54c-.46.35-.46-1.59.33-2.31a3,3,0,0,0-2.61-.55s1.21-2.83,4-2.56c2.09.24,1.26,1.29,3.1,1.29s2.54-.09,2.81-.41.05-1.15.05-1.15a4.52,4.52,0,0,1-.48-2c.07-.89-.5-.74-.26-2.18l-2.41.68c-1.47.42-1.47.42-1.74.82a1.75,1.75,0,0,1-1.74.34c-.68-.15-.75.16-.82.34s-.68.56-1.79.07-.87.08-1.17.23-1.36-.45-1.36-.45-.78-.41-1.09.09-.49.64-1.4.76-.38.6-1.33.9-.89,1.47-.82,1.9.3,2.48-.15,2.85-1.28-.41-1.78-.63-.39.89-.64,1.46a2.78,2.78,0,0,1-1.84,1.23,2.6,2.6,0,0,0-1.55.4s-.55.12-.51-1.19c0,0,0-.48-.82-.07s-1.21.22-1.39-.23-1-.38-2.2,0c0,0-.07-1.72,1.1-2.17a4.06,4.06,0,0,0-1.66.05,3.87,3.87,0,0,0-.87.4,3,3,0,0,1,1.43-1.93c1.18-.6,1-1.13,2-1a4.82,4.82,0,0,0,3-.48c1-.6.8-.78,1.28-1.09s1.67-2.55,2.32-2.83a1,1,0,0,0,.48-1.09"/><path class="cls-2" d="M165.55,319.38s1.07.26,1.34.06a2.28,2.28,0,0,1,1.53-.41,6.75,6.75,0,0,0,2.74-.06c.37-.25.22,1.93-4.39,1.93-.74,0-.5-.86-1.37-1l-.08-.56Z"/><path class="cls-5" d="M161.34,312.64s0-.46-.66-.05a.94.94,0,0,0-.39,1.06c1.66.31,1.05-1,1.05-1M198.21,337a28.18,28.18,0,0,0-3.08-2.39s.48-1-.83-1.93c0,0,.41-.68-.55-1.38,0,0,1-.27-.42-2s-1.54-1.43-1.54-1.43l.1-.28s1.39.33,1.39-.46.52-1-2.18-1.56c0,0-.18,1.61-.65,1.61a7.94,7.94,0,0,0-.15-2c-.21-.35-1.49-.65-1.7-.65s.57,1.57.21,1.92a20.87,20.87,0,0,0-1.37-2.63c-.21-.3-1.79-.19-1.79-.19a19.68,19.68,0,0,1,1.07,2.56c.06.31-.26.11-.26.11s-1.27-2.58-2.24-2.84.15,2.23.15,2.78-.3.21-.3.21-.51-2.39-1.64-2.39c-.5,0,1,2.33.61,3.15s-.62-3.39-2.84-2.84c-.43.1,0,.62.36,1.37s.65,1.92.29,2.46l-.29.06s-.26-3-1.44-3.54,0,1.52,0,1.52a6.46,6.46,0,0,1,.06,1.77l-.3.19s0-3.51-1.86-3.51c-1.16,0,.42,2.16.58,2.71s0,2.21-.42,2.47c0,0,.26-2.37-.41-3.08s-1.19-2.24-2.74-1.9c-.71.14.7,2.43,1,3.42s.31,2.92-.09,3a18.31,18.31,0,0,0-.82-3.94c-.62-1.56-1-2.17-1.74-2.32s-.86.61-.36,1.57-.45,1.21.41,2.11a2.21,2.21,0,0,1,.56,2l-.34-.05a4.1,4.1,0,0,0-.41-1.58,1.81,1.81,0,0,1-.52-1.61,2.57,2.57,0,0,0-1.69-2.21c-.86-.16.15.76.51,2.67s.55,5.35-.56,6c0,0,.88-3.88.16-6s-.48-2.58-1.29-2.53c-1,.07-.39,1.16-.39,1.73s.54,2.51.2,3.63c0,0-.3-2.12-.68-2.32s.06-1.88-.08-2.34-.76-1.14-1.08-.7.1,1.27,0,1.93.15,1.52,0,1.76-.52.91,0,1.27.15,2-.28,2.07c0,0,.34-1.12,0-1.67s-.77-.82-.31-1.63a2.51,2.51,0,0,0,.2-2.15c-.2-.88-.61-1.06-.5-1.47s-1-.46-1,.2a3.54,3.54,0,0,1-.66,2.07c-.31.15-.5.75-.5.75a2.86,2.86,0,0,1,.45-1.5c.47-.61.26-1.47-.36-1.41s-.81,1.51-2.44,1.44c0,0,2.35-1.4,2-2.37s-2.09,1.87-3.37,1.38c0,0,3.29-1.94,2.8-2.83-.35-.65-1.28-.05-1.28-.05a1.58,1.58,0,0,1-1.07.91,5,5,0,0,0,.93-1.27s0-.75-.72-.24-.45-.47-.81-.72-.91-.06-1.07-.81a5.89,5.89,0,0,1-.16-1s.27.76.57.9,1,.1,1.07.66.25.91,1,.35.36.34.57.5.8.48,1.12-.16c.19-.39.18.46.71.31.92-.24,1.18-.81,1.43-.7s1.21.82.66-1.06c0,0-1-.25-1.43.15a1.77,1.77,0,0,1-1.93.16c-.56-.35-.27-1.62.71-1.92a2.41,2.41,0,0,1,1.94-.15c.91.25,2.19-.11,2.14-1.11s-.77-1-.77-1l.11-.37s1.06.46,1.17-.3-.51-1.07-1.39-1c0,0,.07.5-.35.39s-.3-.39-.3-.39l-.56-.07a4.28,4.28,0,0,1-.66.67c-.26.15-.46.46-.81.35s.65-.45.1-.81-.72.46-.72.46,0-.67.45-.9.42-.25.77-.06.76.36.76-.16-.76-.9-1.32-.84-1-.16-1.12.39-.35.31-.35.31.09-.67-.31-.67a.84.84,0,0,0-.87.78,6.43,6.43,0,0,1-.05.79h-.26s.21-1.21-.21-1.26-2,0-2,0-.37-1.16-1.1-.5.17,1.48.4,1.65l.09.64-.56.42a5.74,5.74,0,0,0-1.76,1.15c-.47.6-1.39,1.61-1.39,1.61l1,.1s-1.31,1.66-1.64,2.25-.24.93.33.93a1.31,1.31,0,0,1-.05,1.41,2.1,2.1,0,0,0-.19,1.18,1.24,1.24,0,0,0,1.06,0,1.36,1.36,0,0,1-.18,1.24,4.55,4.55,0,0,0-.08,2.72c.14.41.79.1,1.06-.14s.28,1.15.28,1.15,0,1.38.83,1.8a4.17,4.17,0,0,0,.52-1.49.76.76,0,0,1,.47-.72s.41,1.65,1.07,2c0,0-.28.33-.75-.23a.48.48,0,0,0-.88.33,2.36,2.36,0,0,0,.71,1.4,3.24,3.24,0,0,1,.69,1.3,1.82,1.82,0,0,0,1.24-1.65c.05-1.28.84-3.54,1.4-3.87l.19.2a4.21,4.21,0,0,0-.84,2.58s.19.46.84,0a11.49,11.49,0,0,0,1.62-1.67s.11,1.15-2,2.3c0,0-.83.42-.8,1.11a4.19,4.19,0,0,0,1.53-.24,16.14,16.14,0,0,1,1.82-.41,4.38,4.38,0,0,1-2,1.15c-1.38.42-2.13.46-2.37,1.66a6.94,6.94,0,0,0,2.32,0c.8-.23,1.17-.38,1.17-.38a4,4,0,0,0-.89.66c-.28.33-2.27.08-2.74.23a1,1,0,0,0-.84,1.06l1.85.41-.31.22-2.29.1s-1.12.43-.5,1.2c.32.42,1.7.1,1.7.1s-.31.59-.73.63-2.45-.23-2.64.34.46.87,1.12,1.09a2.59,2.59,0,0,1-1.41.06,3.09,3.09,0,0,0-1.87.16c-.59.2-2.09-.44-2.63,0a.94.94,0,0,0,.08,1.52,6.13,6.13,0,0,0,3.26-.56,1.38,1.38,0,0,1-1.16.78c-.79,0-1.81-.14-1.81.61a1.28,1.28,0,0,0,.75,1.37,1.59,1.59,0,0,0,1.94-.69c.69-.87,1.06-.78,1.49-1.1s.88-.65.88-1a.73.73,0,0,1,0,.91c-.37.52-.83.42-1.26.87,0,0-1,.28-.78,1s.78-.09,1.11.21.7,1,1.59.24.56-2.2.69-2.85a1,1,0,0,0,1.17-.32c.5-.65.94.18.79-1.29s.47-2.26,1.21-2.26a1.5,1.5,0,0,0,1.3-1c.15-.32.83.32,1-.46s.46-1.09,1.06-.91.94,0,1.2-.61a3.44,3.44,0,0,1,1.64-1.46c.73-.43,1.25-.88,1.25-1.36l.23,0a2,2,0,0,1-1.1,1.78c-1.22.65-1.67,1.25-1.62,1.89a.59.59,0,0,0,.92.56c.32-.23.42-.84.6-.69s.33.92.84.46.42-.61.94-.24,2,.37,2-.22-.48-.46-.42-.7.29-.22,1.11.24,2.28-.28,3.49-.88,3.15-1.38,4.22-2a8.81,8.81,0,0,1,3.31-1.06c.87,0,1.07-.76-.67-1.42a3,3,0,0,0-1.47-.05l.19-.32s1.78-.43,4.22,1.56c1.39,1.15,3.39-1.53,3.39-1.53s.37-.31.56-.21-1,1.52-1.26,1.74-1.66,1-1.16,1.46,2.05,1.07,3.72-2.84c0,0,.57-.56.14.74a5.68,5.68,0,0,1-2.18,2.8c-.3.22-.48,1.47,1.25,1.53,1.27,0,2-3.41,2-4.41s.28.23.15,1.32-1.25,3.6-.87,3.81,1.79.18,2.18-3.48c.13-1.39.4,1,.28,1.7s-.93,2-.09,2.11,1.56-1.38,1.56-1.84.75.46,0,1.33-.92,1.79.26,1.86a8.15,8.15,0,0,0,2.35-.34l-.06.46s-2,.15-2.16,1,1.38.5,1.86.67l0,.33s-1.78-.22-1.82.54.91.47,1.89,1.71l-.41.05a1.77,1.77,0,0,0-1.87-.64c-1.25.28-1.06,1-2,.87s-2-1-2.41-.87-.09.64-.43,1,.06.78,1,.55.84.17,1.53.23,1.06-.45,1.61-.23c0,0-.73.77-1.44.65s-1.7-.62-2.09-.23-.31.5.11.85-.19,1.35.59,1.35,1.39-.55,1.82-.55.51-1,1.53-1.42l1.53-.62a1.11,1.11,0,0,1-.6.81c-.51.16-1.58.49-1.31,1s.94.7,1.77.64,1-.32,1.26-1.05a4.22,4.22,0,0,1,1.49-2.07c.66-.41-.5-1.16-.5-2.08s1.39-3.09.59-3.91m-32.92-19.75c0-.3.22-.26.22-.26s.2.47.57.26.1.71-.16.86a4,4,0,0,1-1,.26s.16-.67-.24-.67.64-.14.64-.45m-4.87.22,1.53.21.07.29a6.1,6.1,0,0,1-1.71,0c-.61-.16-.95-1.43-.95-1.43.59-.08,1.06.93,1.06.93m0,1.76c.08-.28.49-.28.49-.28l.11,1.14-.52-.06s-1.15-.63-1.15-1.27c0,0,1,.76,1.07.47m-4-.2.44-1,.95-.2,0,.35s-1,.75-1.12,1.19l-.09.43-.44,0Zm-.82,7.55c-.3,0-.3-.47-.3-.47h.33s.28.47,0,.47m0-1.84-.09-2.5-.19-.48.35-.7.48-.21.09.59-.48.29.12.31,0,2.7Zm2,3.17-.29.12a.59.59,0,0,0-.47-.64.85.85,0,0,1-.68-.51l.2-.17.09-.33.43,0a1.59,1.59,0,0,0,.43.91c.4.36.29.58.29.58m1.4-3.07-.18-.49h-.67a3.65,3.65,0,0,0-.24-1.48c-.27-.63,0-.79,0-.79l-.4-.32.68.17.28,1.14.85.28v.86s-.12.4.13.53-.41.1-.41.1m14.44,8.51L171.85,335l-1.25,0-.08-.3a1.93,1.93,0,0,0,1.18-.34c.55-.39,1.83-1.63,1.83-1.63a.55.55,0,0,1-.14.55m1.78-.37-.59.12a8.23,8.23,0,0,0,.88-1.06,9.78,9.78,0,0,0,.69-1l.44,0Zm12.45-4.07a3.44,3.44,0,0,1-1.83,1.67c.23-.86-.73-4.11-.73-4.11.59-.5,1.29,2.64,1.29,2.64,1.15.07,1.29-2.23,1.29-2.23l.25-.17a6.61,6.61,0,0,1-.27,2.2m-24.51-8.62c-.2.59.52.42,1,.42s.52-.33,1-.38.24-.8.24-.8c-.19.44-2,.15-2.18.76m-.31.65s.11-.17-.25-.76c0,0-.26.7.25.76m20.41,11.83a18.35,18.35,0,0,1-2.36.53c-.6.17.08.89.08.89l-.22.2a1.53,1.53,0,0,0-2.27-.07c-.55.45-1.53.45-1.18,1.15s2.93,0,2.68.45-1.11.24-2.76.2-1.22.32-.9,1.27,3.07.42,2.37.87-2.27-.59-2.27.69.15.86,1.11.66,1.83,0,1.41.1-2,.72-1.88,1.35,1,1.14,1,1.14-.07.26-.76,0-1.47-.55-1,.26.3,1.25.09.91-.4-.91-.9-.94-.59,1.07-.62.8-.42-.69-1.29-.69a4.18,4.18,0,0,1-2.28-1.07,2,2,0,0,0-1.94-.17c-.67.24-.56.86-.49,1.62s.66.79,1.09.31.87-.42,1.39-.1,1.42,0,1.39.17a1.52,1.52,0,0,1-1.44.18c-.47-.29-1.49-.18-1.44.41s.62.38.58.93.77,1.52,1.33.58a5.17,5.17,0,0,1,1-1.39,11.48,11.48,0,0,1,2,0c0,.15-.64.36-1.47.36s-.95.37-.28,1.13,1.1.28,1.78.28a2.41,2.41,0,0,0,1.73-1.18c.12-.28.47-.69.68-.47.47.47.59.65.79.24s1-.24,1.26-.42-.17-1.31-.24-1.92.32-.77.35-1.33.63-.25.63-.79-.43-1.62.68-1.52.69-.57.69-1.14.09-.28,1.07,0,.72-.73.79-1.24.63.42,1.12.37.08-.68.79-1.18.61-.82,0-1.7a1.81,1.81,0,0,0-2-.74m-4.48,12c-.35.38-.74.48-.29.86s.63.32.74-.14a3.41,3.41,0,0,0,.25-1,.86.86,0,0,0-.7.32m-6.7,1.49c.76.07.73-.73.73-.73l-.45-.31c-.62.55-.28,1-.28,1m-2.89-1.73a.71.71,0,0,0-.07.72.63.63,0,0,0,.87-.62s-.56-.55-.8-.1m-1.57-1.73c.7.14.94-.72.94-.72-1.22-.1-.94.72-.94.72m21.37-.74c-.06-.4-1.53.19-.81.55s.81-.55.81-.55m-.3,3.6c1.07.25.84-.85.84-.85s-1.1,0-.84.85m4.55,1.25c.76,0,.56-.9.56-.9-.9,0-.56.9-.56.9M158.43,343c-.38,1.33.89,1.1.89,1.1a1.14,1.14,0,0,0-.89-1.1m-4.56,3.73c.82.08.88-.84.88-.84-1.16-.13-.88.84-.88.84m-4.47-1.6c1.3.13,1-.76,1-.76a.76.76,0,0,0-1,.76m-.55-2.05c.61.11.79-.68.79-.68a.63.63,0,0,0-.79.68m3.49-8.08c.49,1.27.73.78,1.95,0s.33.18,1.11.46.52-.74,1.45-.56,1-.69.74-1.29-1-.49-1.49-.58.48-.7-.09-1.06-.24-1.31-.7-1.72-1.35.15-1.35.15a3,3,0,0,0,.88,2.12,2.79,2.79,0,0,1-1.11-1c-.28-.61-.93-1.66-1.16-.56a3.2,3.2,0,0,0,.23,2c-.19-.28-.65.19-.8-1.28-.14-1.66-.08-1.85-1-1.8s-.84,2.06-.84,2.06-.18.2-.33-.77.37-1.29.56-1.8.15-1.47-.79-1-.73,1.28-1,.87,1.06-2.19,1.06-2.52-.19-.84-1.06.17-1,.51-.88.06,2.49-1.52,1.39-2.17-1.48,1.38-1.8.83,1.65-2.29,1.65-2.29a25.17,25.17,0,0,1,.51-2.54c.33-1.18-.51-1.56-1.25-1.56s-.42,2.34-.42,2.34l-.23-.05c.06-2.1-.51-2-1-2s-1.3.23-.27,1.89.65,2.2.37,1.51-.83-1.38-1.81-.79,0,1.07.51,1.67,1.62,2.06.71,2-.94.14-.94,1.37,1.21.1,1.48,1.06c.59,2,.74,1.8,1.34,2.47.88,1,.9,2.46,1.45,3.51s2.67.18,2.88.79m1.53-5.2-.09-.6s-.51-.06-.51.33.6.27.6.27m-5.31-11,.38-.11c0-.45-.51-.92-.51-.92a.74.74,0,0,0,.13,1m-2.26.45a.81.81,0,0,0,.56-.79c0-.37-1-.13-1-.13l-.11.87a.79.79,0,0,0,.57.05M145,320.91l-.79-.08-.06.82s1.12.38.85-.74m-.79,5.06s.24.61.56.61.12-.79.12-.79-.59,0-.68.18m36.15-7.91c1.3-.05.85-.92.57-1.14s-2.55.35-2.55.35-.22,1,2,.79m2.93-.6c1.17-.36.89-1.19.19-1.15a3.64,3.64,0,0,0-1.2.29s-.14,1.22,1,.86m2.1-.72c.93-.2,1.89-.38,1.76-.88s-2.21-.15-2.38.14c0,0-.31.92.62.74m3.44-.88c1-.19.88-.55.88-.55s0-.46-1.16-.32-.75.58-.75.58,0,.46,1,.29m2.6-.29c.64,0,.79-.22.74-.41s-.47-.36-.84-.36a.86.86,0,0,0-.61.36s.06.41.71.41m2.65.14c.68,0,.74-.26.74-.26s-.06-.52-.74-.42-.7.32-.7.32,0,.36.7.36m2.14.56a3.09,3.09,0,0,1,.85.27.49.49,0,0,0,.21-.59c-.14-.38-1.35-.38-1.35-.38a.42.42,0,0,0,.29.7m1.89,1c.62.51,1.13.19,1.13-.13s-1.07-.79-1.07-.79c-.65,0-.65.43-.06.92m1.61,1.43c.48.19.77.22.87,0a.77.77,0,0,0-1.11-.88s-.29.7.24.88m.77.74s-.14.74.24,1,1,0,.83-.36-.52-1.32-1.07-.64m1,1.7a4.4,4.4,0,0,0-.83.83c-.18.33.23.82.76.82s.62-.86.07-1.65M200,324.27c-.09.69-.09,1.56.38,1.56a1,1,0,0,0,1-1c0-.64,0-1,0-1s-1.33-.25-1.44.44m-.73,1.43s-1,.19-.88.91.73.7.92.51,1-.72,0-1.42m-2.92.78a1.24,1.24,0,0,0,.18,1.1c.37.41,1.2,0,1.42-.23s.06-.63-.41-1.05-1.19.18-1.19.18m-2.1-.32s-.76.91-.37,1.34,1.76.68,1.91.27a1.29,1.29,0,0,0-1.54-1.61"/><path class="cls-4" d="M168.71,284.52A13.37,13.37,0,0,0,165,276c-3.64-3.51-.77-3.23,1.57-3.87a2.78,2.78,0,0,1,2.12-2.39c1.5-.37.61-1.61,3.54-1.84,1.21-.1,1.74-.73,2.23-.73,1.47-.05,1.81,1.12,3.35,3.67a2.61,2.61,0,0,1,1.12,2.48c0,1,1.39-.08,1,3s-1.21,6.52-4.1,7.8-2.78,2.5-2.78,2.5a10.17,10.17,0,0,0,3.7-2.21c1.22-1.39,3.82-4,4-8,0,0-.1-1.73,1.57-.45s2.41-.33,3.54,4.42c.37,1.57,1.11.67,1.67,5.43.18,1.56.94,2.31.18,4.12a6.49,6.49,0,0,1-5.75,4c-3,.1-3.25.37-3.25.37a4.31,4.31,0,0,0,.46,3.59c1.11,2.11,3.06,6.62.75,8.36s-1.78,0-3.73,1.67-2-.37-3.71-.09-1.79,2-4.66,0c-1.85-1.3-3.9-1.2-1.38-3.14a8.49,8.49,0,0,0,3.25-8.37s-.29,10.29-11.16,10.68c-2.61.08-2.33-1.85-2.33-1.85a2,2,0,0,0-1.11-1.19c-.92-.46-.19-3-1-3.79s-2.23-1.73-.55-3.57c0,0-1.51-2.21.18-2.57s5.38,2.48,11-1.11c0,0-7,2.29-11.52-.09-1.4-.73-.27-1.48-1-2.95s-.46-2.39.45-2.66c0,0-.26-1,.19-1.3,0,0-2.13-2.85,1-4.41,1.1-.55,1.65-.28,1.65-.28s-.46-1.09.1-1.27c0,0-1.12-3.59,2.61-4.34,0,0,2.6-2.94,5.48.82s2.43,2.3,5,8.21"/><path class="cls-2" d="M173.35,287.13c-2.62,1-2.46.51-3.22-.31s-3.95-.4-3.83,1.36a14.57,14.57,0,0,1,8.28,3.5c1.86,1.66,3.34,1.11,3.34,1.11s2,1.57,7.72-1.3c1.3-.63,0-.72,0-.72s1.48-1.38,1.3-2.21-3.47,4.22-9.3,3.59c-1.68-.18,2-.56,3.17-.93s4.83-1.83,5.57-4,.1-1.75-1.21-.66-3.71,3.05-5.58,2.95c0,0-.85-.3.37-.5s5.91-2.93,6.5-5.12c.38-1.31-.05-1.83-.6-2a.69.69,0,0,0-1.15,0c-.61.71-2.9,4.92-5.26,5.42,0,0-.57-.2.41-.56s4.71-4.86,4.66-5.62c0,0,0-1.58-.66-1s-1.64,7.45-10.47,8.28c0,0-.56-.42.32-.42s8.58-1.24,10.15-10.15c.2-1.16-1.14-.75-1,0s-1.06,3.24-1.43,3,2-3,.5-3.64c-.55-.26-.4.65-.6,1.5a13.54,13.54,0,0,1-8,8.48m-3.93-3.61c-.13,1.58,1.22-1,1.11-2.28s.3-4,.17-5.07c0,0,.45-.91.5,1.23a25.07,25.07,0,0,1-.81,6.74c-.48,1.17,1.12-1,1.82-3.77,0,0,.73-2.14-.29,2.14a8.75,8.75,0,0,1-1.19,2.33s-.24,1.23,1.43-.86,2.09-4.51,2.48-4.4-.78,3.75-3.13,6.13c0,0,0,1,1,.05a29.18,29.18,0,0,0,3-4.66s.57-.73.38.4a6.23,6.23,0,0,1-1.38,2.44,3.33,3.33,0,0,0,1.43-.82,7.66,7.66,0,0,0,2.87-4.51c.67-2.74.05-4.87-.25-3.45s-1,6.78-1.9,6.18c-.36-.24,2.26-5.58,1.13-7.19,0,0,.06-3.25-1.09-2.24,0,0-.4-3.8-2.52-3.44s.45,2.43-.09,3.6-.7-4-3.07-3.2,1.65,4.26,1,7.3c0,0-.55,1.18-.6-.71s-2.31-6-3.23-4.25c0,0-1.39.45-.57,1.51s1.71,2.5,1.13,2.84-.92-2.53-2.46-2.38-2.26.2-.92,1.52,4.09,6.58,4,8.82m-4.83,8s.35-.71-.41-.41-4.11,2-6.92-.41c0,0-.15-.35.92.31a5.69,5.69,0,0,0,5.74-.66c.86-.82-1.49.1-3.49-.82,0,0-.71-.56.52-.2s2.87.51,2.83-.1-3.28,0-5-1.62c-.88-.82.47.15,1.55.3s3.66,1.27,4.36.2c.55-.86-2.53-1.57-4.12-3.59-1.21-1.58,3.7,2.73,4.25,2.73s.51-.5-2.29-3.45c-2-2,2.71,2.58,3.17,2.33s-.82-3.34-4.15-6.39c0,0-.21-.65.51-.3a14,14,0,0,1,4.32,6.14s1.63-1.17-1.8-6.14c0,0,2.56,1.52,2.56,6.49,0,0,0,.3.26.3s.4-1.21.19-2.53-3.43-8.39-7.73-8.11c-2.3.14,1.73.77,3,2.68,0,0,.25.71-.31.26s-3.54-3.14-5.12-1.32-.68,1.77,1,2.79,1.13,1,.81.92-2.62-1.35-2.88-.62c-.39,1.27,1,1.37,1.45,1.82s-2.81-.75-3.43,0-1.59,1.22-.78,3.65c.52,1.52,4.06,1.83,5.28,2.72s-2.72-.07-4.4-1.3-1.23.61-.81.71,1.69.3,1.69.76-1.69-1-2.48-.31.59,1.12.72,1.74-1,2.43,2,2.94,5.89.9,9-1.47m-.24,11.88c-.28-.21,1.53-1.72,2.09-2.2s1.11-2-.14-.56S164,302,165,301.36s4-5.79,3.21-5.72-.49,1-1.33,2.28-1.81.89-.63,0,1.13-4.07.56-2.83c-.76,1.69-4.54,3.86-4.54,3.45s3.42-2.35,3.83-3.24-.68-.15-1.73.75-3.2.62-1.74.21a6.75,6.75,0,0,0,2.79-1.86c.83-.7.78-2.2-.29-1.18-3.16,3.15-10,1.73-10,1.73-1.67-.32-1.33,1.24-.29,1.52.85.2,1.74.14,1.48.83-.4,1-3.07-1.66-2.31,1s5.73.42,4.82,1.33-3.36-.15-3.57.62-.27.82.43,2.39,5.72-.53,5.36-.05-2.92,1-2.92,1-2.58.61-1,.61c3.07,0,3.42.21,2,.36s-2.09.27-1.6,1a2.17,2.17,0,0,0,1.6.69c8.43-.69,9.27-7.45,9.27-7.45-.48,2-3.76,4.9-4,4.69m14.23-5c-1.4-3-1.54-2.08-3.14-4.14-.87-1.15-8.85-5-9.49-3.94,0,0-.42,1.11,0,1.65s1.2,1.32,1,1.88,1.26-1.17,2.51.41,3,3.74.2,8.63c-1.17,2.07-4.66,2.4-2.28,3.3s3.69-3.1,4.39-4.41-.28,2-.84,2.84-.64,1.64-1.62,2.26-.06,1.39,1.06.84a4.51,4.51,0,0,0,2.44-3.33s.34-.61.21,2,3-4.34,0-9.73c0,0,1,5.46,0,6.42s.7-3.79-1.25-7.17c0,0,.41,0,.27-.9,0,0,3.09.68,2.79,10.41,0,0-1.26,1.93.27,1.93s1.12-1.65,1.12-1.86-.28-6.35-.84-7.24c0,0,.42-.69.79,1.72s.82,3.52.54,4.64.42,1.92.77,1.3,1.74-6.62-5-12l.28-.27s5.79,3,5.71,12c0,0,.21.34.84-.08s.84-1.18.49-2.55.4-1.09-1.25-4.62m25.93,6.34c-.42-.82-3.13-1.37-3.13-1.37l.75-.71s1.27.77,1.46-.4-1.8-1.31-2.08-.48a.92.92,0,0,1-1,.68,1.45,1.45,0,0,0,.07-.83c-.18-1.46-2.09-.46-1.32.57s.42,1.3.42,1.3,0,.36-.5-.28-1.88-.13-1.67.64,1.54.4,1.54.4c-.15.7-2.65.42-2.65.42s-.15-.42.55-1.18.29-1.51-.33-1.24-1.21,2.36-1.21,2.36l-1-.29a4.22,4.22,0,0,1,1-1.17c.49-.27.76-1.24,0-1.38s-1.81,2.2-1.81,2.2l-.91-.26.49-.83c.27-.48,1.32-1,1.18-1.53s-1.25-.19-1.54.56a3.72,3.72,0,0,1-1,1.37s-1-.27-.9-.75,1.94-1.18,1.39-1.87-1,.15-1.26.69a3.76,3.76,0,0,1-1.12,1.1s-1.6-.4-.9-.75,2.3-1,2-1.73-1.19-.21-1.74.63a1.81,1.81,0,0,1-1.39.82c-1-.2-7.19-5.17-8.16-6.48s-1.81-.69-1.81-.69-1.34-.27-4.25-2.63a15.87,15.87,0,0,0-6.91-3c-.49-.07-1.44-.4-1.6.36-.14.6.84.53.84.53,1.19.15,10.45,3.25,12.89,6.9s8,6.7,8,6.7l.07,1.59s-.56,2.27.76,2.08.15-2,.15-2l-.15-1.1,1,.75c0,2.07.5,3.2,1.42,2.85s0-1.32-.3-1.74a1.08,1.08,0,0,1,0-1l1.34.75c-.14,2.14.27,2.63,1.12,2.55s.21-1.16-.08-1.38-.14-.89-.14-.89l1.11.48c-.22,1.31.42,3.11,1.33,2.63s-.35-1.6-.35-1.6l-.07-.62,1,.08s.21,2.48,1.12,2.41.92-1.36.49-1.59-.14-.48-.14-.48c3.15,0,4.18-.76,4.18-.76.21,2.36.91,1.94,1.47,1.47s-.62-2-.77-2.78,1.12-.19,1.82.69,1.6.07,1.18-.76"/><path class="cls-4" d="M145.19,221.88,161.34,226l1.52-1,2.23,1.06,1.68-.79,1.94.7,2.16-.52.51,1,5.15.88,73.37-7.65v-.61l-4.44-4.56,4.81-.88V213l-4.09-3,4.34-1.24v-.52l-6.12-3.08,5.59-1.75.28-.52-6.49-2.64,3.91-1.32.08-.52-5.05-2.11v-.71l-7.47-1.92V193l-13-1.93-33.9,13.61a13.22,13.22,0,0,0-6,.61,14.66,14.66,0,0,1-5.41,1l35.22-13.78s1.78-.44,1-2.91S209,179,209,179a2.56,2.56,0,0,0-3.44-1.5c-3.6,1.17-22.37,7.81-22.37,7.81l3.53-7.38-8.16,2.3V178.5l-2.65.81-1.07-.81-.44.19-1-.53.08-.62-1.15.09-1.07-.88-1-.34.18-.44.88-.18v-1l-1-.18.78-1.93-1-.52-.17-.88-.44-.26.53-1.67-63.53,3.42L96.5,183.43l4.35.35L96.67,188h4.7l-5.22,6.85,5.14-.71-4.08,7.12,3.82-.17-1.51,2.63,3.28-.53-1.86,2.9h3.26l-2,3.08,3.27-.53-1.76,3.16,3.45-.35-1,1.84,15.53-5.09,5.06,15.54s.44,2.73,4.62.87,41.78-16.76,41.78-16.76a8.25,8.25,0,0,0,5.32.7Z"/><path class="cls-5" d="M148.46,221.77,185,206.68s1.2-1,4.22.13c2.19.8,1.34,2,4.13,1.4,2.18-.45.31-2.92-1-1.81,0,0-1.68-1-2.35-1.36l31.26-13c1.59-.7,11.26,1,11.26,1v.55l-71.65,31.6Z"/><path class="cls-5" d="M164.21,224.33l.24.69,1.34-.15,74.41-28.76,0-.51s-5.59-1.57-7.75-1.31Z"/><path class="cls-5" d="M167.78,224.72v.46l1.21.1,76.35-26.76.11-.5-3.63-1.51a3.52,3.52,0,0,0-1.37.19c-.51.27-72.67,28-72.67,28"/><path class="cls-5" d="M172,225l.37.82,1.73,0,73.93-23,0-.35-5.27-1.91s-.34-.2-1.63.15S172,225,172,225"/><path class="cls-5" d="M177.37,225.53l.71.31,70.22-17.57v-.35l-5-2.47a2.55,2.55,0,0,0-1.41.09c-1.06.26-64.51,20-64.51,20"/><polygon class="cls-5" points="187.46 224.16 244.78 209.93 248.2 212.76 189.2 224.22 187.46 224.16"/><polygon class="cls-5" points="187.41 224.97 187.31 225.48 248.46 218.66 248.35 218.31 244.52 214.48 187.41 224.97"/><polygon class="cls-6" points="245.46 214.52 245.03 214.08 250.27 213.02 250.27 213.64 245.46 214.52"/><polygon class="cls-6" points="249.9 219.08 190.61 225.78 249.9 219.69 249.9 219.08"/><polygon class="cls-6" points="246.18 210.03 245.75 209.63 250.52 208.28 250.52 208.8 246.18 210.03"/><polygon class="cls-6" points="243.71 204.83 244.4 205.2 249.99 203.45 250.27 202.93 243.71 204.83"/><polygon class="cls-6" points="243.78 200.29 247.69 198.97 247.77 198.44 242.93 200.04 243.78 200.29"/><polygon class="cls-6" points="242.72 196.34 241.91 196.01 242.72 195.63 242.72 196.34"/><path class="cls-5" d="M193.8,207a.63.63,0,0,1-.63.64.65.65,0,0,1-.65-.64.63.63,0,0,1,.65-.63.61.61,0,0,1,.63.63"/><path class="cls-5" d="M174.37,207.41a2.9,2.9,0,0,1,2.19-.84,14.56,14.56,0,0,0,4.88-.53c1.24-.53,5.28-1.74,8-.58s2.93,1.9,2.67,2.22-2.3-1.85-4.27-1.8a16.19,16.19,0,0,0-6.44,1.37c-2.6,1.1-7.4,1-7,.16"/><polygon class="cls-5" points="101.8 182.67 98.81 182.67 107.55 174.03 168.54 170.44 168.71 171.08 106.43 177.06 101.8 182.67"/><polygon class="cls-5" points="99 187.09 107.09 177.61 169.28 171.64 169.19 172.05 168.26 172.46 170.07 172.46 169.98 173.2 167.03 173.57 166.86 174.21 105.8 182.67 102.07 187 99 187.09"/><polygon class="cls-5" points="98.25 193.71 106.53 183.41 169.64 174.39 169.64 174.74 169.1 174.88 169.1 175.12 170.22 175.17 170.22 175.63 103.83 189.85 101.8 193.16 98.25 193.71"/><polygon class="cls-5" points="98.91 200.14 104.49 190.5 169.75 176.41 169.83 177.15 105.98 193.34 101.8 199.97 98.91 200.14"/><polygon class="cls-5" points="101.15 202.63 106.29 194.05 171.23 177.34 171.13 178.07 107.36 195.36 103 202.54 101.15 202.63"/><polygon class="cls-5" points="102.26 205.29 107.84 195.92 172.72 178.35 172.72 178.89 109.71 197.21 104.58 205.29 102.26 205.29"/><polygon class="cls-5" points="103.75 208.15 110.16 197.75 173.83 179.27 174.02 179.82 111.65 198.49 105.98 207.79 103.75 208.15"/><polygon class="cls-5" points="105.05 210.91 112.02 199.23 177.83 179.36 177.83 180.37 112.48 200.34 107.65 210.63 105.05 210.91"/><path class="cls-5" d="M125.32,205.67c-3.58,1.06-2.51,3.4-2.51,3.4s3.79,11.69,4.74,13.89,2.5,1.11,2.5,1.11,79.95-31.73,81.32-32.24a1.6,1.6,0,0,0,1-2.08s-2.38-6.7-3.41-9.62-3.45-1.79-3.45-1.79l-39.14,13.49c2.26,3.09,2.08,5.49,2.08,5.49a2.49,2.49,0,0,1,.44,1.57c-.07.84-1.76,1.43-2.23.47s.28-1.25.28-1.25a6,6,0,0,0-.31-3.1,9.09,9.09,0,0,0-2.39-2.74Z"/><path class="cls-5" d="M108,211.73l5.16-10.84,72-22-2.79,6.54-16.72,5.75a6.72,6.72,0,0,0-5.29-1.53c-3.07.51-5.79,2.63-8.15,3.11s-3.28.18-3.66-.25-2.27-.27-2.13.88.93,1.11,1.86,1a9.85,9.85,0,0,0,6-.7c3.16-1.42,5.15-2.81,7.67-2.44a4.09,4.09,0,0,1,1.33.44l-.25.39L124.94,205a4.79,4.79,0,0,0-3.1,2.2Z"/><path class="cls-4" d="M128.3,210.72l3.56,8.4.94-.36-3.57-8.41Zm5.81,6.23L131,209.67l-1,.37,3.56,8.39,3.24-1.23-.48-1.13Zm3.33-9.74,1.6,6.62h0L135.34,208l-1.46.57,3.54,8.4.91-.34-3-7h0l4.16,6.52.8-.3-1.76-7.45h0l3,7,.89-.34-3.57-8.4Zm6-2.3-.95.37,2.57,6c.44,1.06.34,1.64-.21,1.85s-1.09-.14-1.52-1.19l-2.56-6-1,.36,2.52,5.93c.81,1.93,1.79,2.39,2.93,2s1.51-1.4.67-3.34Zm5.07-2-1.81.69,3.26,8.46.93-.34-1.36-3.5.8-.3c1.07-.41,1.29-1.63.72-3.14s-1.43-2.29-2.54-1.87m1.28,4.05-.65.23L148,204.24l.58-.22c.72-.28,1.2.18,1.54,1.09.41,1.08.14,1.62-.34,1.82m4.33-6.18-.9.35,2.34,6.06c.41,1.07.31,1.66-.22,1.86s-1.05-.15-1.45-1.22l-2.33-6.07-.93.34,2.29,6c.77,1.95,1.69,2.4,2.81,2s1.47-1.38.7-3.33Zm3.68-1.39,2.42,6.29v0L156.1,200l-1.11.43,3.25,8.47.87-.32-2.51-6.49h0l4.15,5.84,1.11-.42L158.61,199Zm7.41,3.4-.91.34.06.15c.3.78.69,2.07-.06,2.35s-1.24-.31-2.29-3-1-3.46-.32-3.72,1.14.56,1.44,1.33l.07.15.9-.35,0-.15c-.35-.89-1.13-2.62-2.76-2-1.44.54-1.36,2.09-.2,5.12s2.16,4.22,3.6,3.69,1.17-2.17.59-3.71Zm1.13-6.66,1.32,3.39-1.68.64-1.3-3.39-.92.35,3.27,8.46.91-.35-1.53-3.93,1.69-.64,1.52,3.93.93-.35-3.28-8.46Zm2.86-1.15,1.64,9.09.95-.36-.44-2.22,1.68-.64,1.15,1.94,1-.36-4.78-7.9Zm1.91,5.37-.93-4.43h0l2.27,3.92Zm6.29-8.31-1,.38-.32,4.34h0l-1.37-3.69-.92.33,3.17,8.49.9-.34-1-2.74.1-1.27,2.79,3.29,1-.38-3.64-4.22Zm4.15,6.81-1-2.71,2-.77-.42-1.14-2,.78-.89-2.35,2.14-.82-.43-1.15-3,1.17,3.18,8.48,3.09-1.19-.42-1.13Zm3.51-9.74,1.37,6.67h0L183,189.84l-1.38.54,3.17,8.48.86-.33L183,191.48v0l3.8,6.64.74-.29-1.5-7.49h0l2.64,7.06.86-.33-3.19-8.49Zm3.38-1.28,1.56,9.09.95-.35-.42-2.23,1.65-.63,1.11,1.95.94-.35-4.64-7.92Zm1.85,5.37-.9-4.44h0l2.21,3.93Zm3.77-7.52-.89.34,2.21,5.94c.32.86.63,1.69,0,1.91s-.8-.35-1.07-1.05l-.15-.41-.86.32.21.55c.44,1.11,1.09,2.05,2.26,1.63.89-.33,1.27-1.23.56-3.09Zm4.25-1.63-.89.35,2.28,6.08c.39,1.06.28,1.65-.24,1.85s-1-.17-1.41-1.22L195.76,185l-.91.34,2.22,6c.74,2,1.66,2.43,2.73,2s1.44-1.36.72-3.32Zm1.93-.73,1.57,9.09.93-.37-.4-2.21,1.65-.62,1.12,1.94.92-.36-4.63-7.92Zm1.85,5.37-.88-4.45h0l2.21,3.94Zm6.83,1,1.11-.43-3.19-8.48-.83.33,2.36,6.33h0l-4-5.7-1.09.42,3.16,8.48.85-.32-2.41-6.49h0Z"/><path class="cls-5" d="M167.43,198.27s-.28-.15-.28,0c0,.7,0,1,.82.56s.1-.82.1-.82c-.37-5.8-3-7-5.36-7.82-2.21-.79-6.26,1.15-8.16,2.26a8.67,8.67,0,0,1-5.54.82c-.78-.27-1.1.18-1.1.18-.18.41.27.92,2.32.92s5.62-1.89,6.88-2.34,3.86-2.07,6.5-.74a7.22,7.22,0,0,1,3.82,7"/></svg>