<svg xmlns="http://www.w3.org/2000/svg" viewBox="0 0 922.91 652.91"><defs><style>.cls-1{fill:#23a6d5;}.cls-2,.cls-33{fill:#8f0b89;}.cls-3{fill:#070c21;}.cls-4{fill:#2d231a;}.cls-5{fill:#142142;}.cls-6{fill:#e37565;}.cls-7{fill:#dbecf5;}.cls-8{fill:#2d2d2d;}.cls-9{fill:#2a3e68;}.cls-10{fill:#101c35;}.cls-11{fill:#d16459;}.cls-12{fill:#24365b;}.cls-13{fill:#bed9e5;}.cls-14{fill:#ebb04b;}.cls-15{fill:#fcc87c;}.cls-16{fill:#fffae3;}.cls-17{fill:#eae3c3;}.cls-18{fill:none;stroke:#2d2d2d;stroke-miterlimit:10;}.cls-19{fill:#e4b181;}.cls-20{fill:#dd8e6c;}.cls-21{fill:#cd8444;}.cls-22{fill:#5f2215;}.cls-23{fill:#c67752;}.cls-24{fill:#f0ecdc;}.cls-25{fill:#b16444;}.cls-26{fill:#fff;}.cls-27{fill:#e1a443;}.cls-28{fill:#dad7cf;}.cls-29{fill:#f0c962;}.cls-30{fill:#f6dfa2;}.cls-31{fill:#934d30;}.cls-32{fill:#9f4d13;}.cls-33{font-size:14.37px;font-family:AlfaSlabOne-Regular, AlfaSlabOne Regular;letter-spacing:0.08em;}.cls-34{letter-spacing:0.08em;}.cls-35{letter-spacing:0em;}.cls-36{fill:#a9a7ae;}.cls-37{fill:#c532be;}.cls-38{fill:#d2d4d7;}.cls-39{fill:#52587d;}.cls-40{fill:#7297ae;}.cls-41{fill:#619475;}.cls-42{fill:#e1e1e4;}.cls-43{fill:#ede6df;}.cls-44{fill:#d8d1d0;}.cls-45{fill:#3c3e62;}</style></defs><title>reg-pic</title><g id="OBJECTS"><path class="cls-1" d="M184.63,158.68s-44.42,26.81-36.25,93.13S196.71,362.92,166,395.56s-92.83,77.63-30.7,156H754.57s41.33-45.78,13.53-146,43.07-166.51-50.41-203.19S587.87,210.89,462.15,170,258.48,109.3,184.63,158.68Z"/><path class="cls-1" d="M137.47,337.89a59.31,59.31,0,0,1,5.89,23.36c.45,13.12-18.56,29-10,32.13s22.18-12.67,24.44-31.23-3.14-37-13.34-35.9S137.47,337.89,137.47,337.89Z"/><path class="cls-1" d="M444.13,152.22a11.14,11.14,0,0,0,4.71,3.16,309.87,309.87,0,0,0,43.42,12.18c22.91,4.38,29.9,1.4,31.67-4.24s-9.44-7.6-18.26-8.82-34.8-5.3-46.42-11.41C448.83,137.62,438,145.05,444.13,152.22Z"/><path class="cls-1" d="M773,360.82a19.36,19.36,0,0,0-1.09,7.32c.21,5.73,1,19.87,4,31.12,3.85,14.49,5.43,18.79,11.32,18.9s7-4.64,4.75-13.69-5.43-18.56-6.56-33.27-2.88-16.29-7.67-15.61C775.32,355.93,773.84,358.42,773,360.82Z"/><path class="cls-2" d="M223.1,179.67v33a.92.92,0,0,0,1.83,0v-33a.92.92,0,0,0-1.83,0Z"/><path class="cls-2" d="M220.43,230.51s-1-17.41,3.58-17.81,4.88,17.81,4.88,17.81H226l-.69-5.63-.69,5.63Z"/><path class="cls-3" d="M223.86,180.4,274.41,191a1.35,1.35,0,0,0,.49,0l50.93-10.56a1.21,1.21,0,0,0,.28-2.28l-50.73-24.26a1.21,1.21,0,0,0-1.05,0l-50.74,24.26A1.21,1.21,0,0,0,223.86,180.4Z"/><path class="cls-4" d="M302.31,196.18s-17.51-3-27.66,4.78c0,0-5.37-7-28.64-3.58,0,0-9.75,11.53-3,32.42S293.75,240,293.75,240s10.35-2,14.72-16.91S305.49,199.17,302.31,196.18Z"/><path class="cls-5" d="M246,197.38l-1.2-18.9s29.45-18.7,59.68,0l-2.18,17.7s-17.51-3-27.66,4.78C274.65,201,269.28,194,246,197.38Z"/><path class="cls-6" d="M289.3,195.87c-5,.5-10.44,1.87-14.65,5.09,0,0-2.17-2.81-9.72-4-4.83,2.41-13.19,8.83-18.33,25.47,0,0,3.38,20.69,6.77,30.44s9.94,13.13,22.48,13.33,19.89-1.59,24.67-17.51,4.77-24.27,4.77-24.27S300.09,205.18,289.3,195.87Z"/><path class="cls-6" d="M247.41,227.09s-3.8-3.85-6.78,1.72,3,21,10.27,15.29h0C249.46,238.07,248.19,231.41,247.41,227.09Z"/><path class="cls-6" d="M310.49,228.81c-1.8-3.38-3.91-3.29-5.28-2.7a103.35,103.35,0,0,1-3.62,18.83C308.19,247.9,313.29,234,310.49,228.81Z"/><path class="cls-7" d="M276,233.78c-4.13.3-18.4,6.72-25.16,9.85.82,3.45,1.7,6.72,2.58,9.25,3.38,9.75,9.94,13.13,22.48,13.33s19.89-1.59,24.67-17.51c.49-1.65.92-3.2,1.32-4.69C295.63,240.9,280.28,233.47,276,233.78Z"/><path class="cls-6" d="M275.85,266.21a35.91,35.91,0,0,1-12-1.84h0v14s.44,13.88,10.8,15.31c12.93,1.79,12.93-15.91,12.93-15.91v-12.7C284.27,266.09,280.4,266.28,275.85,266.21Z"/><path class="cls-8" d="M287.58,265.05c-3.31,1-7.18,1.23-11.73,1.16a35.91,35.91,0,0,1-12-1.84h0v14C280.7,277.55,287.58,265.05,287.58,265.05Z"/><path class="cls-8" d="M262.92,228.6c0,2.86-1.34,5.17-3,5.17s-3-2.31-3-5.17,1.33-5.16,3-5.16S262.92,225.75,262.92,228.6Z"/><path class="cls-8" d="M294.39,228.6c0,2.86-1.34,5.17-3,5.17s-3-2.31-3-5.17,1.34-5.16,3-5.16S294.39,225.75,294.39,228.6Z"/><path class="cls-8" d="M276,233.78a7.45,7.45,0,0,1-.33-2.39A8.37,8.37,0,0,1,276,229a4.56,4.56,0,0,1,.59,2.39A4.85,4.85,0,0,1,276,233.78Z"/><path class="cls-8" d="M253.06,222.21a6.45,6.45,0,0,1,.31-.58c.12-.2.25-.41.38-.6l.26-.37.13-.17c-.12.16,0,0,.08-.1a10.31,10.31,0,0,1,1.59-1.58,8.12,8.12,0,0,1,2.2-1.2,7.88,7.88,0,0,1,3.51-.32.92.92,0,0,0,.92-.92.94.94,0,0,0-.92-.91,10,10,0,0,0-9.6,5,8.94,8.94,0,0,0-.44.8,1,1,0,0,0,.33,1.26.92.92,0,0,0,1.25-.33Z"/><path class="cls-8" d="M299.8,221.28a11.1,11.1,0,0,0-6-5.44,9.19,9.19,0,0,0-4-.38.94.94,0,0,0-.91.91.92.92,0,0,0,.91.92,7.61,7.61,0,0,1,5.51,1.37,7.35,7.35,0,0,1,.83.69,9.11,9.11,0,0,1,.8.84l.31.37c-.1-.12,0,0,0,0s.11.15.16.22c.16.22.3.44.44.67a6.23,6.23,0,0,1,.39.72.92.92,0,1,0,1.58-.93Z"/><path class="cls-5" d="M287.58,279.08h-.06c-.3,4.08-2.11,16.07-12.87,14.58-10.36-1.43-10.8-15.31-10.8-15.31l-13,5.7,24.82,51.46,25.13-50.76Z"/><path class="cls-5" d="M378.43,471.05S354,320.92,342.36,306.93s-41.51-22.18-41.51-22.18l-25.13,50.76L250.9,284.05c-48.48,14.06-46.47,18.83-54.43,51.46s-29.5,118-29.5,118c7.1,29.71,35.87,32.89,35.87,32.89l-4.78,64.19H350.85l-2.65-56.76C364.11,488.56,378.43,471.05,378.43,471.05Z"/><polygon class="cls-9" points="275.72 335.51 275.64 362.4 275.43 389.3 274.82 443.08 273.93 496.86 273.38 523.74 272.7 550.63 272.78 523.74 272.99 496.84 273.6 443.06 274.5 389.28 275.04 362.39 275.72 335.51"/><path class="cls-2" d="M275.23,370.33l41.28-80a143.36,143.36,0,0,0-15.66-5.54l-25.13,50.76L250.9,284.05c-5.77,1.67-10.82,3.21-15.26,4.69Z"/><path class="cls-6" d="M194.76,502.22a156.1,156.1,0,0,1,1-17.5A45,45,0,0,1,178.09,474c-.45,5.65-1.5,18.79-1.91,24.13-.53,6.9,3.71,18.57,6.5,26.79s4.11,10.35,6.76,10.08,2-4.51,2-4.51,1.46,1.19,2.92-2.12-1.46-15.65-1.46-15.65S194.77,513,194.76,502.22Z"/><path class="cls-6" d="M372.51,477.42a82.18,82.18,0,0,1-17.36,13.36c.23,3.18.42,7.12.42,11.44,0,10.74,1.86,10.48,1.86,10.48S354.52,525,356,528.35s2.91,2.12,2.91,2.12-.66,4.25,2,4.51,4-1.86,6.77-10.08,7-19.89,6.5-26.79C373.8,493.67,373,483.86,372.51,477.42Z"/><path class="cls-8" d="M243.64,234a5.11,5.11,0,0,1,1.32-2.82,4.89,4.89,0,0,1,.45-.23c-.07.05-.24-.06-.23,0s.13.1-.07-.06c0,0,.11.09.1.1s-.11-.21,0,.05c0,.09.09.17.13.25s0-.06.07.15.1.28.14.42a35.76,35.76,0,0,1,1.16,8c0,.77.11,1.54.14,2.32.05,1.17,1.88,1.18,1.83,0-.1-2.35-.31-4.71-.62-7-.24-1.76-.76-7.37-3.84-5.62-1.37.78-2.07,2.59-2.38,4.06-.24,1.15,1.53,1.64,1.77.49Z"/><path class="cls-8" d="M310.71,232.74a3.58,3.58,0,0,0-1.58-2.39,2.54,2.54,0,0,0-2.35,0,2.82,2.82,0,0,0-1,1,11.5,11.5,0,0,0-1.28,3.33c-.32,1.24-.57,2.5-.77,3.77-.13.75-.24,1.51-.33,2.27a.92.92,0,0,0,.92.91.93.93,0,0,0,.91-.91c0-.13,0-.26.05-.39s0,.24,0,0c0-.09,0-.17,0-.25l.09-.6c.16-1.07.35-2.13.59-3.19a20.83,20.83,0,0,1,.92-3.15l.12-.26c0-.09.08-.18.13-.27s.1-.18.16-.27.2-.29.13-.2.09-.08.11-.12-.06,0,0,0l.08-.05c.17-.06-.19.05-.07,0a1.4,1.4,0,0,1,.37-.07.43.43,0,0,1,.22,0s.22.16.16.1l.12.12.06.06a3.79,3.79,0,0,1,.2.34l.06.13c.1.18,0,0,0,0l.09.27a1.64,1.64,0,0,1,.07.28.92.92,0,0,0,1.77-.49Z"/><path class="cls-5" d="M183.47,488.56c1.17,4.77,2.05,9.56,3,14.33.48,2.38,1,4.77,1.61,7.08a5.08,5.08,0,0,0,1.64,2.92,2.2,2.2,0,0,0,1.54.51,3.06,3.06,0,0,0,1.61-.7,2.79,2.79,0,0,1-1.56,1,2.65,2.65,0,0,1-1.92-.33A4,4,0,0,1,188,512a5.07,5.07,0,0,1-.45-.86,8,8,0,0,1-.35-.88,50.15,50.15,0,0,1-1.9-7.14A97.86,97.86,0,0,1,183.47,488.56Z"/><path class="cls-5" d="M191.43,530.47a69.28,69.28,0,0,1-2.79-18.17,60,60,0,0,1,2,9A62.37,62.37,0,0,1,191.43,530.47Z"/><path class="cls-5" d="M366.85,488.56A99.18,99.18,0,0,1,365,503.13a51.52,51.52,0,0,1-1.9,7.14,8.15,8.15,0,0,1-.36.88,4.44,4.44,0,0,1-.45.86,4.11,4.11,0,0,1-1.4,1.38,2.68,2.68,0,0,1-1.93.33,2.79,2.79,0,0,1-1.56-1,3.1,3.1,0,0,0,1.61.7,2.24,2.24,0,0,0,1.55-.51,5.12,5.12,0,0,0,1.63-2.92c.65-2.31,1.13-4.7,1.61-7.08C364.8,498.12,365.68,493.33,366.85,488.56Z"/><path class="cls-5" d="M358.89,530.47a62.37,62.37,0,0,1,.79-9.18,61.28,61.28,0,0,1,2-9,69.28,69.28,0,0,1-2.79,18.17Z"/><path class="cls-10" d="M259.3,172.44a58.77,58.77,0,0,0-14.49,6l1.2,18.9a68.2,68.2,0,0,1,17-.66C254.76,187.94,257.1,177.8,259.3,172.44Z"/><path class="cls-3" d="M190.49,482.63a43.79,43.79,0,0,0,12.35,3.81l14.65-110.52Z"/><path class="cls-3" d="M202.84,486.44l-4.78,64.19H272.7C203,550.63,202.84,486.44,202.84,486.44Z"/><path class="cls-3" d="M337.29,370.33,348.2,493.87c15.91-5.31,30.23-22.82,30.23-22.82C351.38,483.79,337.29,370.33,337.29,370.33Z"/><path class="cls-9" d="M223,339.17c-1.43,12.31-3,24.59-4.57,36.88l-4.9,36.84-5.18,36.8-2.69,18.38-2.81,18.37L205.06,468l2.35-18.43,4.9-36.84,5.18-36.8C219.27,363.66,221.07,351.41,223,339.17Z"/><path class="cls-9" d="M333.87,339.17c1.45,12.87,2.76,25.75,4.05,38.63l3.72,38.66,3.44,38.69,1.62,19.35,1.5,19.37-2.09-19.31-2-19.32-3.72-38.67L337,377.89C335.89,365,334.81,352.08,333.87,339.17Z"/><path class="cls-11" d="M195.05,492.57c.21-3.45.49-6.2.68-7.85A45,45,0,0,1,178.09,474c-.34,4.19-1,12.5-1.49,18.69C180.29,491.25,186.16,490.43,195.05,492.57Z"/><path class="cls-11" d="M373.3,487.36c-.27-3.47-.56-7-.79-9.94a82.18,82.18,0,0,1-17.36,13.36c.15,2.08.28,4.48.36,7.1C359.15,493.94,366.58,487,373.3,487.36Z"/><path class="cls-12" d="M300.65,176.31c-.7,5-3.49,13.76-14,19.9a53.47,53.47,0,0,1,15.64,0l2.18-17.7C303.21,177.68,301.93,177,300.65,176.31Z"/><path class="cls-13" d="M287.58,265.05c-21.82-.3-22.85-17.93-21.63-28.05-5.36,2.15-11.41,4.89-15.16,6.63.82,3.45,1.7,6.72,2.58,9.25,3.38,9.75,9.94,13.13,22.48,13.33,4.55.07,8.42-.12,11.73-1.16Z"/><path class="cls-5" d="M259.93,240.37a13.61,13.61,0,1,1,13.61-13.61A13.62,13.62,0,0,1,259.93,240.37Zm0-26a12.39,12.39,0,1,0,12.39,12.38A12.4,12.4,0,0,0,259.93,214.38Z"/><path class="cls-5" d="M292.29,240.37a13.61,13.61,0,1,1,13.61-13.61A13.62,13.62,0,0,1,292.29,240.37Zm0-26a12.39,12.39,0,1,0,12.39,12.38A12.39,12.39,0,0,0,292.29,214.38Z"/><path class="cls-5" d="M273.41,227.14l-1-.75c.07-.09,1.75-2.24,4-2.17a4.27,4.27,0,0,1,3.38,2.2l-1,.69a3.16,3.16,0,0,0-2.41-1.67C274.8,225.4,273.43,227.12,273.41,227.14Z"/><path class="cls-2" d="M224.75,212.81a1.67,1.67,0,0,0-.74-.11c-4.57.4-3.58,17.81-3.58,17.81h2.26C221.77,216.32,224.07,213.36,224.75,212.81Z"/><path class="cls-14" d="M679.33,266.29s-1-17.8,3.66-18.21,5,18.21,5,18.21h-3l-.72-5.75-.7,5.75Z"/><path class="cls-15" d="M683.74,248.2a1.56,1.56,0,0,0-.75-.12c-4.68.41-3.66,18.21-3.66,18.21h2.31C680.69,251.78,683.05,248.76,683.74,248.2Z"/><path class="cls-2" d="M683.39,250.05a1,1,0,0,1-1-1V210.16a1,1,0,0,1,2,0V249A1,1,0,0,1,683.39,250.05Z"/><path class="cls-3" d="M630.8,203l-32.26,38.43a1.38,1.38,0,0,0,1.27,2.25l44.76-7a1.33,1.33,0,0,0,.54-.21l39.43-26a1.38,1.38,0,0,0-.61-2.52L632,202.47A1.39,1.39,0,0,0,630.8,203Z"/><path class="cls-4" d="M646.92,232.66s-15,2.44-21.6,16.66-4.61,33.31-10.83,50c0,0,11.08,17.1,42,14.88s40.66-13.55,40.66-13.55-1.29-8.1-2.67-18.54-5.77-34.1-12.21-42.54S663.58,228.66,646.92,232.66Z"/><path class="cls-6" d="M669.8,237.71s-2.17,14.49-18.66,24.16c0,0,4-4.34,5.66-13.5,0,0-6.82,11.83-18,16.49,0,0,5.17-4.66,7.67-9.32,0,0-13,9.16-15.5,17.65,0,0,5.34,15.83,8.83,21s13.66,10.16,25,7.66c10.77-2.37,17.49-7.32,20.16-18.82S685.62,250,669.8,237.71Z"/><path class="cls-6" d="M631,273.19s-4.33-2.33-5.49,3.83,3.66,17.61,11.74,12.31h0C634.17,282.65,631,273.19,631,273.19Z"/><path class="cls-6" d="M690.45,261a4.85,4.85,0,0,0-5.79,1.08h0a51.28,51.28,0,0,1,1,16.76h0C696,278.24,694,262.7,690.45,261Z"/><path class="cls-7" d="M658.46,275c-7.33,1.16-21.23,14.3-21.23,14.3a36.4,36.4,0,0,0,2.58,4.85c3.5,5.17,13.66,10.16,25,7.66,10.77-2.37,17.49-7.32,20.16-18.82a38,38,0,0,0,.69-4.14S665.8,273.86,658.46,275Z"/><path class="cls-8" d="M646.48,271.72c1,2.65.73,5.26-.73,5.84s-3.48-1.1-4.53-3.76-.73-5.26.72-5.84S645.43,269.07,646.48,271.72Z"/><ellipse class="cls-8" cx="671.91" cy="265.72" rx="2.83" ry="5.16" transform="translate(-49.1 218.65) rotate(-17.84)"/><path class="cls-8" d="M628.7,280.19V280a1.62,1.62,0,0,1,0-.22s0-.07,0-.11,0-.09,0-.13,0,.1,0,0a3.76,3.76,0,0,1,.17-.66s.06-.13,0,0l.06-.13c.09-.15,0-.09.17-.22,0,0,.15-.1.07-.06a.81.81,0,0,1,.29-.06c.22,0-.15,0,0,0-.15,0,0-.05.05,0s-.1-.11,0,0l.18.19c.15.15,0-.05.08.1l.2.3a23.63,23.63,0,0,1,2.3,5.93c.17.57.33,1.14.48,1.72a.76.76,0,0,0,1.47-.4,47,47,0,0,0-1.61-5.18c-.59-1.57-2-5.53-4.37-3.94a3.43,3.43,0,0,0-1.19,3c0,1,1.58,1,1.54,0Z"/><path class="cls-8" d="M691.3,265.51a3.24,3.24,0,0,0-2.07-2.36,1.61,1.61,0,0,0-2.09,1.49,13.66,13.66,0,0,0-.09,3.32c.07,1.21.2,2.42.36,3.62.09.72.19,1.43.31,2.15a.77.77,0,0,0,.94.54.79.79,0,0,0,.53-.95c-.23-1.44-.38-2.64-.52-4.16a25.77,25.77,0,0,1-.13-3.17c0-.22,0-.43,0-.65,0,0,0-.09,0-.14h0c0-.1,0-.2.06-.3a2.25,2.25,0,0,1,.05-.22c0-.05.12-.29,0-.06a.39.39,0,0,1,.08-.14s-.14.14,0,.06-.17.1,0,0c0,0-.14,0-.08,0s.25,0,.34.05a1.31,1.31,0,0,1,.45.39,2.12,2.12,0,0,1,.21.36c0,.05.16.35.1.19,0,.1.08.21.11.31a.76.76,0,0,0,1.47-.41Z"/><path class="cls-5" d="M617.83,233.71l7.49,15.61s5.17-9.5,26.15-7.8c0,0,3.39-8.86,20.44-9.17L665,213.56S633.15,212.39,617.83,233.71Z"/><path class="cls-6" d="M676.7,296.84a30,30,0,0,1-11.9,5,27.82,27.82,0,0,1-14.42-.63h0s.92,8.95-1.26,15.84c0,0,3,17.1,10.43,20.88,0,0,11.4-5,14.93-23.57,0,0-1.3-6,2.24-17.52Z"/><path class="cls-8" d="M650.55,305.84c4.15-.22,16.27,0,23.91,8.53,0,0-1.3-6,2.24-17.52h0a30,30,0,0,1-11.9,5,27.82,27.82,0,0,1-14.42-.63h0S650.55,303.12,650.55,305.84Z"/><path class="cls-2" d="M674.46,314.37c-3.53,18.58-14.93,23.57-14.93,23.57-7.38-3.78-10.43-20.88-10.43-20.88l-7.18,1.78s-.11,28.87,13.89,55.3c0,0,15.31-15.1,28.53-53.3Z"/><path class="cls-5" d="M728,344.26c-9.77-11.21-43.65-23.42-43.65-23.42-13.22,38.2-28.53,53.3-28.53,53.3-14-26.43-13.89-55.3-13.89-55.3s-27.87,8-38.75,15.32-40.32,111.61-40.32,111.61l-13,72.52s9.77,18.21,38.2,18.21l-.44,12.88h147s-4.88-37.31-7.55-81.29c0,0,17.77-1.33,17.33-23.54S737.76,355.46,728,344.26Z"/><path class="cls-3" d="M594,450.78c-5.72,31-17.2,64.94-23.74,82.93a54.56,54.56,0,0,0,17.79,2.79C588.51,523.62,594,450.78,594,450.78Z"/><path class="cls-3" d="M728.45,487.58c-.49-6.27-.94-12.8-1.35-19.49-17.32,0-60.41-7.54-60.41-7.54C685.94,467.14,712.89,479.93,728.45,487.58Z"/><path class="cls-3" d="M650.36,478.52c-.51,31.48-8.17,55.63-14.88,70.86h14.88Z"/><path class="cls-9" d="M588.06,536.5c.68-11.9,1.47-23.79,2.28-35.68l2.54-35.65,2.79-35.64,1.47-17.82,1.58-17.8-1.08,17.84-1.19,17.83-2.55,35.66-2.78,35.64C590.15,512.76,589.16,524.63,588.06,536.5Z"/><path class="cls-9" d="M727.1,468.09c-10-.95-20.06-2-30.06-3.14s-20-2.42-30-4l-.37-.06v-.37a105.61,105.61,0,0,1,1.2-16,113.25,113.25,0,0,1,3.46-15.65A91,91,0,0,1,677.17,414l1.82-3.58,2.07-3.45,1-1.72,1.17-1.64,2.32-3.28.25-.34.36.24,22.88,14.75-.52.26c.52-6.34.65-12.73.57-19.11A132.18,132.18,0,0,0,707.56,377a132.14,132.14,0,0,1,2,19.05c.11,3.19.15,6.39.09,9.59s-.17,6.39-.39,9.59l0,.56-.48-.3L685.7,401l.6-.1L684,404.09l-1.15,1.63-1,1.7-2,3.42L678,414.38c-.29.6-.61,1.18-.88,1.78l-.78,1.83c-.5,1.23-1.07,2.42-1.52,3.67l-1.35,3.74c-.45,1.24-.79,2.53-1.19,3.79a114,114,0,0,0-3.49,15.51,103.74,103.74,0,0,0-1.25,15.83l-.38-.43q14.92,2.36,29.91,4.28C707.1,465.66,717.09,467,727.1,468.09Z"/><path class="cls-9" d="M734.65,434.11c-.8-1.12-1.61-2.21-2.5-3.24s-1.78-2.07-2.71-3.06a52.64,52.64,0,0,0-6.06-5.41,40.86,40.86,0,0,0-6.86-4.29l-1.83-.89-1.91-.72-.95-.38-1-.29-2-.6a28.75,28.75,0,0,1,8,2.16c.32.14.65.26,1,.4l.92.48c.61.33,1.24.62,1.83,1a38.43,38.43,0,0,1,3.44,2.33,39.15,39.15,0,0,1,6,5.7A34.88,34.88,0,0,1,734.65,434.11Z"/><path class="cls-9" d="M593.39,384.58c.54,2.38,1,4.78,1.36,7.18s.76,4.81,1.09,7.22.63,4.82.86,7.25l.34,3.63c.08,1.22.19,2.43.24,3.65-.28-1.19-.49-2.39-.73-3.58l-.63-3.6c-.42-2.4-.75-4.81-1.09-7.22s-.62-4.82-.85-7.25S593.51,387,593.39,384.58Z"/><path class="cls-9" d="M655.81,374.14l-2.17,43.8c-.68,14.6-1.37,29.19-1.92,43.8s-1.08,29.2-1.43,43.81l-.22,11-.09,11,0,11c.06,3.65.22,7.3.33,11-1-14.59-1-29.23-.86-43.84s.64-29.24,1.2-43.84,1.31-29.21,2.16-43.81L654.22,396Z"/><path class="cls-6" d="M562.09,529.94a93.22,93.22,0,0,0,5.26,11.61c2.33,3.83,5.17,5.33,7.5,5s1.33-5.5,1.33-5.5,3.67-.52,4.33-5C580.51,536.05,568.64,534.8,562.09,529.94Z"/><path class="cls-16" d="M664.25,390.58s6.21-17.55,10-30.88L678,346.38s17.32,0,22.87,10.88c0,0-24.43,38.65-31.09,54.19s-14,45.76-14,45.76-18-.45-22-13.11C633.82,444.1,655.35,417.69,664.25,390.58Z"/><path class="cls-17" d="M665.06,424.37c1.55-4.73,3.16-9.24,4.74-12.92,3.58-8.36,12.32-23.42,19.62-35.55-9.27,4.51-16.6,5.31-21.8,4.86-1.93,5.73-3.37,9.82-3.37,9.82-4.4,13.38-11.86,26.59-18.3,36.54C653.58,425.64,660.22,424.82,665.06,424.37Z"/><path class="cls-6" d="M685.94,400.57s-4.37-6.22-6.37-9.55-6.44-3.33-9.77-2.66S664,387,660.47,389s-3.24,5.34-4.66,6.89a22.43,22.43,0,0,0-3.78,4.66,19.75,19.75,0,0,0-2.93,9.11c-.18,2,10.14,11.38,24.41,14.13C673.51,423.81,679,408.12,685.94,400.57Z"/><path class="cls-8" d="M664.07,252.91c-.23.19,0,0,.12-.08s.46-.31.7-.45a12.36,12.36,0,0,1,2.39-1.11,8.84,8.84,0,0,1,7.46.7.77.77,0,0,0,.78-1.32A11.19,11.19,0,0,0,663,251.83c-.77.61.32,1.69,1.08,1.08Z"/><path class="cls-10" d="M661.52,233.91a36.15,36.15,0,0,1,10.39-1.56L665,213.56a73.25,73.25,0,0,0-18.29,2.2C653.17,218.32,661.33,223.6,661.52,233.91Z"/><path class="cls-12" d="M622.82,228a38.58,38.58,0,0,0-5,5.68l7.49,15.61a12.69,12.69,0,0,1,4.43-4.09C623.5,238.06,622.5,232,622.82,228Z"/><path class="cls-13" d="M674.29,276.42c.39,6.69-.69,17.78-10.25,25.56.26-.05.51-.08.76-.14,10.77-2.37,17.49-7.32,20.16-18.82a38,38,0,0,0,.69-4.14S680.39,277.55,674.29,276.42Z"/><circle class="cls-18" cx="641.92" cy="273.53" r="12.44" transform="translate(228.93 835.95) rotate(-76.79)"/><circle class="cls-18" cx="671.91" cy="265.72" r="12.44"/><path class="cls-18" d="M653.38,268.69s2.21-4.15,6.15-1.71"/><path class="cls-19" d="M342.59,470.53l5.07-39.23a15.8,15.8,0,0,1,6.08-10.53l24.75-18.89,13.42,42.61-30.78,34.33Z"/><path class="cls-20" d="M368.9,422.61l-8.37,6.87a2,2,0,0,0-.66,2L366,455.57a2,2,0,0,0,3.51.73l12.39-15.79a2,2,0,0,0,.08-2.35L371.83,423A2,2,0,0,0,368.9,422.61Z"/><path class="cls-19" d="M601.26,470.53l-5.07-39.23a15.78,15.78,0,0,0-6.09-10.53l-24.75-18.89-13.41,42.61,30.78,34.33Z"/><path class="cls-20" d="M574.94,422.61l8.37,6.87a2,2,0,0,1,.67,2l-6.18,24.05a2,2,0,0,1-3.5.73l-12.39-15.79a2,2,0,0,1-.08-2.35L572,423A2,2,0,0,1,574.94,422.61Z"/><path class="cls-21" d="M475.81,216.28h-3.2a6.08,6.08,0,0,1,0-12.15h3.2a6.08,6.08,0,0,1,0,12.15Zm1.83-19.09h-6.85a13,13,0,1,0,0,26h6.85a13,13,0,0,0,0-26Z"/><rect class="cls-22" x="371.23" y="218.53" width="205.96" height="271.46" rx="10.17"/><rect class="cls-23" x="371.23" y="218.53" width="205.96" height="266.46" rx="10.07"/><rect class="cls-24" x="390.17" y="235.6" width="168.08" height="233.15"/><path class="cls-25" d="M390.17,468.75H558.25a0,0,0,0,1,0,0v1.19a3.08,3.08,0,0,1-3.08,3.08h-165a0,0,0,0,1,0,0v-4.27a0,0,0,0,1,0,0Z"/><rect class="cls-26" x="390.17" y="235.6" width="168.08" height="230.98"/><path class="cls-27" d="M478.32,194.59H470.1a15.62,15.62,0,0,0,0,31.24h8.22a15.62,15.62,0,0,0,0-31.24Zm-2.19,22.91h-3.84a7.29,7.29,0,0,1,0-14.58h3.84a7.29,7.29,0,1,1,0,14.58Z"/><rect class="cls-28" x="412.46" y="235.59" width="123.5" height="9.37"/><path class="cls-22" d="M416.71,222.87h115a4.25,4.25,0,0,1,4.25,4.25v8.28a0,0,0,0,1,0,0H412.46a0,0,0,0,1,0,0v-8.28A4.25,4.25,0,0,1,416.71,222.87Z"/><path class="cls-29" d="M426.95,211h94.53a9.75,9.75,0,0,1,9.75,9.75v19.84a0,0,0,0,1,0,0h-114a0,0,0,0,1,0,0V220.78A9.75,9.75,0,0,1,426.95,211Z"/><rect class="cls-27" x="417.2" y="231.55" width="114.03" height="9.07"/><rect class="cls-30" x="456.65" y="231.55" width="35.12" height="9.07" rx="4.54"/><rect class="cls-21" x="503.21" y="231.55" width="18.05" height="9.07" rx="4.54"/><path class="cls-30" d="M461.29,216.75H435.05a2.86,2.86,0,0,1-2.86-2.86h0a2.86,2.86,0,0,1,2.86-2.86h26.24a2.86,2.86,0,0,1,2.86,2.86h0A2.86,2.86,0,0,1,461.29,216.75Z"/><path class="cls-31" d="M504.64,490H469a2.5,2.5,0,0,1-2.5-2.5h0A2.5,2.5,0,0,1,469,485h35.62a2.5,2.5,0,0,1,2.5,2.5h0A2.5,2.5,0,0,1,504.64,490Z"/><path class="cls-32" d="M412.33,490H392.84a2.5,2.5,0,0,1-2.5-2.5h0a2.5,2.5,0,0,1,2.5-2.5h19.49a2.5,2.5,0,0,1,2.5,2.5h0A2.5,2.5,0,0,1,412.33,490Z"/><path class="cls-29" d="M476.69,199.49h-4.14A2.45,2.45,0,0,1,470.1,197h0a2.45,2.45,0,0,1,2.45-2.45h4.14a2.45,2.45,0,0,1,2.45,2.45h0A2.45,2.45,0,0,1,476.69,199.49Z"/><text class="cls-33" transform="translate(405.82 273.65)">REGIST<tspan class="cls-34" x="48.64" y="0">R</tspan><tspan class="cls-35" x="57.59" y="0">A</tspan><tspan x="66.43" y="0">TION</tspan></text><path class="cls-2" d="M482.11,292.18H409a3.15,3.15,0,0,1-3.15-3.15h0a3.15,3.15,0,0,1,3.15-3.15h73.14a3.15,3.15,0,0,1,3.15,3.15h0A3.15,3.15,0,0,1,482.11,292.18Z"/><path class="cls-1" d="M538.93,292.18H494.65a3.15,3.15,0,0,1-3.14-3.15h0a3.15,3.15,0,0,1,3.14-3.15h44.28a3.15,3.15,0,0,1,3.15,3.15h0A3.15,3.15,0,0,1,538.93,292.18Z"/><path class="cls-36" d="M492.76,305.93H409a3.15,3.15,0,0,1-3.15-3.15h0a3.15,3.15,0,0,1,3.15-3.15h83.79a3.15,3.15,0,0,1,3.15,3.15h0A3.15,3.15,0,0,1,492.76,305.93Z"/><path class="cls-37" d="M538.93,305.93H506.36a3.15,3.15,0,0,1-3.15-3.15h0a3.15,3.15,0,0,1,3.15-3.15h32.57a3.15,3.15,0,0,1,3.15,3.15h0A3.15,3.15,0,0,1,538.93,305.93Z"/><path class="cls-38" d="M482.11,319.68H409a3.15,3.15,0,0,1-3.15-3.15h0a3.15,3.15,0,0,1,3.15-3.15h73.14a3.15,3.15,0,0,1,3.15,3.15h0A3.15,3.15,0,0,1,482.11,319.68Z"/><path class="cls-2" d="M538.93,319.68H494.65a3.15,3.15,0,0,1-3.14-3.15h0a3.15,3.15,0,0,1,3.14-3.15h44.28a3.15,3.15,0,0,1,3.15,3.15h0A3.15,3.15,0,0,1,538.93,319.68Z"/><path class="cls-39" d="M501.94,345.64H433.1a2.55,2.55,0,0,1-2.55-2.55h0a2.55,2.55,0,0,1,2.55-2.55h68.84a2.55,2.55,0,0,1,2.55,2.55h0A2.55,2.55,0,0,1,501.94,345.64Z"/><path class="cls-40" d="M460.51,337.65H431.82a1.27,1.27,0,0,1-1.27-1.28h0a1.27,1.27,0,0,1,1.27-1.27h28.69a1.27,1.27,0,0,1,1.27,1.27h0A1.27,1.27,0,0,1,460.51,337.65Z"/><path class="cls-1" d="M539.52,355.15H433.1a2.55,2.55,0,0,1-2.55-2.55h0a2.55,2.55,0,0,1,2.55-2.55H539.52a2.56,2.56,0,0,1,2.56,2.55h0A2.56,2.56,0,0,1,539.52,355.15Z"/><path class="cls-2" d="M539.52,364.66H408.37a2.55,2.55,0,0,1-2.55-2.55h0a2.55,2.55,0,0,1,2.55-2.55H539.52a2.56,2.56,0,0,1,2.56,2.55h0A2.56,2.56,0,0,1,539.52,364.66Z"/><rect class="cls-38" x="405.82" y="335.1" width="20.2" height="20.2" rx="3.87"/><path class="cls-41" d="M414,351.16h-.12a1.93,1.93,0,0,1-1.41-.73l-2.8-3.46a2,2,0,0,1,3.08-2.48l1.44,1.79,5.11-4.91a2,2,0,0,1,2.74,2.85l-6.67,6.4A2,2,0,0,1,414,351.16Z"/><path class="cls-39" d="M521.37,388.78H433.1a2.55,2.55,0,0,1-2.55-2.55h0a2.55,2.55,0,0,1,2.55-2.55h88.27a2.55,2.55,0,0,1,2.55,2.55h0A2.55,2.55,0,0,1,521.37,388.78Z"/><path class="cls-40" d="M460.51,380.78H431.82a1.27,1.27,0,0,1-1.27-1.27h0a1.27,1.27,0,0,1,1.27-1.28h28.69a1.27,1.27,0,0,1,1.27,1.28h0A1.27,1.27,0,0,1,460.51,380.78Z"/><rect class="cls-36" x="430.55" y="393.19" width="111.53" height="5.1" rx="2.55"/><path class="cls-1" d="M539.52,407.8H408.37a2.55,2.55,0,0,1-2.55-2.55h0a2.55,2.55,0,0,1,2.55-2.55H539.52a2.56,2.56,0,0,1,2.56,2.55h0A2.56,2.56,0,0,1,539.52,407.8Z"/><rect class="cls-38" x="405.82" y="378.23" width="20.2" height="20.2" rx="3.87"/><path class="cls-41" d="M414,393.51h-.12a1.93,1.93,0,0,1-1.41-.73l-2.8-3.46a2,2,0,0,1,3.08-2.48l1.44,1.79,5.11-4.91a2,2,0,0,1,2.74,2.85l-6.67,6.4A2,2,0,0,1,414,393.51Z"/><path class="cls-39" d="M482.71,431.92H433.1a2.55,2.55,0,0,1-2.55-2.55h0a2.55,2.55,0,0,1,2.55-2.55h49.61a2.55,2.55,0,0,1,2.55,2.55h0A2.55,2.55,0,0,1,482.71,431.92Z"/><path class="cls-40" d="M460.51,423.92H431.82a1.27,1.27,0,0,1-1.27-1.27h0a1.27,1.27,0,0,1,1.27-1.28h28.69a1.27,1.27,0,0,1,1.27,1.28h0A1.27,1.27,0,0,1,460.51,423.92Z"/><path class="cls-36" d="M539.52,441.43H433.1a2.55,2.55,0,0,1-2.55-2.55h0a2.55,2.55,0,0,1,2.55-2.55H539.52a2.56,2.56,0,0,1,2.56,2.55h0A2.56,2.56,0,0,1,539.52,441.43Z"/><path class="cls-37" d="M539.52,450.94H408.37a2.55,2.55,0,0,1-2.55-2.55h0a2.55,2.55,0,0,1,2.55-2.55H539.52a2.56,2.56,0,0,1,2.56,2.55h0A2.56,2.56,0,0,1,539.52,450.94Z"/><rect class="cls-38" x="405.82" y="421.37" width="20.2" height="20.2" rx="3.87"/><path class="cls-41" d="M414,435.86h-.12a1.93,1.93,0,0,1-1.41-.73l-2.8-3.46a2,2,0,0,1,3.08-2.48l1.44,1.79,5.11-4.91a2,2,0,0,1,2.74,2.85l-6.67,6.4A2,2,0,0,1,414,435.86Z"/><path class="cls-19" d="M573.48,494.87l-3-9.56a1.67,1.67,0,0,0-1-1l-11.33-4.53c-10.4-4.16-10-20.44-9.73-24.81a1.62,1.62,0,0,0-.92-1.58l-14.23-6.93a10.09,10.09,0,0,1-5-12.61h0a6.35,6.35,0,0,1,8.1-3.74L566.66,441a1.6,1.6,0,0,1,.86.7l15.89,26.67a1.64,1.64,0,0,0,1.92.72l13.42-4.44a1.63,1.63,0,0,1,2.11,1.2L607.13,494a1.64,1.64,0,0,1-1.6,2H575A1.65,1.65,0,0,1,573.48,494.87Z"/><path class="cls-20" d="M578,477.9l-5.13-.79c-22.09-3.95-16.57-26.83-16.57-26.83l-29-12.74a8.44,8.44,0,0,0,4.72,8.23l16.58,8.08s-2.41,21.09,9.64,25.9l12.05,4.82L573.84,496h8.44Z"/><path class="cls-42" d="M530.37,436.72l1.15-2.24a2.54,2.54,0,0,1,3.13-1.23l5.75,2.08a2.55,2.55,0,0,1,1.4,3.55l-1.66,3.23a2.54,2.54,0,0,1-3.55,1l-5.25-3.07A2.55,2.55,0,0,1,530.37,436.72Z"/><rect class="cls-43" x="566.66" y="490.09" width="44.98" height="13.02" rx="4.75" transform="translate(-70.67 98.67) rotate(-9.03)"/><rect class="cls-44" x="566.78" y="491.5" width="26.96" height="13.02" rx="5.67" transform="translate(-71 97.3) rotate(-9.03)"/><polygon class="cls-39" points="623.38 550.63 614.75 495.12 563.58 503.26 570.94 550.63 623.38 550.63"/><path class="cls-45" d="M602.23,550.63l-6.68-43.13A9.21,9.21,0,0,0,585,499.85l-21.43,3.41,7.36,47.37Z"/><path class="cls-19" d="M370.37,494.87l3-9.56a1.66,1.66,0,0,1,1-1l11.32-4.53c10.41-4.16,10-20.44,9.73-24.81a1.64,1.64,0,0,1,.92-1.58l14.24-6.93a10.09,10.09,0,0,0,5-12.61h0a6.34,6.34,0,0,0-8.09-3.74L377.18,441a1.55,1.55,0,0,0-.85.7l-15.89,26.67a1.66,1.66,0,0,1-1.93.72l-13.41-4.44a1.64,1.64,0,0,0-2.12,1.2L336.72,494a1.64,1.64,0,0,0,1.6,2H368.8A1.65,1.65,0,0,0,370.37,494.87Z"/><path class="cls-20" d="M365.87,477.9l5.12-.79c22.1-3.95,16.58-26.83,16.58-26.83l29-12.74a8.44,8.44,0,0,1-4.72,8.23l-16.59,8.08s2.41,21.09-9.64,25.9l-12,4.82L370,496h-8.44Z"/><path class="cls-42" d="M413.48,436.72l-1.15-2.24a2.54,2.54,0,0,0-3.13-1.23l-5.75,2.08a2.54,2.54,0,0,0-1.4,3.55l1.65,3.23a2.55,2.55,0,0,0,3.55,1l5.25-3.07A2.54,2.54,0,0,0,413.48,436.72Z"/><rect class="cls-43" x="332.2" y="490.09" width="44.98" height="13.02" rx="4.75" transform="translate(627 1042.73) rotate(-170.97)"/><rect class="cls-44" x="350.11" y="491.5" width="26.96" height="13.02" rx="5.67" transform="translate(644.47 1046.94) rotate(-170.97)"/><polygon class="cls-39" points="320.46 550.63 329.09 495.12 380.27 503.26 372.9 550.63 320.46 550.63"/><path class="cls-45" d="M341.61,550.63l6.69-43.13a9.21,9.21,0,0,1,10.54-7.65l21.43,3.41-7.37,47.37Z"/></g></svg>